<?xml version="1.0" encoding="utf-8"?>
<!-- Generator: Adobe Illustrator 21.1.0, SVG Export Plug-In . SVG Version: 6.00 Build 0)  -->
<svg version="1.1" id="Layer_1" xmlns="http://www.w3.org/2000/svg" xmlns:xlink="http://www.w3.org/1999/xlink" x="0px" y="0px"
	 viewBox="0 0 470 503.6" style="enable-background:new 0 0 470 503.6;" xml:space="preserve">
<style type="text/css">
	.st0{fill:#FFFFFF;}
</style>
<g>
	<g>
		<path class="st0" d="M225.3,4c3.4-1.6,6.8-4.4,10.8-3.9c3.2,0.6,6,2.6,8.9,4C317.5,41.7,390.1,79.4,462.7,117
			c3.4,1.5,6.8,3.9,7.3,7.9v35.9c-0.8,3.1-2.9,5.9-6.1,6.7c-3.5,0.6-7.1,0.2-10.7,0.3c0,109,0,218,0,326.9c0.1,2.9-1.3,5.9-3.8,7.5
			c-2.5,1.7-5.6,1.3-8.4,1.4c-10-0.1-20,0.1-30-0.1c-4.2,0-8-3.6-8.1-7.7c-0.3-8.6,0.1-17.2-0.1-25.7c-111.9-0.1-223.8,0-335.7,0
			c-0.1,8.6,0.2,17.1-0.1,25.7c-0.1,4.6-4.6,8.2-9.1,7.9c-11,0-22,0.1-33,0c-4.6,0.1-8.5-4.2-8.2-8.8c0-109,0-217.9,0-326.9
			c-3.6-0.1-7.2,0.3-10.7-0.3C3,166.8,0.9,164,0,161.1v-36.2c0.5-3.1,2.5-5.7,5.3-6.9C78.6,80,151.9,42,225.3,4z M16.8,131
			c0,6.7,0,13.4,0,20.1c5.6,0,11.2,0,16.8,0c0.3-5.3-1.6-12.6,4.2-15.6c64.1-33.5,128.3-67,192.4-100.5c2.5-1.4,5.6-2,8.3-0.6
			c3.8,1.8,7.4,3.9,11.1,5.8c60.9,31.8,121.9,63.5,182.7,95.4c5.6,3.1,3.8,10.3,4.1,15.6c5.6-0.1,11.2,0,16.8,0c0-6.7,0-13.4,0-20.1
			C380.5,93.3,307.8,55.5,235,17.9C162.2,55.5,89.5,93.3,16.8,131z M50.2,147.9c0,1.1,0.1,2.1,0.2,3.2c123.1-0.1,246.1,0,369.2,0
			c0-1.1,0.1-2.1,0.1-3.2C358.2,115.6,296.6,83.6,235,51.4C173.4,83.6,111.8,115.6,50.2,147.9z M33.6,167.8c0,44.8,0,89.5,0,134.3
			c134.3,0,268.6,0,402.9,0c0-44.8,0-89.5,0-134.3C302.1,167.8,167.9,167.9,33.6,167.8z M33.6,319c0,44.8,0,89.5,0,134.3
			c134.3,0,268.6,0,402.9,0c0-44.8,0-89.5,0-134.3C302.1,318.9,167.9,318.9,33.6,319z M33.5,470.1c0.1,5.6,0.1,11.1,0.1,16.7
			c5.6,0,11.2,0,16.8,0c0-5.6,0-11.1,0.1-16.7C44.8,470,39.1,470,33.5,470.1z M419.6,470.1c0,5.6,0,11.1,0,16.7c5.6,0,11.2,0,16.8,0
			c0-5.6-0.1-11.1,0-16.7C430.9,469.9,425.2,470,419.6,470.1z"/>
	</g>
	<g>
		<path class="st0" d="M173.4,185.1c1.8-0.6,3.7-0.5,5.6-0.5c38,0,76.1,0,114.1,0c4.6-0.4,9.1,3.4,9,8.1c0.1,11.3,0,22.7,0,34
			c0.1,4.4-3.9,8.3-8.3,8.2c-39.2,0-78.5,0-117.7,0c-4.4,0-8.4-3.9-8.3-8.4c0-11.3-0.1-22.6,0-33.9
			C167.9,189.4,170.2,186.3,173.4,185.1z M184.6,201.4c0,5.6,0,11.2,0,16.8c33.6,0,67.1,0,100.7,0c0-5.6,0-11.2,0-16.8
			C251.8,201.4,218.2,201.4,184.6,201.4z"/>
	</g>
	<g>
		<path class="st0" d="M173.4,336.2c1.2-0.4,2.3-0.5,3.6-0.5c38.7,0.1,77.4,0,116.1,0c2.9-0.2,5.8,1,7.5,3.4c2,2.4,1.6,5.7,1.7,8.6
			c-0.2,10,0.1,20-0.1,30c0.1,4.7-4.4,8.7-9,8.3c-38.7,0-77.5,0-116.2,0c-4.7,0.4-9.3-3.5-9-8.4c-0.1-11,0-22-0.1-32.9
			C167.5,341.1,169.9,337.4,173.4,336.2z M184.6,352.5c0,5.6,0,11.2,0,16.8c33.6,0,67.1,0,100.7,0c0-5.6,0-11.2,0-16.8
			C251.8,352.5,218.2,352.5,184.6,352.5z"/>
	</g>
</g>
</svg>
