<?xml version="1.0" encoding="utf-8"?>
<!-- Generator: Adobe Illustrator 21.1.0, SVG Export Plug-In . SVG Version: 6.00 Build 0)  -->
<svg version="1.1" id="Layer_1" xmlns="http://www.w3.org/2000/svg" xmlns:xlink="http://www.w3.org/1999/xlink" x="0px" y="0px"
	 viewBox="0 0 500 691.3" style="enable-background:new 0 0 500 691.3;" xml:space="preserve">
<style type="text/css">
	.st0{clip-path:url(#SVGID_2_);}
	.st1{fill:#FFFFFF;}
	.st2{clip-path:url(#SVGID_4_);}
	.st3{clip-path:url(#SVGID_6_);}
</style>
<g>
	<defs>
		<rect id="SVGID_1_" width="500" height="224"/>
	</defs>
	<clipPath id="SVGID_2_">
		<use xlink:href="#SVGID_1_"  style="overflow:visible;"/>
	</clipPath>
	<g class="st0">
		<g>
			<path class="st1" d="M243.3,26.2c3.4-1.6,6.8-4.4,10.8-3.9c3.2,0.6,6,2.6,8.9,4c72.6,37.7,145.2,75.3,217.8,112.9
				c3.4,1.5,6.8,3.9,7.3,7.9v35.9c-0.8,3.1-2.9,5.9-6.1,6.7c-3.5,0.6-7.1,0.2-10.7,0.3c0,109,0,217.9,0,326.9
				c0.1,2.9-1.3,5.9-3.8,7.4c-2.5,1.7-5.6,1.3-8.4,1.4c-10-0.1-20,0.1-30-0.1c-4.2,0-8-3.6-8.1-7.7c-0.3-8.6,0.1-17.2-0.1-25.7
				c-111.9-0.1-223.8,0-335.7,0c-0.1,8.6,0.2,17.1-0.1,25.7c-0.1,4.6-4.6,8.2-9.1,7.8c-11,0-22,0.1-33,0c-4.6,0.1-8.5-4.2-8.2-8.8
				c0-109,0-217.9,0-326.9c-3.6-0.1-7.2,0.3-10.7-0.3c-3.1-0.7-5.2-3.6-6.1-6.4v-36.2c0.5-3.1,2.5-5.7,5.3-6.9
				C96.6,102.3,169.9,64.3,243.3,26.2z M34.8,153.2c0,6.7,0,13.4,0,20.1c5.6,0,11.2,0,16.8,0c0.3-5.3-1.6-12.6,4.2-15.6
				c64.1-33.5,128.3-67,192.4-100.4c2.5-1.4,5.6-2,8.3-0.6c3.8,1.8,7.4,3.9,11.1,5.8c60.9,31.8,121.9,63.5,182.7,95.4
				c5.6,3.1,3.8,10.3,4.1,15.6c5.6-0.1,11.2,0,16.8,0c0-6.7,0-13.4,0-20.1C398.5,115.6,325.8,77.8,253,40.1
				C180.2,77.8,107.5,115.6,34.8,153.2z M68.2,170.2c0.1,1.1,0.1,2.1,0.2,3.2c123.1-0.1,246.1,0,369.2,0c0-1.1,0.1-2.1,0.1-3.2
				c-61.5-32.3-123.1-64.3-184.7-96.5C191.4,105.9,129.8,137.9,68.2,170.2z M51.6,190.1c0,44.8,0,89.5,0,134.3
				c134.3,0,268.6,0,402.9,0c0-44.8,0-89.5,0-134.3C320.1,190.1,185.9,190.1,51.6,190.1z M51.6,341.2c0,44.8,0,89.5,0,134.3
				c134.3,0,268.6,0,402.9,0c0-44.8,0-89.5,0-134.3C320.1,341.2,185.9,341.2,51.6,341.2z M51.5,492.4c0.1,5.6,0.1,11.1,0.1,16.7
				c5.6,0,11.2,0,16.8,0c0-5.6,0-11.1,0.1-16.7C62.8,492.2,57.1,492.3,51.5,492.4z M437.6,492.4c0,5.6,0,11.1,0,16.7
				c5.6,0,11.2,0,16.8,0c0-5.6-0.1-11.1,0-16.7C448.9,492.2,443.2,492.3,437.6,492.4z"/>
		</g>
		<g>
			<path class="st1" d="M191.4,207.4c1.8-0.6,3.7-0.5,5.6-0.5c38,0,76.1,0,114.1,0c4.6-0.4,9.1,3.4,9,8.1c0.1,11.3,0,22.7,0,34
				c0.1,4.4-3.9,8.3-8.3,8.2c-39.2,0-78.5,0-117.7,0c-4.4,0-8.4-3.9-8.3-8.4c0-11.3-0.1-22.6,0-33.9
				C185.9,211.6,188.2,208.5,191.4,207.4z M202.6,223.7c0,5.6,0,11.2,0,16.8c33.6,0,67.1,0,100.7,0c0-5.6,0-11.2,0-16.8
				C269.8,223.7,236.2,223.7,202.6,223.7z"/>
		</g>
		<g>
			<path class="st1" d="M191.4,358.5c1.2-0.4,2.3-0.5,3.6-0.5c38.7,0.1,77.4,0,116.1,0c2.9-0.2,5.8,1,7.5,3.4c2,2.4,1.6,5.7,1.7,8.6
				c-0.2,10,0.1,20-0.1,30c0.1,4.7-4.4,8.7-9,8.3c-38.7,0-77.5,0-116.2,0c-4.7,0.4-9.3-3.5-9-8.4c-0.1-11,0-22-0.1-33
				C185.5,363.4,187.9,359.7,191.4,358.5z M202.6,374.8c0,5.6,0,11.2,0,16.8c33.6,0,67.1,0,100.7,0c0-5.6,0-11.2,0-16.8
				C269.8,374.8,236.2,374.8,202.6,374.8z"/>
		</g>
	</g>
</g>
<g>
	<defs>
		<rect id="SVGID_3_" x="18" y="338.8" width="470" height="352.5"/>
	</defs>
	<clipPath id="SVGID_4_">
		<use xlink:href="#SVGID_3_"  style="overflow:visible;"/>
	</clipPath>
	<g class="st2">
		<g>
			<path class="st1" d="M243.3,170.4c3.4-1.6,6.8-4.4,10.8-3.9c3.2,0.6,6,2.6,8.9,4c72.6,37.7,145.2,75.3,217.8,112.9
				c3.4,1.5,6.8,3.9,7.3,7.9v35.9c-0.8,3.1-2.9,5.9-6.1,6.7c-3.5,0.6-7.1,0.2-10.7,0.3c0,109,0,218,0,326.9c0.1,2.9-1.3,5.9-3.8,7.5
				c-2.5,1.7-5.6,1.3-8.4,1.4c-10-0.1-20,0.1-30-0.1c-4.2,0-8-3.6-8.1-7.7c-0.3-8.6,0.1-17.2-0.1-25.7c-111.9-0.1-223.8,0-335.7,0
				c-0.1,8.6,0.2,17.2-0.1,25.7c-0.1,4.6-4.6,8.2-9.1,7.8c-11,0-22,0.1-33,0c-4.6,0.1-8.5-4.2-8.2-8.8c0-109,0-217.9,0-326.9
				c-3.6-0.1-7.2,0.3-10.7-0.3c-3.1-0.7-5.2-3.5-6.1-6.4v-36.2c0.5-3.1,2.5-5.7,5.3-6.9C96.6,246.4,169.9,208.4,243.3,170.4z
				 M34.8,297.4c0,6.7,0,13.4,0,20.1c5.6,0,11.2,0,16.8,0c0.3-5.3-1.6-12.6,4.2-15.6c64.1-33.5,128.3-67,192.4-100.5
				c2.5-1.4,5.6-2,8.3-0.6c3.8,1.8,7.4,3.9,11.1,5.8c60.9,31.8,121.9,63.5,182.7,95.4c5.6,3.1,3.8,10.3,4.1,15.6
				c5.6-0.1,11.2,0,16.8,0c0-6.7,0-13.4,0-20.1c-72.7-37.7-145.4-75.5-218.2-113.1C180.2,221.9,107.5,259.7,34.8,297.4z M68.2,314.3
				c0.1,1.1,0.1,2.1,0.2,3.2c123.1-0.1,246.1,0,369.2,0c0-1.1,0.1-2.1,0.1-3.2C376.2,282,314.6,250,253,217.8
				C191.4,250,129.8,282,68.2,314.3z M51.6,334.2c0,44.8,0,89.5,0,134.3c134.3,0,268.6,0,402.9,0c0-44.8,0-89.5,0-134.3
				C320.1,334.2,185.9,334.3,51.6,334.2z M51.6,485.4c0,44.8,0,89.5,0,134.3c134.3,0,268.6,0,402.9,0c0-44.8,0-89.5,0-134.3
				C320.1,485.3,185.9,485.3,51.6,485.4z M51.5,636.5c0.1,5.6,0.1,11.1,0.1,16.7c5.6,0,11.2,0,16.8,0c0-5.6,0-11.1,0.1-16.7
				C62.8,636.4,57.1,636.4,51.5,636.5z M437.6,636.5c0,5.6,0,11.2,0,16.7c5.6,0,11.2,0,16.8,0c0-5.6-0.1-11.2,0-16.7
				C448.9,636.3,443.2,636.4,437.6,636.5z"/>
		</g>
		<g>
			<path class="st1" d="M191.4,351.5c1.8-0.6,3.7-0.5,5.6-0.5c38,0,76.1,0,114.1,0c4.6-0.4,9.1,3.4,9,8.1c0.1,11.4,0,22.7,0,34
				c0.1,4.4-3.9,8.3-8.3,8.2c-39.2,0-78.5,0-117.7,0c-4.4,0-8.4-3.9-8.3-8.4c0-11.3-0.1-22.6,0-34
				C185.9,355.8,188.2,352.7,191.4,351.5z M202.6,367.8c0,5.6,0,11.2,0,16.8c33.6,0,67.1,0,100.7,0c0-5.6,0-11.2,0-16.8
				C269.8,367.8,236.2,367.8,202.6,367.8z"/>
		</g>
		<g>
			<path class="st1" d="M191.4,502.6c1.2-0.4,2.3-0.5,3.6-0.5c38.7,0.1,77.4,0,116.1,0c2.9-0.2,5.8,1,7.5,3.4c2,2.4,1.6,5.7,1.7,8.6
				c-0.2,10,0.1,20-0.1,30c0.1,4.7-4.4,8.7-9,8.3c-38.7,0-77.5,0-116.2,0c-4.7,0.4-9.3-3.5-9-8.4c-0.1-11,0-22-0.1-33
				C185.5,507.5,187.9,503.8,191.4,502.6z M202.6,518.9c0,5.6,0,11.2,0,16.8c33.6,0,67.1,0,100.7,0c0-5.6,0-11.2,0-16.8
				C269.8,518.9,236.2,518.9,202.6,518.9z"/>
		</g>
	</g>
</g>
<g>
	<defs>
		<rect id="SVGID_5_" x="18" y="163" width="470" height="176.2"/>
	</defs>
	<clipPath id="SVGID_6_">
		<use xlink:href="#SVGID_5_"  style="overflow:visible;"/>
	</clipPath>
	<g class="st3">
		<g>
			<path class="st1" d="M243.3-125.3c3.4-1.6,6.8-4.4,10.8-3.9c3.2,0.6,6,2.6,8.9,4c72.6,37.7,145.2,75.3,217.8,112.9
				c3.4,1.5,6.8,3.9,7.3,7.9v35.9c-0.8,3.1-2.9,5.9-6.1,6.7c-3.5,0.6-7.1,0.2-10.7,0.3c0,109,0,217.9,0,326.9
				c0.1,2.9-1.3,5.9-3.8,7.5c-2.5,1.7-5.6,1.3-8.4,1.4c-10-0.1-20,0.1-30-0.1c-4.2,0-8-3.6-8.1-7.7c-0.3-8.6,0.1-17.2-0.1-25.7
				c-111.9-0.1-223.8,0-335.7,0c-0.1,8.6,0.2,17.1-0.1,25.7c-0.1,4.6-4.6,8.2-9.1,7.9c-11,0-22,0.1-33-0.1c-4.6,0.1-8.5-4.2-8.2-8.8
				c0-109,0-217.9,0-326.9c-3.6-0.1-7.2,0.3-10.7-0.3C21,37.5,19,34.7,18,31.8V-4.4c0.5-3.1,2.5-5.7,5.3-6.9
				C96.6-49.3,169.9-87.3,243.3-125.3z M34.8,1.7c0,6.7,0,13.4,0,20.1c5.6,0,11.2,0,16.8,0c0.3-5.3-1.6-12.6,4.2-15.6
				c64.1-33.5,128.3-66.9,192.4-100.4c2.5-1.4,5.6-2,8.3-0.6c3.8,1.8,7.4,3.9,11.1,5.8c60.9,31.8,121.9,63.5,182.7,95.4
				c5.6,3.1,3.8,10.3,4.1,15.6c5.6-0.1,11.2,0,16.8,0c0-6.7,0-13.4,0-20.1C398.5-36,325.8-73.8,253-111.4
				C180.2-73.8,107.5-36,34.8,1.7z M68.2,18.6c0.1,1.1,0.1,2.1,0.2,3.2c123.1-0.1,246.1,0,369.2,0c0-1.1,0.1-2.1,0.1-3.2
				C376.2-13.7,314.6-45.7,253-77.9C191.4-45.7,129.8-13.7,68.2,18.6z M51.6,38.5c0,44.8,0,89.5,0,134.3c134.3,0,268.6,0,402.9,0
				c0-44.8,0-89.5,0-134.3C320.1,38.5,185.9,38.6,51.6,38.5z M51.6,189.7c0,44.8,0,89.5,0,134.3c134.3,0,268.6,0,402.9,0
				c0-44.8,0-89.5,0-134.3C320.1,189.6,185.9,189.6,51.6,189.7z M51.5,340.8c0.1,5.6,0.1,11.1,0.1,16.7c5.6,0,11.2,0,16.8,0
				c0-5.6,0-11.1,0.1-16.7C62.8,340.7,57.1,340.7,51.5,340.8z M437.6,340.8c0,5.6,0,11.1,0,16.7c5.6,0,11.2,0,16.8,0
				c0-5.6-0.1-11.1,0-16.7C448.9,340.6,443.2,340.7,437.6,340.8z"/>
		</g>
		<g>
			<path class="st1" d="M191.4,55.8c1.8-0.6,3.7-0.5,5.6-0.5c38,0,76.1,0,114.1,0c4.6-0.4,9.1,3.4,9,8.1c0.1,11.4,0,22.7,0,34
				c0.1,4.4-3.9,8.3-8.3,8.2c-39.2,0-78.5,0-117.7,0c-4.4,0-8.4-3.9-8.3-8.4c0-11.3-0.1-22.6,0-33.9C185.9,60.1,188.2,57,191.4,55.8
				z M202.6,72.1c0,5.6,0,11.2,0,16.8c33.6,0,67.1,0,100.7,0c0-5.6,0-11.2,0-16.8C269.8,72.1,236.2,72.1,202.6,72.1z"/>
		</g>
		<g>
			<path class="st1" d="M191.4,206.9c1.2-0.4,2.3-0.5,3.6-0.5c38.7,0.1,77.4,0,116.1,0c2.9-0.2,5.8,1,7.5,3.4c2,2.4,1.6,5.7,1.7,8.6
				c-0.2,10,0.1,20-0.1,30c0.1,4.7-4.4,8.7-9,8.3c-38.7,0-77.5,0-116.2,0c-4.7,0.4-9.3-3.5-9-8.4c-0.1-11,0-22-0.1-33
				C185.5,211.8,187.9,208.1,191.4,206.9z M202.6,223.2c0,5.6,0,11.2,0,16.8c33.6,0,67.1,0,100.7,0c0-5.6,0-11.2,0-16.8
				C269.8,223.2,236.2,223.2,202.6,223.2z"/>
		</g>
	</g>
</g>
</svg>
