<svg xmlns="http://www.w3.org/2000/svg" width="164" height="177" viewBox="0 0 164 177">
    <g fill="#FFF" fill-rule="evenodd">
        <path d="M146.435 164.467c-.01 1.945-.014 3.89-.004 5.835 1.95.01 3.898.01 5.848 0 .01-1.952-.003-3.9 0-5.849a250.865 250.865 0 0 0-5.844.014m-134.721-.017c0 1.948-.004 3.9 0 5.852 1.95.01 3.897.01 5.848 0 0-1.952.01-3.9.004-5.852-1.951 0-3.902.003-5.852 0m.003-52.748c-.007 15.625-.007 31.25 0 46.875 46.852.01 93.707.01 140.562 0 .01-15.625.004-31.25.004-46.875-46.855-.014-93.71-.014-140.566 0m-.003-52.762c0 15.628-.014 31.257.007 46.889 46.851.007 93.707.007 140.558 0 .007-15.629.004-31.257 0-46.89-46.855 0-93.71.008-140.565 0m5.855-7.01c0 .286-.003.858-.007 1.148 42.954.007 85.905.014 128.859-.007.003-.286.003-.855.007-1.141C124.954 40.713 103.48 29.49 82 18.294A75200.894 75200.894 0 0 0 17.57 51.929m-11.703-5.86a585.782 585.782 0 0 0-.004 7.005c1.944.01 3.89.01 5.834.014.116-1.847-.523-4.379 1.455-5.45C35.532 35.901 57.955 24.24 80.35 12.528c.935-.538 2.11-.663 3.07-.108 22.018 11.484 44.029 22.992 66.05 34.473 2.865.722 3.085 3.732 2.827 6.19 1.943-.01 3.89.007 5.834-.007.014-2.336.01-4.675 0-7.01-25.378-13.16-50.746-26.345-76.13-39.495C56.61 19.718 31.24 32.9 5.865 46.07M80.468.745c1.679-1.03 3.44.188 4.93.967 25.578 13.296 51.176 26.557 76.763 39.84.81.39 1.337 1.13 1.84 1.85v13.362c-.849 2.532-3.731 2.266-5.863 2.176-.004 38.055.017 76.107-.01 114.158.122 1.502-1.037 2.643-2.352 3.118h-12.782c-1.207-.422-2.4-1.368-2.39-2.765-.136-2.992.031-5.992-.049-8.987-39.042-.032-78.085-.004-117.127-.014-.05 2.999.09 6.002-.042 9.001.014 1.372-1.152 2.294-2.307 2.765H8.298c-1.368-.422-2.551-1.599-2.44-3.118-.006-38.051-.003-76.103-.003-114.155-2.121.08-4.836.325-5.855-2.028V43.538c.405-.827.984-1.589 1.839-1.99 26.209-13.6 52.42-27.196 78.63-40.803"/>
        <path d="M64.431 70.672c0 1.948-.01 3.9 0 5.852 11.71.003 23.42.003 35.13-.004.015-1.948 0-3.9 0-5.848-11.71-.01-23.42-.01-35.13 0m-3.95-5.685c.639-.199 1.316-.17 1.979-.188 13.266.017 26.533-.004 39.803.01 1.584-.136 3.161 1.16 3.14 2.79.049 3.977.032 7.954.007 11.927.042 1.655-1.535 3.017-3.158 2.863-13.5.007-27-.007-40.5.007-1.627.137-3.204-1.222-3.173-2.88-.028-3.851-.02-7.706-.007-11.557-.087-1.275.688-2.556 1.91-2.972M64.435 123.423c-.018 1.945-.004 3.89-.007 5.834 11.71.035 23.427.05 35.138-.007-.004-1.94.01-3.886-.004-5.827-11.71-.01-23.42-.01-35.127 0m-3.95-5.691c13.772-.412 27.618-.06 41.418-.179 1.69-.254 3.493.992 3.497 2.773.052 3.97.042 7.947.007 11.92.052 1.666-1.529 3.038-3.162 2.891-13.497.007-26.993.007-40.49 0-1.633.143-3.249-1.211-3.169-2.894-.059-3.855.004-7.71-.027-11.565-.077-1.27.722-2.527 1.926-2.946"/>
    </g>
</svg>
