<?xml version="1.0" encoding="UTF-8" standalone="no"?>
<svg
   xmlns:dc="http://purl.org/dc/elements/1.1/"
   xmlns:cc="http://creativecommons.org/ns#"
   xmlns:rdf="http://www.w3.org/1999/02/22-rdf-syntax-ns#"
   xmlns:svg="http://www.w3.org/2000/svg"
   xmlns="http://www.w3.org/2000/svg"
   xmlns:sodipodi="http://sodipodi.sourceforge.net/DTD/sodipodi-0.dtd"
   xmlns:inkscape="http://www.inkscape.org/namespaces/inkscape"
   width="29"
   height="29"
   viewBox="0 0 29 29"
   version="1.1"
   id="svg4"
   sodipodi:docname="lorien-circle.svg"
   inkscape:version="0.92.1 r">
  <metadata
     id="metadata10">
    <rdf:RDF>
      <cc:Work
         rdf:about="">
        <dc:format>image/svg+xml</dc:format>
        <dc:type
           rdf:resource="http://purl.org/dc/dcmitype/StillImage" />
      </cc:Work>
    </rdf:RDF>
  </metadata>
  <defs
     id="defs8" />
  <sodipodi:namedview
     pagecolor="#ffffff"
     bordercolor="#666666"
     borderopacity="1"
     objecttolerance="10"
     gridtolerance="10"
     guidetolerance="10"
     inkscape:pageopacity="0"
     inkscape:pageshadow="2"
     inkscape:window-width="1920"
     inkscape:window-height="1043"
     id="namedview6"
     showgrid="false"
     inkscape:zoom="8.137931"
     inkscape:cx="-7.3114407"
     inkscape:cy="14.5"
     inkscape:window-x="0"
     inkscape:window-y="37"
     inkscape:window-maximized="0"
     inkscape:current-layer="svg4" />
  <path
     fill="#2E2E2E"
     fill-rule="evenodd"
     d="M13.26 24.653a8.176 8.176 0 0 0-4.005 1.677c.83.367 1.699.648 2.587.835.07.024.133-.026.198-.045a6.039 6.039 0 0 1 4.657.053c.057.018.111.063.174.047.897-.164 1.775-.43 2.618-.78a8.18 8.18 0 0 0-6.23-1.787m2.052-3.525v2.044a9.672 9.672 0 0 1 5.603 2.565 13.045 13.045 0 0 0 1.758-1.209 11.768 11.768 0 0 0-6.585-3.368c-.257-.037-.518-.095-.776-.032m-9.195 3.225c.54.463 1.122.878 1.732 1.246a9.677 9.677 0 0 1 5.841-2.46v-2.01c-.142-.016-.282-.052-.424-.058a11.747 11.747 0 0 0-7.149 3.282m7.608-14.86a5.131 5.131 0 0 0-2.378 1.04 5.075 5.075 0 0 0-1.796 2.893 5.053 5.053 0 0 0 .419 3.337 5.033 5.033 0 0 0 2.24 2.254 5.061 5.061 0 0 0 2.747.53 5.116 5.116 0 0 0 2.711-1.093 5.094 5.094 0 0 0 1.876-3.471 5.098 5.098 0 0 0-.701-3.09 5.024 5.024 0 0 0-1.963-1.863 5.061 5.061 0 0 0-3.155-.537m-3.968-2.6a8.958 8.958 0 0 0-4.218 7.91 8.977 8.977 0 0 0 2.777 6.191c.783-.398 1.605-.72 2.452-.953a6.666 6.666 0 0 1-1.921-1.984 6.662 6.662 0 0 1-1.022-3.698 6.69 6.69 0 0 1 1.494-4.077 6.684 6.684 0 0 1 3.397-2.217 6.605 6.605 0 0 1 3.395-.047 6.657 6.657 0 0 1 4.597 4.02c.58 1.443.63 3.088.132 4.56a6.663 6.663 0 0 1-2.727 3.52c.843.25 1.658.591 2.433 1.006a8.99 8.99 0 0 0 2.918-6.407 8.985 8.985 0 0 0-1.413-5.05 8.914 8.914 0 0 0-3.048-2.92 8.963 8.963 0 0 0-9.246.146m-2.29-3.178a12.86 12.86 0 0 0-5.798 9.71c-.15 1.754.072 3.538.633 5.207A12.997 12.997 0 0 0 5.095 23.3a13.36 13.36 0 0 1 1.778-1.451 10.608 10.608 0 0 1-2.296-11.045A10.633 10.633 0 0 1 6.996 7.03a10.632 10.632 0 0 1 3.795-2.447c1.8-.671 3.785-.847 5.673-.485a10.586 10.586 0 0 1 7.99 14.014 10.697 10.697 0 0 1-2.486 3.899c.623.446 1.21.942 1.746 1.49a12.92 12.92 0 0 0 3.446-6.651c.62-3.259-.098-6.744-1.95-9.496-1.858-2.816-4.875-4.833-8.186-5.479-3.263-.669-6.777.006-9.558 1.84M13.24.056a14.507 14.507 0 0 1 11.599 4.28 14.505 14.505 0 0 1-4.963 23.632 14.567 14.567 0 0 1-5.02 1.029 14.56 14.56 0 0 1-5.391-.898 14.519 14.519 0 0 1-6.788-5.207A14.51 14.51 0 0 1 .578 10.445 14.56 14.56 0 0 1 3.796 4.72 14.497 14.497 0 0 1 13.24.056"
     id="path2"
     style="fill:#68b426;fill-opacity:1" />
</svg>
