<svg xmlns="http://www.w3.org/2000/svg" width="67" height="90" viewBox="0 0 67 90">
    <defs>
        <linearGradient id="a" x1="0%" x2="498.805%" y1="-1561.018%" y2="259.579%">
            <stop offset="0%" stop-color="#FFF"/>
            <stop offset="100%"/>
        </linearGradient>
    </defs>
    <g fill="none" fill-rule="evenodd">
        <path fill="url(#a)" d="M18.834 74.082h3.178c-.02.19.06.416-.073.578-.87 1.18-1.732 2.367-2.603 3.546-.637.003-1.274.004-1.91 0 .466-1.376.93-2.753 1.408-4.124M34.182 74.535c.416-.074.864-.02 1.23.203.365.225.659.59.75 1.019.085.401.048.842-.162 1.2a1.66 1.66 0 0 1-1.286.823c-.46.048-.947-.079-1.3-.39a1.579 1.579 0 0 1-.571-1.392c.04-.725.644-1.339 1.339-1.463M8.523 74.676c.867.002 1.734-.001 2.6.002v14.797c-.866.003-1.733 0-2.6.001v-14.8M18.1 81.932c-.817.058-1.56.593-1.922 1.327-.32.642-.37 1.4-.213 2.094.184.823.815 1.534 1.619 1.778.469.136.975.153 1.45.035.675-.162 1.244-.659 1.56-1.276.281-.567.338-1.228.238-1.848a2.632 2.632 0 0 0-1.147-1.759c-.464-.306-1.038-.404-1.584-.35m-.086-2.429c1.124-.073 2.284.19 3.225.828.66.406 1.202.986 1.615 1.643.944 1.52.958 3.57.065 5.117-.314.515-.688 1-1.16 1.378-.222.21-.491.359-.745.527-1.029.604-2.265.803-3.439.64a5.063 5.063 0 0 1-3.61-2.34c-.977-1.534-1.021-3.625-.123-5.206.41-.696.961-1.314 1.643-1.743.744-.514 1.634-.788 2.529-.844M41.515 82.1c-.492.364-.793.929-.943 1.515h4.398c-.02-.485-.173-.985-.523-1.333-.749-.785-2.086-.842-2.932-.181m-.183-2.351a5.233 5.233 0 0 1 3.318.027 4.317 4.317 0 0 1 2.604 2.64c.35.981.342 2.07.09 3.075-2.258-.01-4.516.005-6.774-.007.106.332.226.666.447.94.206.275.478.499.781.658.562.3 1.215.369 1.841.324.86-.067 1.668-.444 2.346-.969.365.604.73 1.208 1.092 1.814-1.036.89-2.366 1.448-3.734 1.452-.922.028-1.857-.154-2.682-.578-.75-.392-1.424-.953-1.887-1.671-.505-.718-.782-1.587-.842-2.462-.104-1.32.293-2.685 1.146-3.697a4.937 4.937 0 0 1 2.254-1.546M53.719 79.634a4.534 4.534 0 0 1 2.102-.033 3.17 3.17 0 0 1 1.7 1.002c.667.743.942 1.764.947 2.75.007 1.744 0 3.487.003 5.23-.005.298.014.595-.01.892-.871.003-1.74.001-2.611 0V84.16c.003-.415.008-.848-.163-1.235-.161-.39-.47-.711-.851-.885-.385-.17-.823-.192-1.232-.11-.51.106-.965.46-1.19.937-.164.32-.197.684-.197 1.038v5.57c-.879.003-1.759.001-2.638 0v-9.77c.808.004 1.617.005 2.426 0-.006.294-.005.589 0 .884a3.882 3.882 0 0 1 1.714-.955M29.275 79.901a3.388 3.388 0 0 1 2.282-.194c.005.783.008 1.567-.002 2.35-.556.004-1.126-.036-1.665.13-.602.169-1.15.59-1.4 1.177-.269.596-.23 1.264-.23 1.902v4.209c-.88.003-1.759.001-2.639 0 0-3.256.002-6.513 0-9.77.81.004 1.618.005 2.428 0a34.07 34.07 0 0 0 0 1.158c.337-.4.749-.744 1.226-.962M33.2 79.705c.88.004 1.76.005 2.641 0-.007 3.256-.001 6.513-.002 9.77-.88.003-1.759.001-2.639 0v-9.77"/>
        <path fill="#68B425" d="M30.632 58.225c-3.361.425-6.586 1.805-9.251 3.914a29.782 29.782 0 0 0 5.978 1.948c.16.057.307-.059.456-.104 3.412-1.416 7.38-1.368 10.76.123.13.042.257.148.4.11a29.502 29.502 0 0 0 6.05-1.82c-3.957-3.312-9.298-4.86-14.393-4.17M35.372 50v4.77c4.813.492 9.425 2.642 12.946 5.986a30.13 30.13 0 0 0 4.062-2.821c-4.062-4.177-9.48-6.987-15.215-7.86-.593-.086-1.196-.223-1.792-.075M14.13 57.526a29.969 29.969 0 0 0 4.002 2.908c3.693-3.372 8.525-5.431 13.494-5.742v-4.689c-.328-.038-.651-.12-.981-.134-6.162.526-12.093 3.296-16.515 7.657M31.706 22.85a11.797 11.797 0 0 0-5.494 2.427c-2.105 1.673-3.582 4.111-4.15 6.751-.573 2.606-.217 5.4.969 7.786a11.688 11.688 0 0 0 5.174 5.26c1.946 1 4.172 1.443 6.348 1.237 2.274-.21 4.48-1.11 6.263-2.55 2.45-1.961 4.036-4.962 4.333-8.1.248-2.498-.35-5.06-1.619-7.211a11.657 11.657 0 0 0-4.534-4.349c-2.213-1.194-4.81-1.65-7.29-1.251m-9.167-6.068a20.815 20.815 0 0 0-7.127 7.553 21.108 21.108 0 0 0-.013 20.373 21.187 21.187 0 0 0 3.812 4.98 29.955 29.955 0 0 1 5.664-2.224 15.486 15.486 0 0 1-4.438-4.63c-1.591-2.564-2.448-5.6-2.362-8.63.048-3.443 1.309-6.843 3.452-9.513 1.996-2.497 4.79-4.318 7.849-5.175a15.111 15.111 0 0 1 7.843-.108c2.772.702 5.355 2.18 7.343 4.257a15.553 15.553 0 0 1 3.277 5.124c1.339 3.365 1.454 7.205.305 10.642-1.092 3.358-3.345 6.318-6.3 8.214a29.782 29.782 0 0 1 5.621 2.346 21.156 21.156 0 0 0 3.996-5.04c1.72-3.003 2.655-6.448 2.746-9.911.098-4.14-1.043-8.304-3.266-11.786a20.686 20.686 0 0 0-7.04-6.811 20.544 20.544 0 0 0-11.315-2.812 20.542 20.542 0 0 0-10.047 3.15m-5.29-7.415c-4.352 2.842-7.918 6.88-10.268 11.542-1.75 3.45-2.803 7.254-3.129 11.115a30.447 30.447 0 0 0 1.465 12.152c1.349 4.04 3.582 7.77 6.453 10.892a30.927 30.927 0 0 1 4.11-3.385c-3.28-3.454-5.564-7.87-6.417-12.584-.833-4.39-.427-9 1.11-13.188a24.844 24.844 0 0 1 5.589-8.811 24.537 24.537 0 0 1 8.768-5.71c4.16-1.566 8.745-1.977 13.107-1.13 6.031 1.119 11.579 4.655 15.186 9.662a24.795 24.795 0 0 1 4.431 10.738c.66 4.11.24 8.384-1.158 12.3a24.994 24.994 0 0 1-5.744 9.099 30.758 30.758 0 0 1 4.035 3.476c4.082-4.237 6.913-9.698 7.96-15.52 1.433-7.603-.226-15.738-4.504-22.158C53.95 11.285 46.98 6.58 39.33 5.072c-7.539-1.562-15.658.012-22.081 4.295M30.589.827A33.23 33.23 0 0 1 48.71 4.39a33.805 33.805 0 0 1 8.675 6.423c4.8 4.928 8.064 11.367 9.157 18.196 1.372 8.171-.393 16.829-4.849 23.789-3.723 5.913-9.335 10.566-15.774 13.162a33.363 33.363 0 0 1-11.597 2.402 33.334 33.334 0 0 1-12.456-2.096c-6.272-2.344-11.827-6.625-15.682-12.15a33.946 33.946 0 0 1-5.847-14.81 34.19 34.19 0 0 1 .998-14.232c1.418-4.953 4-9.552 7.435-13.364a33.65 33.65 0 0 1 10.557-7.832A33.23 33.23 0 0 1 30.59.827"/>
    </g>
</svg>
