<svg xmlns="http://www.w3.org/2000/svg" xmlns:xlink="http://www.w3.org/1999/xlink" width="105" height="38" viewBox="0 0 105 38">
    <defs>
        <path id="a" d="M10.89.26v12.135H.05V.259H10.89z"/>
    </defs>
    <g fill="none" fill-rule="evenodd">
        <path fill="#2E2E2E" d="M56.3 9.35h3.873c-.024.233.072.506-.089.703-1.06 1.435-2.111 2.877-3.173 4.31-.776.004-1.553.005-2.328 0 .568-1.672 1.135-3.345 1.716-5.013M75.006 9.901c.507-.09 1.053-.024 1.498.246.447.275.804.718.915 1.24.104.487.058 1.023-.197 1.458-.323.559-.923.952-1.567 1-.562.06-1.154-.095-1.585-.473a1.92 1.92 0 0 1-.697-1.693c.05-.881.786-1.626 1.633-1.778M43.733 10.073c1.056.002 2.113-.002 3.169.003V28.06c-1.056.005-2.113 0-3.17.002v-17.99M55.406 18.893c-.997.071-1.901.721-2.344 1.614-.39.779-.451 1.7-.26 2.545.225 1 .995 1.864 1.974 2.16a3.44 3.44 0 0 0 1.767.043c.823-.197 1.517-.8 1.901-1.551.344-.69.412-1.492.291-2.246a3.198 3.198 0 0 0-1.398-2.138c-.566-.372-1.266-.492-1.931-.427m-.104-2.952c1.369-.088 2.784.232 3.93 1.006.804.494 1.465 1.2 1.969 1.998 1.15 1.849 1.166 4.34.078 6.22-.381.627-.838 1.216-1.412 1.675-.272.256-.6.437-.909.64-1.254.735-2.76.977-4.191.78-1.786-.236-3.452-1.3-4.4-2.845-1.192-1.866-1.246-4.406-.15-6.33.499-.844 1.17-1.596 2.003-2.118.905-.624 1.991-.957 3.082-1.026M83.944 19.098c-.6.441-.967 1.127-1.15 1.84h5.36c-.024-.59-.21-1.196-.637-1.62-.913-.955-2.543-1.023-3.573-.22m-.224-2.858a6.393 6.393 0 0 1 4.045.034 5.255 5.255 0 0 1 3.173 3.208c.426 1.194.417 2.518.11 3.738-2.752-.011-5.504.006-8.256-.009.129.404.275.811.545 1.142.25.336.583.607.952.8.684.365 1.481.45 2.244.395 1.047-.082 2.031-.54 2.858-1.178.445.735.89 1.469 1.332 2.205-1.263 1.082-2.885 1.76-4.552 1.765-1.124.034-2.263-.186-3.268-.703-.913-.476-1.736-1.158-2.3-2.03-.616-.873-.953-1.93-1.027-2.994-.126-1.604.357-3.263 1.397-4.494a6.01 6.01 0 0 1 2.747-1.879"/>
        <g transform="translate(93.722 15.669)">
            <mask id="b" fill="#fff">
                <use xlink:href="#a"/>
            </mask>
            <path fill="#2E2E2E" d="M5.096.43A5.54 5.54 0 0 1 7.658.39 3.87 3.87 0 0 1 9.73 1.608c.813.903 1.147 2.145 1.153 3.344.01 2.12.002 4.238.005 6.357-.007.361.017.723-.013 1.084-1.061.003-2.122.002-3.182 0v-6.46c.003-.506.01-1.032-.199-1.503a2.059 2.059 0 0 0-1.037-1.075c-.469-.207-1.003-.233-1.501-.133A2.095 2.095 0 0 0 3.505 4.36c-.2.387-.24.831-.24 1.262v6.77c-1.071.003-2.144.002-3.216 0 0-3.958.002-7.917 0-11.876.986.005 1.972.006 2.958 0a29.95 29.95 0 0 0-.001 1.073A4.744 4.744 0 0 1 5.096.43" mask="url(#b)"/>
        </g>
        <path fill="#2E2E2E" d="M69.025 16.424a4.141 4.141 0 0 1 2.781-.236c.006.952.01 1.904-.002 2.857-.677.005-1.372-.044-2.03.158-.733.204-1.4.716-1.705 1.431-.328.724-.281 1.536-.281 2.311v5.117c-1.072.003-2.144.001-3.216 0 0-3.958.002-7.917 0-11.876.986.005 1.972.006 2.958 0-.007.469-.008.938 0 1.408.412-.487.913-.905 1.495-1.17M73.809 16.186c1.073.005 2.146.006 3.22 0-.009 3.958-.002 7.917-.004 11.876-1.071.003-2.144.001-3.216 0 0-3.958.002-7.917 0-11.876M17.247 32.302a10.591 10.591 0 0 0-5.21 2.198 16.8 16.8 0 0 0 3.367 1.094c.09.031.173-.033.256-.059a7.803 7.803 0 0 1 6.059.07c.073.023.144.082.225.061a16.62 16.62 0 0 0 3.406-1.021c-2.228-1.86-5.235-2.73-8.103-2.343m2.669-4.617v2.677c2.709.277 5.306 1.484 7.288 3.362.803-.465 1.57-.994 2.287-1.584-2.287-2.345-5.337-3.924-8.566-4.414-.334-.048-.674-.125-1.01-.041M7.956 31.91c.703.607 1.46 1.15 2.253 1.633 2.08-1.894 4.8-3.05 7.598-3.225v-2.632c-.185-.022-.367-.068-.552-.076-3.47.295-6.81 1.85-9.299 4.3m9.896-19.471a6.654 6.654 0 0 0-3.093 1.363 6.657 6.657 0 0 0-2.336 3.791 6.664 6.664 0 0 0 .545 4.371 6.57 6.57 0 0 0 2.913 2.954c1.096.561 2.349.811 3.574.695a6.628 6.628 0 0 0 3.526-1.433c1.38-1.1 2.273-2.785 2.44-4.548a6.72 6.72 0 0 0-.912-4.049 6.558 6.558 0 0 0-2.552-2.441 6.542 6.542 0 0 0-4.105-.703M12.69 9.032a11.7 11.7 0 0 0-4.013 4.24 11.831 11.831 0 0 0-.007 11.44 11.917 11.917 0 0 0 2.146 2.797 16.892 16.892 0 0 1 3.19-1.248c-1-.68-1.86-1.569-2.5-2.6a8.778 8.778 0 0 1-1.33-4.846c.028-1.933.738-3.842 1.944-5.342a8.686 8.686 0 0 1 4.42-2.906 8.522 8.522 0 0 1 4.415-.06 8.71 8.71 0 0 1 4.134 2.39 8.725 8.725 0 0 1 1.845 2.877 8.766 8.766 0 0 1 .172 5.976 8.724 8.724 0 0 1-3.547 4.612c1.096.327 2.157.773 3.165 1.317a11.877 11.877 0 0 0 2.25-2.83 11.844 11.844 0 0 0 1.546-5.565 11.837 11.837 0 0 0-1.84-6.618 11.634 11.634 0 0 0-3.963-3.825 11.587 11.587 0 0 0-12.027.19M9.712 4.868C7.262 6.464 5.254 8.73 3.93 11.35A16.952 16.952 0 0 0 2.17 17.59c-.196 2.3.094 4.637.824 6.823a17.057 17.057 0 0 0 3.634 6.117c.713-.7 1.49-1.334 2.313-1.9-1.846-1.94-3.132-4.42-3.612-7.067a13.997 13.997 0 0 1 .625-7.406A13.949 13.949 0 0 1 9.099 9.21a13.819 13.819 0 0 1 4.937-3.207 13.713 13.713 0 0 1 7.38-.634c3.395.629 6.518 2.614 8.55 5.426a13.903 13.903 0 0 1 2.494 6.029 13.997 13.997 0 0 1-.652 6.907 14.028 14.028 0 0 1-3.234 5.109c.81.584 1.574 1.234 2.272 1.951 2.298-2.378 3.892-5.445 4.482-8.714.807-4.27-.128-8.837-2.536-12.442-2.417-3.69-6.342-6.333-10.648-7.18-4.244-.876-8.816.008-12.432 2.412m7.51-4.795a18.756 18.756 0 0 1 10.203 2.001 19.02 19.02 0 0 1 4.884 3.607 19.055 19.055 0 0 1 5.155 10.216c.773 4.589-.22 9.45-2.73 13.358a18.924 18.924 0 0 1-8.88 7.391 18.818 18.818 0 0 1-6.53 1.348 18.82 18.82 0 0 1-7.013-1.176 18.904 18.904 0 0 1-8.83-6.823A19.032 19.032 0 0 1 .19 21.68a19.148 19.148 0 0 1 .562-7.992 19.118 19.118 0 0 1 4.186-7.504 18.943 18.943 0 0 1 5.944-4.398 18.757 18.757 0 0 1 6.34-1.713"/>
    </g>
</svg>
