<svg xmlns="http://www.w3.org/2000/svg" xmlns:xlink="http://www.w3.org/1999/xlink" width="15" height="15" viewBox="0 0 15 15">
    <defs>
        <path id="a" d="M0 13.843V.007h12.905v13.836z"/>
    </defs>
    <g fill="none" fill-rule="evenodd" opacity=".368">
        <path fill="#010101" d="M14.222.711L1.322 5.5l6.22 1.891 1.893 6.222z"/>
        <g transform="rotate(45 10.289 10.07)">
            <mask id="b" fill="#fff">
                <use xlink:href="#a"/>
            </mask>
            <path fill="#010101" d="M6.453 9.452c.123 0 .246.03.356.089l3.885 2.073-4.241-9.247-4.242 9.247L6.096 9.54a.758.758 0 0 1 .357-.089m5.736 4.39a.758.758 0 0 1-.356-.088l-5.38-2.871-5.38 2.871a.76.76 0 0 1-.832-.079.632.632 0 0 1-.184-.757L5.794.41a.719.719 0 0 1 .659-.404c.286 0 .546.159.658.404l5.737 12.507a.632.632 0 0 1-.183.757.748.748 0 0 1-.476.168" mask="url(#b)"/>
        </g>
    </g>
</svg>
