<svg xmlns="http://www.w3.org/2000/svg" xmlns:xlink="http://www.w3.org/1999/xlink" width="90" height="90" viewBox="0 0 90 90">
    <defs>
        <path id="a" d="M0 64.657V.028h55.05v64.63H0z"/>
    </defs>
    <g fill="none" fill-rule="evenodd" transform="translate(.474 .856)">
        <g transform="translate(17 10.053)">
            <mask id="b" fill="#fff">
                <use xlink:href="#a"/>
            </mask>
            <path fill="#FFF" d="M18.094 47.944c.066.127.14.25.218.372.32-.065.72-.064.83-.437l-.268-.263c-.271.08-.54.174-.78.328m-7.153-.433c.249-.17.545-.274.764-.485.02-.222-.144-.41-.324-.52-.313.01-.634.146-.906-.087-.117.428.107.855.466 1.092m7.31-.994c-.169.001-.339 0-.508-.004-.005.404.114.84.576.924.194-.345.141-.746.133-1.123-.067.066-.133.134-.2.203m7.162-.862c0 .234-.004.47-.005.705.062-.126.125-.25.188-.373-.062-.11-.123-.221-.183-.332m-6.54-.652c.135.244.292.476.444.71l.259-.02c.077-.093.153-.185.227-.278-.304-.149-.596-.333-.93-.412m-4.119-.084c.206.315.341.751.031 1.052-.113-.033-.225-.063-.336-.099l-.07.285.13.184c.328-.001.659.018.988-.014.413-.109.488-.602.802-.843.058-.285.135-.566.218-.845-.436-.074-.668-.433-.893-.768-.544-.113-1.223.524-.87 1.048m5.197-3.623c.388.517-.286 1-.122 1.52.405.26.9.005 1.262-.22.362.158.7.364 1.049.55.133-.453-.454-.549-.53-.931-.072-.344-.124-.694-.25-1.025-.345.19-.338.628-.512.938-.185-.38-.463-.728-.897-.832m-1.84-.451c.266.504 1.005.255 1.468.436.02-.215.085-.42.187-.61.225-.39-.239-.718-.48-.972-.392.37-1.13.518-1.174 1.146m-3.951-2.375c.214.568.093 1.146-.056 1.705.326.635 1.002 1.165 1.725 1.293.08-.142.164-.28.25-.417a51.76 51.76 0 0 0-.35-.009c-.323-.244-.739-.348-1.011-.661.205-.588.038-1.186-.07-1.77-.107-.002-.212-.002-.318 0l-.17-.141m20.088-.819c.034.613-.283 1.186-.2 1.806.065.679-.472 1.238-1.116 1.373-.019.377.183.697.37 1.008.299.003.599.033.896-.007.206-.217.416-.453.755-.41.045-.563.282-1.124.146-1.688.205-.01.41-.016.617-.019-.145-.332-.182-.696-.31-1.033l-.317-.03c-.09-.293-.019-.593.032-.885-.3.16-.593.002-.873-.115m-21.613-.089c.462.251.959-.009 1.268-.367-.464-.068-.84.256-1.268.367m6.344-1.832c-.212.314-.01.635.216.872.127-.284.182-.6.008-.878l-.224.006m-2.03.212c.17.447.303.921.281 1.402-.122.29-.438.533-.273.88.198-.107.387-.23.585-.338.1.19.213.376.35.543.104-.362.444-.65.83-.457.327.094.27.446.264.706l.276.027c.378-.673-.34-1.297-1.006-1.206.25-.321.34-.689.129-1.058.085-.258.097-.529.089-.796-.23.045-.462.085-.696.107-.047-.16-.091-.322-.138-.482a3.193 3.193 0 0 1-.69.672m-5.288-.532c.21.333.44.655.605 1.014.194-.162.377-.338.516-.55-.243-.368-.663-.687-1.121-.464m26.348.165c-.214-.099-.41-.23-.6-.368a4.835 4.835 0 0 0-.074.523c.366.125.756.254 1.036-.104.17.3.289.75-.01 1.01-.283.223-.343.585-.504.885l-.32.003a9.186 9.186 0 0 1-.2-.496c-.201.024-.396.074-.59.126.015.493.224.974.158 1.467-.275.407-.896.495-.994 1.034.387.03.754.19 1.146.17.318-.39.923-.246 1.238-.635.276-.3.652-.514.836-.89.22-.31.073-.7.098-1.048.052-.438-.329-.782-.27-1.22.028-.418.066-.95-.419-1.125-.361-.024-.459.4-.531.668m-18.254.345c.215.01.432.014.649.015.118-.26.265-.534.597-.526-.17-.266-.358-.527-.637-.69-.46.233-.58.73-.61 1.201m23.176-.017c.469.328 1.396.377 1.448-.355l.52.047-.006-.203c-.28-.012-.583.062-.844-.068-.033-.18-.005-.362.002-.542l-.324-.38c-.44.393-.573.982-.796 1.501M8.48 32.678c-.334.665.184 1.516.93 1.56-.349-.494-.25-1.132-.559-1.633-.13-.004-.308-.096-.37.073m-2.295-.516c.185.212.298.469.39.731.356.084.72.037 1.074-.032-.203-.34-.533-.647-.538-1.067-.002-.42.08-.838.018-1.257-.55.367-.934.958-.944 1.625m35.36-3.824c.013.339.005.695-.22.973-.311.058-.628.063-.943.074.188.509.777.47 1.224.463.424.11.62.589.601.992.224.16.507.168.77.222.073.194.062.482.294.57.35-.06.206-.51.274-.762.106-.396-.262-.721-.17-1.115.075-.373.205-.738.207-1.123-.454.019-1.112.267-1.308-.316a3.964 3.964 0 0 0-.73.022m-3.108-.222c.246.262.527.532.496.925.294.142.625.13.943.12-.201-.563-.663-.985-1.159-1.302-.094.085-.188.17-.28.257m-2.403-1.704c.123.326.398.749.046 1.034-.397.316.15.672.362.914.31-.637.278-1.43.023-2.083-.143.046-.287.092-.431.135m-5.898-1.881c.13.504.519.965.394 1.51-.055.34-.247.82.209.971.401-.06.453-.529.42-.852a1.745 1.745 0 0 0-1.023-1.63m11.918.807c.062.294.182.611-.046.869-.133.024-.265.05-.396.079.153.395.51.637.814.908.577-.274 1.158-.605 1.415-1.22-.489-.545-1.086-1.041-1.314-1.76-.278.307-.472.708-.473 1.124m-7.934-2.275l.016.285c.281-.022.471-.231.67-.404a4.303 4.303 0 0 1-.239-.622 1.947 1.947 0 0 1-.447.741m3.222-.484c.219.08.444.145.671.2.056-.235.107-.472.184-.702-.341.05-.686.182-.855.502M33.156 21c-.178.486-.234 1.003-.382 1.496.195.104.397.194.6.282.193-.12.382-.248.566-.38.01-.207.019-.413.025-.62-.244-.29-.305-.881-.809-.778m3.39-1.643c-.13.387-.563.133-.825.043-.187.558.154.977.619 1.237.413-.45.984-.937.92-1.604-.29-.068-.63 0-.714.324m.837-1.066c.143.164.285.46.546.307.403-.112.136-.55-.04-.746l.096-.192a26.806 26.806 0 0 0-.25-.011 3.899 3.899 0 0 1-.352.642m-6.156-.067c-.252-.242-.439-.546-.723-.754.143.634.055 1.365.52 1.885.16.202.481.552.192.77-.357.095-.728.154-1.043.362-.28-.093-.62-.283-.901-.094-.124.457.345.987-.116 1.372-.092 1.078 1.463.824 1.566 1.81.128-.162.252-.325.364-.498a17.25 17.25 0 0 0-.203-.363c.036-.101.071-.202.104-.304a43.31 43.31 0 0 1-.343-.327l.198-.27c.424.056.777.33 1.2.396.009-.299 0-.64-.258-.842-.277-.239-.247-.624-.249-.952.235-.148.649-.249.536-.614.003-.329-.317-.336-.568-.311-.317-.416.116-.924.421-1.216.26-.257.483.272.753.118.174-.178.339-.37.569-.482.023-.167.042-.334.06-.502a9.776 9.776 0 0 0-.708-.04c-.076-.169-.147-.34-.224-.51-.341.486-.69.977-1.147 1.366m2.736-4.078c-.054.484-.505.956-.19 1.434.164.308.496-.066.698-.16.663-.336.116-1.291-.508-1.274m-8.116.1c-.148-.06-.284-.141-.42-.22-.618.521-.22 1.362-.042 1.994.1-.177.19-.36.296-.533.325.344.84.607.744 1.162.217-.025.436-.062.638-.155.02-.574.639-.768 1.035-1.054-.091-.4-.144-.806-.212-1.209-.327.119-.424.429-.345.746-.272.324-.397.727-.567 1.105-.222-.087-.451-.191-.597-.385-.067-.813-.226-1.625-.2-2.452-.395.187-.247.658-.33 1m2.49-3.858a9.663 9.663 0 0 0-.459-.037c-.084.212-.17.428-.32.605-.191-.194-.25-.46-.295-.719-.269.357-.332.82-.285 1.253.061.315-.187.58-.183.89.007.273.104.534.195.789.35-.346.063-.893.391-1.246.194-.242.367-.5.577-.73.132.156.248.323.371.487.16-.451.308-.936.18-1.413l-.172.121m6.03-.086c-.052-.238-.134-.475-.337-.628-.509.502-.342 1.278-.069 1.857.163-.174.36-.318.61-.317.112.233.211.47.308.709.139-.325.268-.656.32-1.007.028-.32.428-.433.457-.751.042-.225.094-.447.175-.66-.142-.113-.274-.313-.483-.244-.463.241-.364.984-.981 1.041M30.78.028c.467.268.788.749.894 1.27.24.235.56.056.84.024-.01.311-.295.473-.465.7.188.193.5.344.492.653.016.277-.307.453-.261.733.014.254.191.45.375.61.154-.31.43-.516.727-.684.336-.306.42-.787.627-1.177l.225-.09c.487.703-.202 1.445-.71 1.902-.118.462-.287.901-.654 1.231-.162.733-.373 1.51-.14 2.258.11.096.266.085.4.119.15-.339-.057-.663-.129-.99.168-.488.716-.76.8-1.293.048-.302.317-.468.613-.45.014.12.028.241.04.362.08.066.16.132.243.197.471-.315.583-.915.87-1.37.158-.478.642-.821 1.156-.755.098.21.124.447-.03.638-.278.349.102.901-.293 1.183-.325.232-.227.71-.072 1.015.45.287.58-.643 1.05-.468.224.134.31.413.538.544.522-.047.974-.63 1.516-.338-.053.319-.27.57-.413.851-.309.494-.11 1.131-.435 1.62-.05-.056-.145-.169-.192-.225-.403.355-.587.875-.633 1.395.002.157-.11.259-.242.322-.275-.368-.54-.802-1.016-.935-.399.37-.18.859.043 1.253.32.623-.152 1.232-.291 1.83-.101.52.053 1.093.418 1.486.366-.16.476-.544.417-.912-.093-.477.55-.595.58-1.047.024-.347.51-.328.54.006.027.397.305.671.6.904l.257-.022c.158-.32.222-.711.542-.926.383-.351.95-.162 1.387-.394.1-.345.138-.703.008-1.046.207-.247.54-.31.83-.41.072-.15.15-.298.228-.446.193-.016.388-.035.582-.06.107-.281.209-.568.23-.872-.263-.184-.537-.072-.816-.027-.094-.153-.061-.33-.021-.492.191-.076.384-.148.582-.203.391-.066.502-.528.877-.636.002.234-.037.467-.034.7.273-.072.563-.291.848-.145.306.136.417.476.493.774-.219.007-.435-.028-.65-.056-.072.269-.101.584.215.698.432.173.483.683.283 1.05-.21-.081-.432-.157-.66-.102.011.375.372.723.145 1.096-.172-.107-.334-.227-.504-.335-.035.54.633.703.82 1.152.213.318.032.688-.167.96l-.18.033c-.175-.246-.439-.411-.748-.29 0 .172-.053.39.143.477.409.236.568.694.66 1.128-.111-.022-.222-.046-.331-.07-.498.362-.178 1.035-.478 1.503l-.289-.213c-.757.257-.606 1.138-.764 1.752-.171-.137-.342-.275-.526-.394-.16.328-.337.66-.646.874-.24-.327-.633-.736-1.078-.524-.202.135-.436.068-.652.014-.01.144-.02.289-.032.434.164-.006.328-.003.492.009.024.19.066.38.17.547.344-.024.72-.15 1.033.061-.29.36-.645.697-.744 1.165-.06.3-.324.467-.57.613-.063.282-.082.57-.074.859-.185.154-.341.334-.292.594.38-.447.96-.564 1.442-.858 0-.33.196-.624.55-.637.64-.162 1.348-.265 1.87-.692.294-.285.058-.666-.269-.785.19-.286.562-.305.867-.371.01-.552.624-.645 1.018-.838.435-.36.627-.934 1.075-1.29.252.45.246.996.198 1.494-.136.142-.372.208-.387.432-.058.453-.447.737-.647 1.122l.097.241c.316.114.669.121.964-.055.263-.18.492.133.622.327-.236.252-.561.437-.69.773l.17.217c-.102.11-.204.223-.303.335.146.185.311.355.47.53-.293.195-.607.368-.95.457-.351.1-.575-.41-.928-.25-.043.378-.236.723-.28 1.094.192.324.496.59.545.986.578-.266.414-.9.145-1.326.444-.084.783.227 1.189.307.31-.213.206-.705.541-.892.482-.012.385.638.754.792.242.123.443.306.623.507.124-.28.256-.58.583-.665.45-.15.399-.66.329-1.03.498.07.746.544.945.945.343.146.792.126 1.01.478-.194.245-.523.446-.489.803-.052.273.135.78-.3.764.024-.51-.157-.983-.385-1.43-.2.367-.32.804-.189 1.214.07.364.43.559.583.879.142.263.099.577.212.85.146.435.465.774.716 1.149-.217.169-.532.33-.532.643.117.327.459.499.74.67l-.01.265c-.314.075-.617-.016-.92-.089-.07.446-.018.9.058 1.342-.751.121-.732-.95-.775-1.46-.213.1-.373.265-.36.512-.004.452-.479.851-.245 1.3.162.311.11.675.003.995l-.125-.32c-.672-.23-.784-.963-.767-1.576-.36.1-.615.509-.489.867.09.602.67.923 1.047 1.342.328.356.337.878.25 1.326-.08-.317-.349-.492-.616-.646-.123.492-.01 1.002-.109 1.495-.512-.452-.558-1.153-.83-1.733-.095.37-.32.772-.146 1.152.177.468.288.974.242 1.473-.045.246-.457.504-.622.229-.157-.286-.495-.404-.645-.692-.461-.76-.072-1.71-.49-2.482-.01.566-.15 1.123-.36 1.649-.123.296.12.575.178.86.212.574-.016 1.176.038 1.764.224-.176.492-.239.753-.094-.11.289-.192.583-.152.894-.16.215-.55.23-.597.537-.173.67.13 1.523-.526 1.996a13.84 13.84 0 0 0-.27-.405c-.36.62.127 1.579-.58 2.007-.29-.124-.597-.059-.88.042-.098-.34-.159-.688-.254-1.028-.449-.104-.811.25-1.09.545.01.366.5.343.691.571.106.336.047.7-.02 1.04-.31-.133-.612-.29-.94-.377-.056.23.06.436.122.65.001.26-.14.51-.059.772-.575.05-1.146.149-1.722.166-.199.572-.39 1.147-.589 1.72-.39.07-.652-.237-.923-.456-.106.599-.675.892-.925 1.404.324.064.735.006.847-.353.07-.279.399-.367.626-.21.3.281.494.659.509 1.072.072.003.145.004.217.008.083-.258.143-.521.207-.782.542.053.81.648.888 1.118.687.427 1.32-.157 1.796-.604.229-.235.04-.58-.08-.823-.162.064-.308.198-.492.185-.07-.725.692-1.046 1.017-1.587-.16-.446-.99-.421-.817-.972.288-.269.75-.44.78-.89.086-.47.443-1.153 1.031-.925.303.083.105.426.1.634.392-.003.784-.38.674-.782-.052-.328-.01-.681.23-.932.627.071.764-.632 1.237-.858.21.313.35.879.822.832.322-.175.368-.561.471-.872.204-.454.794-.43 1.107-.77.335.276.057.597-.11.872.255.324.813.105 1.022.473.119.27-.166.473-.309.664.182.292.112.698.335.952.42.356.726-.489 1.167-.2.574.423 1.405.53 1.793 1.172.115.575.021 1.187-.144 1.747-.148.496-.78.638-1.228.52-.324-.236-.604-.754-1.08-.518-.119.717.594 1.232.756 1.888-.136.043-.272.088-.407.133-.248.505.515.696.498 1.171-.016.42-.216.808-.38 1.188-.3.368-.822.047-1.201-.002l-.189.093c-.017.454-.331.784-.664 1.057.26.294.629.024.95.068.438-.02.884.418 1.294.104.198-.11.401-.54.639-.268.176.335-.196.668-.17 1.022.43.05.84.195 1.231.377.326.168.743.03 1.034.283.521.411.937.944 1.286 1.502.152.213.21.565-.085.685-.238-.15-.58-.274-.77.014-.228.547-.148 1.198-.499 1.705a.88.88 0 0 1-.373-.914c-.14-.202-.281-.456-.56-.469-.138.614.012 1.267-.206 1.865-.266-.146-.491-.355-.766-.483-.513-.203-.431-1.072-1.04-1.116-.255.207-.307.562-.439.848l-.2-.029c-.132-.435.012-.948-.31-1.315a3.493 3.493 0 0 0-1.002-.734c-.147.194-.305.382-.51.518-.32.19-.312.607-.313.932.038.628-.075 1.254-.246 1.855-.029.13-.2.209-.3.105-.348-.247-.401-.701-.59-1.054-.208-.475.07-.946.184-1.402.034-.29-.279-.447-.53-.466-.064.345-.253.648-.348.983.054.431.593.761.479 1.225-.203.062-.417.035-.624.022-.199-.337-.283-.72-.316-1.105-.022-.522-.404-.921-.722-1.3-.226.257-.519.525-.525.89.014.28.068.556.067.837-.369-.407-.84-.81-.841-1.406-.1-.435.128-.819.33-1.183-.342-.442-.822-1.078-1.457-.707-.428-.49-.737-1.076-1.367-1.347-.478.198-.94-.177-1.429-.047.467.394 1.094.786 1.052 1.483.204-.038.405-.115.616-.1.308.162.006.498-.059.72.387.255.567-.293.942-.293.135.286-.11.544-.09.826.138.21.381.312.573.467-.291.329-.394.812-.164 1.196.23.192.525.357.578.679-.145.064-.29.129-.432.198.35.382.997.068 1.45.306.09.088.18.174.273.26.091.417-.189.635-.581.451-.332.45-.21 1.116-.706 1.473-.08-.266-.145-.538-.27-.787-.118.129-.17.36-.367.394-.256-.084-.504-.337-.79-.223-.111.364.113.668.344.922.121.354.195.905-.183 1.132-.417.165-.659-.408-1.063-.397-.289.006-.58.031-.854.13-.004.472.494.939.167 1.383-.197.289-.386.584-.503.915-.576-.356-.426-1.16-.919-1.558-.533-.128-1.224-.217-1.363-.86.393-.276 1.167-.452.946-1.088-.694-.154-1.416-.081-2.106-.246-.093-.213-.056-.445-.08-.667-.113-.282-.46-.206-.7-.224-.2.521-.691 1.308-1.349.98.263-.361.296-.79.2-1.216-1.05.927-1.92 2.035-2.979 2.952-.946.966-2.125 1.706-2.906 2.828-.042.688.092 1.376.056 2.067a7.1 7.1 0 0 0-.909.683c-.255-.246-.238-.589-.145-.9-.114-.834.066-1.675.036-2.52a2.707 2.707 0 0 1-.351.555 2.7 2.7 0 0 1-.52-.126c.085-.462.734-.662.537-1.198a33.723 33.723 0 0 0-.357-.155c.144-.148.29-.292.435-.439l.263.027c-.144-.572-.139-1.17-.2-1.754l.27.03c.102-.196.202-.395.304-.591.172 1.023.218 2.065.359 3.093.319-.06.606-.218.843-.435 1.129-1.004 2.223-2.046 3.373-3.027.604-.516 1.251-.989 1.808-1.555.092-.22-.088-.47-.196-.664-.27-.088-.559-.112-.814-.241.189-.29.212-.634.207-.97.238-.255.587-.409.746-.733l-.169-.196c-.36.158-.7.407-1.118.357-.12-.299.049-.58.166-.849a4.598 4.598 0 0 1-.276-.67c-.982-.037-.238 1.401-1.113 1.55-.357-.39-.171-.933-.241-1.402-.25.09-.425.29-.6.478a4.649 4.649 0 0 1-.4-.34l-.489-.001c-.157.398-.576.588-.77.961.24.017.483.008.724.041.163.125.177.38.02.515-.25.098-.528.102-.772.218-.273.166-.275.534-.496.744-.2.15-.451.205-.694.248-.114.607-.14 1.227-.253 1.836-.195.1-.387.207-.576.318.002-.181.004-.363.004-.543-.03.098-.057.197-.084.296l-.327.022c-.058.379.032.742.172 1.092.099.314-.286.282-.486.28l-.205-.298c.095-.108.192-.215.291-.318a25.253 25.253 0 0 0-.132-.259 20.991 20.991 0 0 0-.307-.037c-.084-.394.207-.672.532-.83-.016-.256-.217-.408-.427-.517-.005-.11-.008-.22-.01-.33l.187-.198c.156-.001.313 0 .47.001-.05.421-.01.85.26 1.195-.269-2.867-.713-5.721-.846-8.597l-.16-.012-.184.329c-.102.006-.203.015-.304.023.001.36-.01.721 0 1.082.178 1.103-.028 2.229.126 3.336.004 1.723.226 3.432.358 5.147-.031.402.18.815 0 1.2-.089-.482-.289-.933-.437-1.398a2.347 2.347 0 0 0-.61-.233c-.043.377-.163.752-.492.98-.543.35-.128 1.224-.8 1.472-.216-.144-.503-.334-.444-.635.098-.417.406-.742.567-1.134-.365-.358-.426-.86-.577-1.315-.258.212-.433.499-.638.758-.26-.33-.204-.76-.267-1.149-.422.29-.458.821-.694 1.227-.394.11-.594-.388-.656-.691-.124-.33.157-.6.34-.84-.242-.157-.527-.227-.775-.371-.156-.507.441-.883.44-1.38-.085-.4-.557-.416-.867-.548-.23-.574-.398-1.445.34-1.732l-.192-.115a2.816 2.816 0 0 0-.448-.93c-.2.212-.35.464-.55.675-.194.267-.571-.297-.696.043-.143.46.29.801.371 1.225-.502.252-1.04-.029-1.564.04.045.454.638.459.788.85.238.422-.203 1.091-.702.924-.172-.043-.442-.179-.524.067-.152.8.331 1.53.366 2.312-.358.199-.642-.15-.827-.414-.205-.39-.263-.838-.462-1.232-.116.322-.095.673-.218.993-.632-.364-.6-1.208-.3-1.778.047-.176.26-.39.1-.555-.255-.055-.517-.062-.773-.106l-.079-.332a3.432 3.432 0 0 0-.643-.164c.149.4.213.823.236 1.247-.01.355-.75.167-.587.55.35.45.964.734 1.086 1.337-.154.074-.31.148-.46.227.345.479.364 1.129.215 1.682-.588-.08-.78-.828-1.364-.9-.413.17-.543.763-1.01.86-.256.053-.536-.22-.415-.469.16-.403.452-.847.187-1.275-.31.099-.573.288-.831.478.056-.636.318-1.253.245-1.9-.055-.553.104-1.107.37-1.591.094-.178.213-.488-.037-.594-.405.249-.534.732-.643 1.16-.168.214-.453.019-.576-.145-.327-.449-.119-1.04.075-1.5.167-.435.62-.652.851-1.043.134-.33.122-.706-.002-1.037a4.555 4.555 0 0 0-.393.213l-.19-.085c-.212-.46-.028-1.252-.712-1.331-.162.511-.098 1.082-.387 1.553-.632-.45-.468-1.302-.445-1.964.036-.346-.048-.94-.528-.86a2.64 2.64 0 0 1-.36.476c-.305-.38-.273-.908-.573-1.288-.212.439-.26.93-.284 1.41l-.16-.014c-.33-.54-.614-1.129-.706-1.757-.105-.59.705-1.042.333-1.623-.317.167-.959.552-.97-.083.293-.166.545-.4.605-.743a23.916 23.916 0 0 0-.168-.212l-.28.099-.14-.224c.137-.437.545-.823 1.032-.774 1.013.117 2.09.626 2.508 1.602.045.46-.498.755-.445 1.215.206.314.609.384.932.528.22-.376.202-.82.232-1.238l.225-.167c.373.022.743.139.98.44l.32-.011c.117-.57-.504-.865-.676-1.347.104-.22.237-.423.376-.622l-.133-.147-.351-.002c-.017-.294.054-.58.094-.87-.462-.243-1.023-.033-1.35.333-.109.135-.34.265-.431.041-.104-.359-.104-.74-.223-1.097-.273.061-.506.22-.762.322-.19-.659.242-1.427-.265-2.001a21.348 21.348 0 0 0-.229-.009c-.11.089-.224.173-.344.25-.414-.653.358-1.307-.003-1.94-.077-.241.161-.445.195-.678-.199-.058-.407-.067-.611-.082-.355.417-.57.927-.704 1.451-.455-.387-.311-1.07-.755-1.455l-.272.032c-.162.762-.173 1.655-.875 2.166.003-.738.031-1.477.003-2.214-.08-.335-.349-.585-.59-.817l-.11.408c-.545.172-.318.887-.678 1.248l-.254.026c-.06-.897.008-1.848-.384-2.684-.182.275-.35.559-.528.835l-.202-.027c-.239-.693-.027-1.506-.44-2.133a4.096 4.096 0 0 0-.345.844C.567 34.992.7 34.372.68 33.794c-.238-.053-.456.101-.68.152-.022-.427.337-.742.71-.883.439-.165.676-.59 1.056-.841-.143-.152-.425-.371-.133-.528.874-.672 1.877.303 2.806.043.22.107.41.292.675.281.054-.143.108-.284.158-.428.187.082.369.173.549.27-.164-.993-.15-2.013-.404-2.987-.25.48-.045 1.017-.16 1.517-.132.315-.36.581-.587.834-.287-1.133-.239-2.336-.06-3.485l-.316-.024a8.454 8.454 0 0 0-.185.446c-.293.06-.526.25-.789.376-.095-.813-.078-1.635-.048-2.45-.449-.102-.084.907-.57.95-.17-.22-.202-.5-.241-.764a24.332 24.332 0 0 1-.486-.041c-.057-.237-.1-.481-.221-.697a4.546 4.546 0 0 0-.365.508c-.417-.56-.142-1.287-.317-1.918-.091.02-.183.039-.274.06-.037-.846.77-1.305 1.455-1.581.235-.118.46.062.67.15.384-.16.882-.494 1.273-.186.302.417.828.551 1.19.9.309-.028.661-.192.939.021.506.396.62 1.054.84 1.615.18.446.78.388 1.05.754.27.39.764.095 1.141.174.33.23.388.66.555.998.251.483-.373.933-.113 1.416.083.388.421.73.849.613.58-.143.42.64.785.873.373.692-.48 1.309-.453 2.003.208.668.835 1.081 1.312 1.557.276.28.305.7.546 1.003.23.307.475.62.544 1.006.336-.042.672.002.99.114.051-.199.081-.408.189-.587.29-.178.503.15.694.314a5.85 5.85 0 0 0 .11-.673c-.367.118-.715-.054-.827-.421-.253.137-.498.38-.811.298.108-.553.155-1.124.043-1.681-.272.376-.322.876-.665 1.204-.127-.699-.142-1.506.246-2.123-.623-.34-.266-1.08-.388-1.62-.074-.36-.501-.293-.774-.359-.11-.311.087-.59.186-.87.015-.328-.294-.552-.551-.699-.25-.158-.669.071-.815-.247-.188-.33-.03-.75-.24-1.07-.14-.263-.476-.296-.721-.42.108-.666.833-.48 1.276-.292.1-.187.188-.38.234-.589.348-.275.566-.769 1.05-.832.293-.028.528-.217.767-.37.142-.854-.093-1.806-.821-2.344 0 .569-.46 1.136-.997 1.237-.337-.436-.31-1.03-.581-1.501-.124.42-.142.871-.339 1.267a.375.375 0 0 1-.62.016c-.095-.244.073-.5.013-.746-.137-.412-.486-.729-.563-1.163-.002-.416.295-.74.46-1.1.112-.276-.085-.537-.213-.768-.195-.276-.152-.636-.329-.92-.495-.049-.715.43-1.03.705-.245.24-.617.15-.913.076.354-.497.468-1.151.19-1.71-.166-.296-.108-.619-.02-.925-.098-.4-.533-.548-.832-.773-.298-.337.196-.97.6-.744.427.218 1.094.146 1.327-.307.089-.434-.482-.352-.748-.431-.172-.229-.18-.54-.369-.762l-.326-.032c-.292-.703-.316-1.545-.13-2.277.648.27.886 1.135 1.647 1.207.478.1 1.287-.153 1.405.502.398.137.891.023 1.229.342-.171.21-.448.372-.478.663 0 .32.232.576.502.721.44-.3.753-1.074 1.405-.79.237.245-.11.502-.277.663.467.366.95.712 1.442 1.041.434.426.562 1.066 1.002 1.494 0-.855-.052-1.715.12-2.559.065-.429-.426-.179-.658-.156.026-.216.062-.43.102-.644-.24-.196-.705-.217-.744-.58.166-.313.509-.474.78-.685a5.83 5.83 0 0 1-.6-.296c.462-.688 1.642-.64 2.054.079.11.27.23.541.436.757l.13-.306c.166 0 .333.013.498.034.062-.187.103-.383.201-.555.55.03.774.803 1.411.606.36.315.332.8.404 1.225.17.188.424.375.692.335.016-.18-.08-.34-.147-.5.522-.602 1.224.07 1.365.637.1.499.766.461.975.862-.03.413-.602.442-.67.85-.076.313.344.292.532.409.368.147.42.584.373.925-.07.02-.21.056-.28.075.202.4.48.757.775 1.093.048.486-.437.816-.358 1.304-.036.45.02 1.12.59 1.2.408-.087.848-.188 1.2-.42.328-.49.289-1.122.358-1.687-.24-.176-.53-.26-.8-.376-.165-.486.047-.99.185-1.457.118-.319.503-.274.777-.307-.119-.265-.235-.531-.339-.802-.379-.018-.723.157-1.096.186-.083-.598-.05-1.205-.03-1.806.01-.286.2-.69.554-.578.32.175.39.582.679.798.212-.455.287-.949.27-1.446-.065-.542.606-.977.29-1.52-.24-.31-.37-.67-.35-1.065-.173.106-.5.605-.583.184-.087-.843-.174-1.805.435-2.494.201-.338.583-.522.778-.862.224-.59-.126-1.185-.1-1.782.52.044 1.114.215 1.437.648.096.4.016.824.053 1.233l.219.169c.36-.402.833-.685 1.174-1.106l.242-.002c.1.125.196.252.29.382l.21.01c.255-.315.095-.77.37-1.08.26-.28.06-.673-.19-.884-.126.098-.248.2-.372.3-.274-.5-.03-1.082-.206-1.602-.156.11-.3.233-.448.35.13-.51.3-1.011.385-1.533.174-.495.81-.47 1.245-.49.241.228.437.516.735.677.255.105.537-.09.462-.372-.144-.477-.557-.813-.854-1.202l.26-.248c.218.018.418.102.615.187.021-.437-.125-.868-.066-1.304" mask="url(#b)"/>
        </g>
        <path fill="#FFF" d="M42.929 69.017c.243.212.506.409.808.538l.01.28c-.262.007-.507.097-.743.2-.017-.34-.036-.68-.075-1.018M43.058 72.227c.177.096.355.191.539.277-.141.395-.415.757-.378 1.198.215.145.436.279.652.422-.427.313-.572.853-.452 1.354.124.245.516.226.525.549-.254.03-.502.097-.731.209a.852.852 0 0 0 .399.527c-.172.077-.344.153-.517.226a150.429 150.429 0 0 1-.037-4.762"/>
        <path fill="#FFF" d="M44.788 76.07c.112-.357.383-.618.65-.866.014 1.26.168 2.513.382 3.755-.389.045-.746.215-1.115.33a.53.53 0 0 0-.315.758c.256.25.56.46.894.595.31.07.513-.225.73-.388.133.57.195 1.155.35 1.721.346.06.665.31 1.03.213.579-.172 1.146.142 1.667.358.536.146 1.05-.14 1.461-.456.609.504 1.67 1.193 2.323.387.39-.016.77.073 1.156.103.352.05.614-.287.966-.252.459.018.796.355 1.19.536.351.128.636-.213.98-.22.727.029 1.522-.02 2.102.498.613.095 1.013-.546 1.528-.766.352-.128.584.223.863.361 1.15.662 2.601.244 3.758.865-.572.795-1.666.753-2.517 1.029-.467.094-.704.64-1.204.633-.354-.044-.694-.16-1.048-.205-.047.284.117.654-.145.865-.754.07-1.368-.526-2.098-.594-.535.119-.791.746-1.345.837-.35.038-.475-.426-.823-.417-.81-.026-1.56.413-2.157.917-.376.303-.595.86-1.122.932-.531.056-.757-.535-1.204-.693-.615-.242-1.302-.474-1.965-.294.113.502.633.887.51 1.44-1.216.121-2.318-.644-3.527-.639-.348-.036-.51.353-.833.397-.782.113-1.47-.358-2.21-.501-.653-.023-1.212.439-1.532.968-.15.196-.287.546-.597.462-.432-.376-.306-1.008-.482-1.5-.833.086-1.403.779-2.089 1.179a.319.319 0 0 1-.416-.08c-.366-.463-.383-1.135-.854-1.527-.344-.295-.77-.653-1.26-.507-.41.179-.536.68-.943.869-.658.332-1.431.239-2.12.058-.02-.4.192-.829.007-1.208-.58-.293-1.274-.243-1.91-.244-.512-.017-.913.382-1.423.378-.458.014-1.035.076-1.37-.299-.093-.35.312-.536.458-.805-1.244-.214-2.516.148-3.765-.059a1.268 1.268 0 0 1-.812-.414c.378-.604 1.168-.696 1.754-1.023.632-.28 1.222.405 1.854.123.484-.084.784-.467 1.116-.783.427-.264.707.323 1.094.329.944-.535 2.11-.253 3.065-.782.367-.255.75-.063 1.081.136.54-.486 1.251-.299 1.893-.187.537.15.87-.525 1.377-.432.545.407 1.287.78 1.967.465.382-.13.752-.531 1.175-.29.771.334 1.516-.148 2.264-.276-.028-.829-.08-1.656-.098-2.485.249.226.439.567.798.626.11-.25.24-.492.4-.714-.043-.322-.121-.639-.1-.964l-.35.008c-.142-.348-.51-.346-.83-.325 0-.226.003-.45.01-.674.346.248.757.351 1.155.153-.117-.494-.077-1.015.02-1.51.167.118.355.186.55.094"/>
        <circle cx="44.526" cy="44.17" r="43.661" stroke="#FFF" stroke-width="2"/>
    </g>
</svg>
