<svg xmlns="http://www.w3.org/2000/svg" width="90" height="90" viewBox="0 0 90 90">
    <g fill="none" fill-rule="evenodd" transform="translate(1 1)">
        <path fill="#FFF" d="M16.034 54.46c-.005.097-.013.292-.016.39l-.478-.04-.11.204c.23-.023.461-.034.692-.03a1.074 1.074 0 0 0-.088-.525m-.511-.196a.717.717 0 0 0 .363-.355c.26.032.522.013.78-.034l.024-.233c-.473.035-1.101.004-1.167.622m3.387-1.511l.173.111c.042-.134.084-.267.124-.4-.1.096-.199.192-.297.289m-6.018-.836c-.129.173-.266.34-.407.504.165-.035.33-.07.495-.107l.014-.305-.102-.092m52.33-4.595c-.02.145-.041.29-.06.438.163-.098.325-.199.486-.303l-.426-.135m10.502-.121c.176.048.351.104.523.169.134-.082.267-.166.401-.249l-.26-.157-.01.27-.187-.313a3.22 3.22 0 0 0-.467.28m-5.895-.19c.19.109.403.158.62.183-.163-.166-.385-.338-.62-.184m3.69-.25c.037.24.06.48.063.723.224-.137.458-.259.696-.372a1.843 1.843 0 0 1-.759-.35m-5.766-.523c-.005.17-.006.34-.007.51.08-.08.157-.16.238-.239-.077-.09-.154-.182-.231-.27m-57.328.343l.38.002a17.845 17.845 0 0 0-.238-.216l-.072-.271c-.12.139-.11.315-.07.485m-.66-.923c.094.25.312.407.52.552.014-.311-.24-.497-.52-.552m16.418-.06c.084.11.18.21.294.29a10.59 10.59 0 0 0-.095-.413l-.2.123m-16.248-.11c-.047.126.168.222.257.145.043-.127-.168-.235-.257-.146m4.727-2.635c-.149.049-.079.3.076.248.153-.043.078-.31-.076-.248m15.483-.316c-.054.153.2.276.321.21.035-.145-.2-.277-.321-.21m-16.534.108l.263.207a1.033 1.033 0 0 0-.07-.502c-.063.099-.128.197-.193.295m20.742-.214c.244.09.489.177.737.252-.148-.34-.415-.465-.737-.252m1.453-.752c.061.268.142.531.225.794l-.518-.13c.14.213.26.442.436.63 1.597.906 3.086 2.004 4.532 3.142-.871-1.266-1.994-2.328-3.207-3.26-.163.152-.347.273-.555.35.03-.248.116-.482.23-.701-.268.08-.544.129-.825.108.128-.134.26-.264.392-.393a8.995 8.995 0 0 0-.71-.54m-2.255-.037l-.186-.113c-.182.15-.27.35-.172.58.446.153.951.392 1.391.075.176-.26-.232-.164-.356-.11l.142-.206-.289-.087a65.01 65.01 0 0 1-.098-.326c-.145.06-.29.12-.432.187m18.26-.056a4.213 4.213 0 0 0-.452.656c.336.025.628.206.937.325-.067.152-.132.303-.194.457-.136.062-.27.125-.405.19l.149.37c.091-.29.286-.523.555-.66-.114.22-.241.434-.367.647l.204-.003c.033-.129.067-.258.103-.386a2.51 2.51 0 0 0 .575-.125c.02-.083.04-.165.062-.247-.16-.059-.32-.119-.476-.18.149-.07.298-.137.448-.202l-.244-.27c-.115.088-.232.174-.35.259-.058-.303-.002-.6.209-.83-.096-.119-.191-.238-.287-.355l-.15.38c-.03-.118-.059-.236-.086-.353-.253-.035-.573.123-.231.327m-1.195-.864c-.093.117.1.292.215.208.102-.117-.103-.285-.215-.208M9.8 40.627c-.195.229-.173.48.026.698l.191-.571.207.3.087-.327a23.243 23.243 0 0 1-.51-.1m38.638-.115c-.034.794-.015 1.597-.256 2.364-.308 1.725-.71 3.45-1.468 5.036-.244.452-.473.914-.672 1.388-.072.451.004.914.004 1.37 1.327-1.574 2.694-3.125 4.271-4.454.565-.426.93-1.044 1.387-1.572-.037-.27.018-.536.134-.78.083.117.167.234.249.354.121-.12.244-.241.355-.374-.228-.315-.715.03-.972-.263-.34-.256-.345-.705-.427-1.084-.003.416-.221.793-.66.835.051-.205.113-.407.18-.607-.196.005-.391.012-.587.018a21.896 21.896 0 0 1-.29-.44c.193-.177.404-.33.628-.463a1.124 1.124 0 0 1-.569-.385c.395-.072.645-.415.745-.786-.158.167-.289.358-.428.54l.03-.523c-.2.137-.4.274-.611.393a2.955 2.955 0 0 0-.43-.103c.06-.226.149-.441.26-.645-.28.105-.575.159-.873.181m-9.6-.226l-.077.27.443.254a7.798 7.798 0 0 0-.365-.524m11.754.072l-.073-.304c-.153.03-.305.062-.457.096.257.33.625.516 1.03.584.138-.277.464-.169.711-.181-.072-.119-.14-.237-.21-.355a5.379 5.379 0 0 1-.67.477c.052-.104.11-.206.165-.31l-.194.005.029-.433c-.111.139-.22.28-.33.42m-1.606-.477l-.107.222c.152-.012.306-.026.458-.049-.118-.06-.234-.116-.351-.173m-35.587-.527c.032.199.061.398.091.598l.176-.037c-.001-.19 0-.378.004-.566-.09.001-.18.002-.27.005m-2.587-.03l-.096.263c.124.152.251.303.397.436a8.94 8.94 0 0 0-.156-.34l.192-.204-.337-.156m37.6.538c.12-.195.217-.404.29-.623-.307.077-.356.342-.29.623m.842-.74l-.107.358c.142-.05.283-.103.426-.157a8.513 8.513 0 0 0-.319-.2m26.92.01c.223.119.472.174.722.207-.19-.213-.447-.303-.723-.206m-61.22-.151c.056.19.12.377.205.556a.583.583 0 0 0 .153-.433l-.357-.123m61.262-.297c-.15.18.302.23.298.056a.24.24 0 0 0-.298-.056m-30.76.376c.231-.041.367-.213.38-.445-.178.055-.539.218-.38.445m-25.755-.244l.252-.078c.014-.142.027-.283.038-.424a9.57 9.57 0 0 0-.29.502m-.333-.55c.04.155.085.31.14.462.079-.129.155-.259.23-.389-.123-.026-.246-.05-.37-.073m30.19-.107c.228.087.532.122.604-.184a4.35 4.35 0 0 0-.604.184m-29.27.202c.064.013.129.027.193.042l.061-.416c-.083.125-.168.25-.254.374m-6.025-.401c-.08.19-.155.38-.239.567l.084.112c.008.252.024.504.046.755l-.269-.11.26.338.18-.459.297.27c.09-.267-.036-.504-.257-.654l.024-.208-.202-.076c.098-.17.228-.356.076-.535m4.133.652c.078.153.22.255.346.367l.222-.047c.05-.095.102-.19.154-.285l.258.26a22.567 22.567 0 0 1-.135-.65c-.088.125-.177.247-.268.37.044-.255.096-.508.138-.764-.26.22-.627.391-.715.749m29.904.19c.585.004.85-.481.937-.996-.322.322-.67.622-.937.995m-30.323-.272c.4-.076.57-.474.851-.72h-.249c-.184.254-.4.481-.602.72m2.617-.92c.08.327.048.66-.026.983l.197.002c.014-.338-.018-.678-.17-.984m54.518-.26c.113.157.263.28.43.375a.666.666 0 0 0-.43-.375m-57.221.046c-.1.037-.16.188-.091.277.14.061.25-.257.09-.277m-.636.24c.238-.075.459-.21.55-.457a.915.915 0 0 0-.55.457m57.858-.48c.142.073.278.186.447.181.12-.343-.283-.48-.447-.181M48.9 36.742c-.182.075.005.278.136.188.18-.07-.008-.285-.136-.188m-33.627-.562l.183.335a8.859 8.859 0 0 1-.779-.303c.118.17.246.332.376.493l-.279-.013-.135.318c.136.312.293.614.483.896-.104.033-.208.07-.311.104.18.112.362.22.55.318.073-.166.137-.356.324-.422l-.191-.138-.266.143c-.186-.362-.013-.733.097-1.086.288.185.585.359.884.526.157-.105.317-.206.478-.304.043.153.084.305.123.459.411.068.367-.308.183-.558l.16-.3c-.223.242-.537.268-.842.206.068-.14.138-.278.202-.419-.098.053-.196.11-.293.167l-.149-.012-.092.226a3.007 3.007 0 0 1-.443-.684c-.088.015-.176.031-.263.048m59.53.096c-.145-.123-.29-.244-.432-.369-.41.313.191.34.431.37m-60.345-.81a17.04 17.04 0 0 0-.049.528c.294-.174.613-.366.961-.229a37.516 37.516 0 0 1-.31-.348c-.104.095-.206.194-.307.292a24.864 24.864 0 0 0-.295-.244m56.74-.257l.368.402-.022-.403-.346.001m-10.344-.992c.015.255.05.515.214.72.138-.222.137-.48.122-.732l-.336.012m-46 .341l.308-.058.158.112-.153.199c.142.092.283.187.423.283.092-.112.186-.224.28-.334l-.202-.038c0-.132-.002-.263-.005-.395l.218-.108c-.248-.078-.497-.155-.741-.246-.14.17-.229.373-.286.585m-.94-.39l.252.27c.03-.08.057-.16.086-.24l.528.182.103-.343a3.409 3.409 0 0 0-.968.131m1.813-.502c-.185.03-.106.312.066.251.184-.03.107-.314-.066-.25m56.022-2.794c.173.23.33.48.355.774l.225-.109a3.641 3.641 0 0 1-.277-.647l-.303-.018m-8.585-.168c-.116-.031-.268.112-.17.22.14.15.398-.158.17-.22m4.036-.184c-.103.128.112.292.206.155.1-.126-.115-.295-.206-.155m-4.775-.305c.008.158.02.316.033.475l.226-.193-.26-.282m-46.468.064c.08.084.158.169.237.254l.407-.135a8.255 8.255 0 0 1-.644-.119m54.972-.584l-.215.317c.027.136.054.272.084.41.078-.093.154-.187.234-.28.046.113.094.226.142.34l.199-.08a4.35 4.35 0 0 1-.444-.707m-8.672-.034l-.1.2c.17.003.34 0 .51-.007a1.19 1.19 0 0 0-.41-.193m-.033-.725c.094.257.302.427.532.558.003-.19.008-.382.013-.574l-.199.19c-.115-.059-.23-.117-.346-.174m.31-.44c-.097-.005-.248.16-.098.21.174.09.363-.25.098-.21m-.307.018c.245-.163.488-.344.786-.397l-.068-.18c-.26.164-.542.313-.718.577m7.342-3.13l.458.13c-.048-.115-.095-.23-.14-.345-.107.07-.213.143-.318.215m-8.578-.36l.303.295c.08-.18.16-.358.242-.536-.182.08-.363.161-.545.24m1.492-.724c.055-.136.108-.273.16-.41-.22.079-.514.262-.16.41m-42-.526c-.066.144.164.311.275.188.076-.141-.168-.268-.274-.188m1.207-.287c.272-.046.134-.29.098-.463-.168.106-.108.302-.098.463m.49-.473c.124-.028.25-.06.375-.09l-.094-.292a1.311 1.311 0 0 0-.281.382m.067-.994c.198.194.409.374.638.53l-.131-.327c-.17-.069-.338-.14-.507-.203m4.8-.733c-.089.173.265.229.288.06-.024-.124-.211-.14-.288-.06m35.185-.344l.337.162-.035-.277a29.95 29.95 0 0 0-.302.115m-35.32.05c-.201.172-.32.41-.351.672.17-.43.64-.688.7-1.153-.195.097-.332.258-.35.48m34.399-.504l.063.217.41.223a53.527 53.527 0 0 1-.023-.366 17.99 17.99 0 0 1-.45-.074m-37.943.024a.413.413 0 0 0 .072.363c.207.003.118-.419-.072-.363m37.229-.085c-.171.312.316.23.504.25a2.283 2.283 0 0 0-.504-.25m-32.138-1.833c.074.12.152.237.23.354l.088-.24-.318-.114m28.426-2.223c.085.158.212.28.382.345.042-.197.082-.394.12-.592-.228-.1-.361.104-.502.247m-5.915-4.447c-.098.057-.152.263-.022.312.185.02.23-.36.022-.312M42.366 10h.113c.095.269.108.554.072.836.116-.193.238-.382.366-.566.159.206.353.385.491.607.037.304 0 .617.099.912.11-.29.21-.584.318-.874.177.147.351.297.522.453.065-.24.148-.474.258-.697.138.236.272.476.4.72.164.059.327.12.491.182-.178.126-.36.248-.541.37.35.123.715.259.958.559l.52-.38-.015-.434.47.204.002-.294.178.215c.015-.072.042-.218.055-.29.295.039.583.123.844.27.183-.126.367-.256.572-.348.1.251-.095.48-.187.702.184-.012.368-.021.552-.026l.12-.24c.144.092.288.187.432.283.059-.256.142-.511.313-.716.136.424-.058.829-.208 1.215.242-.134.407-.345.377-.636.246.037.489.1.723.188.115-.225.23-.451.35-.673.102.044.205.088.308.134l.268-.11.023.418c.25.045.48.154.691.296l-.311.13c.372.293.726.66 1.233.678-.004.083-.008.165-.01.247.228-.026.457-.052.686-.075l-.406.13a6.327 6.327 0 0 1-.45.506c.03.076.062.152.094.228l-.145.17.282.245.433-.09c-.023.19-.049.38-.071.569.314-.017.587-.162.608-.51.062.207.132.413.21.616.024-.176.045-.353.068-.529.157.1.315.201.472.305a.84.84 0 0 1 .6-.395c.028-.16.056-.322.086-.482l.22.308.353-.127c.057.118.116.236.174.353l.403.018-.133.313c.198.027.397.052.596.082-.152.168-.305.335-.462.498.236-.015.473.003.696.085-.175.032-.352.06-.528.088.268.178.557.345.767.597-.01.22-.073.43-.126.641.121.174.242.348.366.52l.3-.176c-.36.47.057.984.008 1.496-.112-.114-.222-.23-.33-.347-.05.204-.1.408-.145.613.162.012.325.023.488.033.043.106.088.213.134.32l-.012-.492c.279.1.564.175.853.235-.095-.069-.192-.135-.288-.202.35-.184.634-.465.878-.774.109.122.217.243.33.362l-.134-.307c.135-.062.27-.123.408-.184.037-.106.076-.211.115-.317l.258.17-.053-.327c.157.01.317.02.477.028.044.124.091.247.14.371.007-.324-.045-.644-.093-.964.157.091.314.183.473.27.196.004.38.067.555.153-.017.141-.031.283-.046.424.259-.07.523-.021.779.04-.08.223-.174.447-.195.686.156.132.39-.12.57-.14a4.556 4.556 0 0 1-.573.56c.136.237.215.501.19.777a17.879 17.879 0 0 1-.557-.32c-.087.16-.174.32-.264.479.034.178.068.357.099.537.204.01.408.026.611.05a1.317 1.317 0 0 1-.06-.757c.156.201.274.429.359.669.034-.141.07-.281.108-.42.106.01.213.023.32.035.063.173.13.344.196.516.163-.043.326-.082.492-.119.013.322-.11.603-.418.725.193.197.323.443.37.717a4.196 4.196 0 0 1-.68-.325c-.02.257-.054.512-.11.764a4.902 4.902 0 0 1-.33-.602l-.435.085v.479h.2l-.134.563c.134-.066.268-.132.402-.2a3.122 3.122 0 0 1-.158-.774c.141.202.26.42.367.641-.082.238-.148.48-.204.725.19.187.376.377.555.575-.18.044-.362.08-.543.113.113.195.222.395.317.6-.294-.048-.54-.213-.75-.416-.142.158-.282.318-.425.475.172.125.343.254.505.394-.67-.052-1.11-.653-1.398-1.203.064-.01.19-.034.254-.046.018-.098.037-.197.057-.294l-.468.01c.055-.2.082-.406.076-.614a1.956 1.956 0 0 1-.868-.111c.112.142.222.286.332.431a21.63 21.63 0 0 0-.11.463l.512-.004-.366.179c.364-.017.629.206.779.528a2.765 2.765 0 0 1-.829-.271c.177.277.34.563.534.829a25.293 25.293 0 0 0-.144-.393l.118-.226c.217.114.43.24.632.383-.09.217-.195.429-.242.66.335.274.649-.178.912-.343.062.17.123.341.182.513.043-.069.088-.137.133-.206l.406.17c.056-.154.11-.31.165-.465l.337.156c.128.181.264.357.399.533l-.386.195c.132.183.247.379.348.581.185.094.369.188.553.28-.12.156-.243.309-.367.46.1.15.2.296.306.443l-.063-.405.271.105.052-.412c.069.17.135.34.202.51.019-.118.039-.235.06-.353.24.045.482.085.725.126.098-.35.207-.699.384-1.018a25.697 25.697 0 0 1-.122-.34c.09.086.181.172.273.256.52-.084 1.095-.136 1.321-.71-.08.26-.162.52-.235.783.512-.416.75-1.009 1.083-1.554-.046.188-.098.375-.15.56.07.003.21.009.281.01.105-.238.258-.45.457-.616l.113.328.137.046c-.058.17-.114.34-.166.513.255-.175.446-.419.593-.688.139.232.253.48.339.738.084-.27.234-.515.462-.684.007.217.009.435.005.652.193.16.384.32.57.489-.186.027-.371.052-.556.075.235.345.435.73.78.982-.096.22-.204.433-.324.64.297-.135.62-.215.948-.186-.162.165-.333.32-.51.468.031.22.066.44.102.659-.23.002-.453.053-.66.155.42.213.938.482.842 1.05-.328-.123-.523-.415-.682-.711-.089.635.46 1.34-.18 1.81.13-.06.262-.12.393-.183.523.128 1.027.322 1.544.473.047.168.092.336.143.503.032-.395.027-.806.21-1.168.097.226.179.459.256.692l.522-.003.044.383c.072.01.216.033.287.045-.135.084-.271.166-.407.249.023.197.033.394.036.593l-.324.022c.005.236.05.467.114.695l-.316-.113c.115.18.225.362.332.547l-.404.09c.077.221.145.445.208.672l-.242.007c.09.184.174.371.252.56-.32-.226-.506-.657-.93-.703-.004.233 0 .468.005.703.175-.052.35-.105.527-.154-.126.104-.254.206-.381.308l.108.155c.304-.048.581-.186.838-.355l.166.365.217.048c-.054.202-.108.404-.158.607.101-.098.2-.197.3-.296.089-.006.178-.012.267-.016.096.252.201.502.316.746-.044-.387-.125-.795.075-1.156.403.294.026.88.456 1.135l-.053-.525c.146.144.29.29.435.435.154-.148.31-.294.47-.435l-.023.48c.125.116.25.234.374.354.378.011.756.02 1.134.016-.082.34-.191.676-.376.975.27-.054.549-.064.817.017-.158.129-.32.25-.486.367-.001.253-.013.506-.041.757-.184-.13-.363-.265-.54-.401-.002.143 0 .287.003.43-.098.118-.187.242-.28.36l.301.202c-.02-.168-.038-.337-.054-.504.405.083.61.504.634.887.147-.057.293-.114.442-.167-.106.11-.213.218-.322.326.1.249.2.498.288.752-.185-.143-.366-.288-.551-.428 0 .332.19.605.358.873a2.055 2.055 0 0 1-.626-.43c.091-.16.055-.333-.005-.495a3.95 3.95 0 0 0-.566.496c.23.178.502.375.422.708-.195-.048-.387-.098-.583-.137.231.306.563.504.86.738l-.522.144c.142.06.285.117.43.175-.036.162-.069.326-.098.489l.37-.007c-.2.169-.421.315-.609.5.102.27.215.54.233.834-.221-.135-.43-.286-.642-.435.02.33.056.66.07.991-.387-.372-.41-1.184-1.111-1.036-.073-.144-.143-.287-.214-.43-.035.266-.066.534-.098.8l-.38-.599c-.25.29-.487.606-.572.988a9.35 9.35 0 0 0 .389-.432c.014.223.03.447.05.67l.375-.13.227.147c.105-.332.25-.687.615-.798-.043.278-.143.541-.28.785.217.073.411.195.564.37-.115.079-.228.159-.34.24.13.101.26.203.394.304l-.022.21c-.172-.12-.344-.237-.52-.348.12.19.247.378.374.565.18-.138.354-.281.523-.432-.21-.228-.364-.504-.377-.822.346.15.574.455.787.753-.076.46.303.742.53 1.082a7.833 7.833 0 0 0-.512.396c.295.198.705.455.44.864a7.014 7.014 0 0 1-.443-.453c-.053.246-.15.483-.319.673a1.62 1.62 0 0 1-.025-.712c-.25.21-.568.273-.881.31.04.169.081.337.124.505a52.348 52.348 0 0 0-.35-.04l-.297-.33-.21.267c-.204-.036-.408-.07-.61-.109-.066.104-.133.207-.196.312l-.348-.568c-.466.08-.85-.231-1.285-.32.195.199.391.4.553.63-.36-.109-.635-.37-.89-.634-.076.026-.15.053-.224.08-.02.147-.04.294-.058.442-.176-.047-.35-.096-.523-.147a12.99 12.99 0 0 1-.551.417 1.68 1.68 0 0 0-.577-.061l-.142-.52c-.31-.15-.613-.31-.911-.48-.013.128-.024.257-.039.386l-.205-.51c-.072.207-.14.415-.21.623-.066-.128-.13-.256-.192-.384-.105.074-.21.15-.312.225a5.881 5.881 0 0 1-.505-.955c.05.357.07.728-.087 1.063-.145-.184-.231-.436-.446-.548-.204.195-.112.493-.119.74l-.331-.005.104.592c-.165-.074-.331-.15-.496-.222.01.228.023.455.034.684a16.42 16.42 0 0 0-.185-.081c-.188-.385-.518-.664-.769-1.002-.25.079-.525.24-.787.115-.277-.224-.131-.58-.04-.858-.032-.02-.095-.06-.128-.079-.058.218-.12.437-.188.654-.244-.16-.402-.403-.507-.67l-.382.127c-.008-.353-.02-.705-.043-1.057-.11.178-.22.356-.338.529.042-.245.104-.486.176-.723a8.81 8.81 0 0 1-.642.33c.215-.345.606-.446.988-.413l-.168-.392c.076-.153.153-.303.228-.456-.153.133-.304.268-.454.404l-.372-.125c.043-.123.087-.244.132-.366a55.538 55.538 0 0 0-.11-.157c-.17.034-.34.065-.51.097.007-.189.014-.378.016-.565-.088.057-.174.116-.26.176a2.855 2.855 0 0 1-.624-.485c-.082.32-.25.614-.559.757-.007-.261.041-.52.113-.77-.126.047-.251.096-.377.144.052.224.093.45.122.679-.45-.202-.517-.722-.7-1.126-.201.052-.4.113-.593.19h.491l-.27.427a49.894 49.894 0 0 0-.514-.018l-.179-.229c-.123.21-.245.42-.363.634l-.379-.222a25.91 25.91 0 0 0-.182.503c.368.2.713.531.584.993-.223-.187-.437-.384-.666-.562.119.209.25.41.379.615-.284.012-.568-.025-.808-.186-.045.136-.088.274-.13.41l.308.019c.021.235.04.47.059.706l-.33-.229c-.19.242-.42.444-.66.634-.002-.19-.003-.38-.002-.571l-.277.278c.001.265-.014.533-.075.793-.1-.234-.18-.475-.248-.721-.098.15-.199.3-.304.445.049-.25.124-.494.22-.73-.215.126-.431.25-.652.364.117-.136.237-.27.36-.401-.06-.18-.118-.359-.175-.538a2.187 2.187 0 0 1-.557.747c-.055-.17-.105-.341-.156-.512-.037.153-.073.305-.108.459l.338.106a5.9 5.9 0 0 1-.697.234c.1-.11.203-.22.306-.327-.213-.398-.636-.431-1.004-.233l-.098-.332c-.038.18-.122.361-.101.546.241.41.767.522 1.028.924-.393-.03-.741-.225-1.082-.406l.008.313a2.828 2.828 0 0 1-.599-.754l.293.006c.036-.125.071-.25.108-.373-.4.133-.788.328-1.036.685l-.066-.299-.152.143c-.017.218-.036.437-.056.656-.12-.091-.239-.183-.356-.276-.47.178-.998.256-1.384.603-1.232 1.086-2.254 2.387-3.204 3.724-.39.669-.591 1.43-.804 2.17-.118.456-.245.936-.113 1.405.324 1.364.35 2.771.521 4.158.123 1.11.343 2.229.175 3.347-.159 1.125-.275 2.265-.197 3.403.079 1.27-.064 2.54.006 3.81.051.961.486 1.844.592 2.797.085.76.222 1.516.396 2.262h-7.162c.41-1.761.276-3.624.912-5.335.66-1.756.4-3.665.46-5.498.059-1.325-.295-2.61-.419-3.918-.106-1.678.105-3.353.232-5.024.077-1.169.423-2.294.584-3.449.068-.357-.2-.64-.371-.919-.82-1.205-1.597-2.457-2.613-3.51a20.167 20.167 0 0 0-3.089-2.4c.135.265.254.538.332.826a8.939 8.939 0 0 1-.463-.48l-.04.43c-.202-.364-.487-.67-.886-.81.16-.09.321-.176.483-.26-.312-.087-.615-.216-.844-.453l-.056.393a3.556 3.556 0 0 0-.537-.724l.024.398c-.455.087-.762-.268-1.012-.592.012.074.038.219.052.292-.102.048-.202.095-.302.144.047.136.094.272.14.41a7.15 7.15 0 0 0-1-.09c.052-.16.106-.32.163-.48a24.91 24.91 0 0 1-.54-.15c.07-.105.142-.208.213-.312-.398-.033-.8-.06-1.18-.195l-.324.217.03-.284a6.101 6.101 0 0 1-.932-.12l-.068.365a8.644 8.644 0 0 1-.478-.55 8.676 8.676 0 0 1-.163-.034l-.103.165c.112.25.22.5.315.758a25 25 0 0 0 .26.02c-.076.092-.15.186-.226.279l.158.217-.245.07c.02.165.038.33.056.495-.116.03-.232.06-.347.092l.092.118.33-.04-.23.24c.139.207.27.418.386.64a13.632 13.632 0 0 1-.437-.385l-.076.217a2.366 2.366 0 0 0-.851-.759l.36-.17c-.23-.057-.46-.109-.69-.161.18-.16.369-.31.562-.453a18.04 18.04 0 0 1-.57-.218l-.04.288-.132-.132-.175.267a18.575 18.575 0 0 0-.55.001c.168.264.328.556.261.881a9.994 9.994 0 0 1-.466-.47l-.068.455c.08-.03.162-.059.244-.087l.124.172c-.018.302-.012.606-.008.908a59.75 59.75 0 0 1-.28-.383l-.2.25c-.187-.03-.375-.06-.563-.085.131.087.264.172.399.256.135-.04.271-.082.41-.108.003.191-.096.356-.19.515l-.262-.21a8.714 8.714 0 0 1-.712.156c.367.048.616.322.788.632a2.677 2.677 0 0 1-.79-.188l-.097.342c.15.286.268.7-.028.938-.3.144-.65.104-.972.166.34.021.683.07.971.263.04-.045.121-.134.16-.18.274.213.456.509.476.86a61.87 61.87 0 0 1-.376-.13c-.157.077-.313.153-.47.232-.074-.087-.147-.172-.222-.257l-.195.369a8.094 8.094 0 0 1-.303-.63l-.673.016-.087-.171-.355.038c.183-.138.37-.27.563-.396l-.011-.462c.17-.11.34-.22.512-.329-.39.06-.74-.092-1-.378.11.28.274.578.212.891-.24.162-.255-.315-.356-.465l-.117.255c.095.203.184.409.263.62a7.812 7.812 0 0 1-.466-.43l.112.41c-.15-.172-.295-.351-.439-.53l-.328.595-.282-.179-.099.217c-.077-.05-.154-.1-.231-.147l.038.46-.536.088c.035.207.038.42.03.63l-.374-.241.105.296c-.094.105-.187.211-.28.319.126.215.223.446.294.687a3.25 3.25 0 0 1-.78.462c-.028.331-.102.674-.417.847.079.163.155.328.23.494a22.78 22.78 0 0 1-.487-.134c-.163.302-.303.62-.509.897.429.128.546.618.47 1.012a8.13 8.13 0 0 1-.388-.524c-.026.212-.054.425-.083.638-.218-.252-.493-.46-.842-.415l-.053-.267-.353.066c.06-.122.122-.244.184-.366l-.42.083-.063-.26c-.084.055-.168.11-.251.167-.107-.048-.213-.096-.32-.142.125.13.253.256.382.383-.308.168-.66.307-.88.59-.065.525.54.888.417 1.437-.16-.092-.32-.185-.478-.28-.105.123-.21.246-.313.37a12.816 12.816 0 0 0-.383-.273l-.033-.243c-.205-.019-.409-.038-.613-.06l.251-.323c-.06-.195-.118-.391-.173-.587-.125.144-.251.288-.382.428.072-.23.152-.457.226-.684-.36.194-.402.576-.319.941l-.235-.02a3.827 3.827 0 0 0-.337-1.042c-.35.07-.708.1-1.065.063-.04-.163-.081-.323-.123-.485-.121.005-.242.01-.363.017l.03-.263c-.181-.027-.361-.055-.54-.086.223-.21.497-.346.79-.424a5.275 5.275 0 0 1-.682-.365c.101-.179.203-.357.306-.534l-.394-.162c.173-.101.349-.2.525-.296l.113-.288.234.033.088.432.514-.576-.451-.138c.1-.15.2-.299.301-.447a22.859 22.859 0 0 0-.737-.129l.313-.33a8.484 8.484 0 0 1-.138-.226c-.125.04-.252.078-.377.117l.162-.255a5.766 5.766 0 0 1-.481-.513 24.156 24.156 0 0 0-.252-.036c.222-.253.438-.512.661-.764l-.158-.263c.168-.035.337-.07.505-.103l-.007-.228a23.204 23.204 0 0 0-.428-.062l-.026-.321c-.14.15-.277.301-.412.455a26.36 26.36 0 0 0-.53.057l-.125-.284a15.717 15.717 0 0 1-.588-.302l-.044.25c-.117.116-.23.235-.343.355l-.025-.352c-.13.167-.26.334-.394.496.048-.243.105-.484.163-.724-.174 0-.348-.003-.523-.005.067-.31.145-.619.27-.911-.224-.31-.337-.675-.449-1.035l-.294.232.054-.27a39.705 39.705 0 0 1-.558-.17c.223-.204.494-.342.78-.43a1.94 1.94 0 0 1-.733-.444c.292-.14.597-.066.87.076-.008-.271.053-.539.312-.669l.24.094c.216-.094.438-.18.66-.262l.17.224.113-.387c-.375.203-.767.088-1.013-.253.315-.144.645-.253.981-.336l.096-.544c.093.135.188.27.283.405.14-.09.282-.177.425-.263l.051-.28c.145 0 .288.002.433.003l.259.454c-.259-.072-.534-.111-.76.065.166-.014.332-.032.498-.05.132.087.263.176.393.266.121-.16.237-.325.35-.49-.128.077-.255.156-.383.235a3.604 3.604 0 0 1-.092-.831c-.384.186-.771-.036-1.113-.212-.1.121-.198.243-.297.365 0-.057 0-.17.002-.227-.141-.007-.282-.012-.422-.02-.088.342-.258.735-.68.658l-.19.42a46.735 46.735 0 0 1-.008-.499c-.09.098-.181.194-.273.29.054-.245.115-.488.182-.731a8.845 8.845 0 0 1-.741.04c.23-.277.407-.592.486-.946l-.429.2c.121-.155.246-.308.368-.462-.232.053-.464.11-.697.163l.345-.276c-.015-.22-.01-.44.014-.658-.168.066-.336.129-.501.203v-.113l.088-.155c.4-.037.809-.26 1.195-.044-.235.13-.475.25-.71.381.365-.077.7-.246 1.006-.457-.333-.041-.678-.162-.718-.554.334-.029.57.21.8.414.072-.224.143-.45.196-.678.094-.023.19-.045.284-.066-.254-.323-.327-.754-.008-1.064.194.387.095.858.365 1.213.094-.22.192-.44.32-.643.046.143.09.286.134.43.168-.084.337-.17.506-.251l-.085.428c.206-.166.429-.31.663-.43-.12.186-.244.367-.367.551.274-.021.548-.052.821-.083l.134-.41c.134.075.272.144.406.222a4.69 4.69 0 0 1 .114-.005c-.061-.128-.223-.255-.127-.406.217-.438.386-1.105 1.007-.96l-.258-.42-.292.203.09-.359-.228-.064-.041-.379c-.13.679-.85 1.042-1.466 1.166.215-.114.44-.207.665-.298-.162-.06-.324-.12-.485-.183.215-.027.43-.052.645-.08a17.253 17.253 0 0 0-.472-.121c.106-.147.21-.296.312-.446.393-.147.753-.367 1.137-.53a61.352 61.352 0 0 0-.046-.192l-.267.262c-.292-.213-.455-.538-.564-.875.053.369.104.773-.15 1.084-.377-.46-.103-1.013.317-1.319a.82.82 0 0 0-.609.11l.182.258c-.223.284-.559.372-.903.296.118-.136.236-.273.36-.403-.127-.247-.233-.516-.107-.787a6.053 6.053 0 0 1-.69.363c-.044.307-.158.603-.417.79-.018-.437.196-.822.452-1.157-.16.014-.322.026-.483.038.14-.196.318-.358.524-.483a2.279 2.279 0 0 1 .02-.615l.352-.075c.031-.227.067-.455.102-.681.175.118.35.239.524.363.23-.288.511-.543.895-.343-.06.203-.124.403-.191.604.168-.002.338-.002.507 0-.1.151-.2.303-.304.453.156.096.312.193.466.291l-.044-.538.253-.16c.2.019.4.003.598-.023.042-.173.083-.346.127-.518.2.02.399.041.599.064-.263-.12-.515-.267-.715-.48.327-.103.657-.011.972.088-.126-.15-.258-.296-.392-.439.174-.09.35-.18.526-.267a10.02 10.02 0 0 1-.584-.365c.18-.026.359-.047.539-.068-.141-.152-.28-.306-.416-.46-.181.125-.362.249-.55.364.07-.288.224-.542.474-.705a1.506 1.506 0 0 1-.689-.205c.204-.096.41-.182.619-.265l-.35-.203.156-.139c-.115-.09-.229-.18-.342-.271.36.14.744.145 1.11.017a14.355 14.355 0 0 0-.563-.289c-.01-.044-.033-.133-.045-.176l.249-.154a25.015 25.015 0 0 1-.012-.366c-.224.004-.449.004-.673.005.09-.084.182-.167.272-.249l-.017-.23c-.213-.115-.428-.227-.64-.345.173-.098.348-.195.524-.29l-.418-.385.178-.207c-.06-.106-.12-.211-.177-.318.222.034.442.082.66.136l-.003-.215.32.145.328-.337c.227.054.453.112.678.173.108-.178.218-.353.33-.527a43.927 43.927 0 0 1-.067-.288 16.15 16.15 0 0 1-.692-.098c.163-.171.34-.33.521-.48l-.161-.043c-.094.064-.187.13-.28.195-.1-.176-.199-.35-.3-.524a7.256 7.256 0 0 1-.726-.107c.248-.202.54-.336.842-.43a1.601 1.601 0 0 1-.771-.435c.304-.122.617-.054.898.093a28.236 28.236 0 0 1-.004-.477c.13-.07.26-.14.388-.212.052.11.104.217.155.327.194-.073.39-.14.587-.203-.084.304-.27.557-.465.795.264-.166.569-.298.77-.545.196-.3.04-.657-.105-.937.045-.016.134-.046.179-.06l.286.146c.148-.268.292-.54.402-.828l.425.37c.096-.214.198-.428.311-.635.157.253.165.55.137.837.282.045.564.098.835.192-.28.018-.56.026-.839.057.173.076.349.146.525.212l-.193.497.167.327c.312.002.623-.008.936-.01-.02-.063-.055-.19-.073-.254l-.447.077c.283-.275.67-.353 1.05-.332l-.29-.2c.091 0 .182.002.272.003.036-.148.074-.295.113-.442a1.646 1.646 0 0 1-.265-.9c.263.19.402.486.51.783l-.01-.544.513-.291c-.337-.268-.752-.22-1.143-.137.183-.15.378-.283.58-.406a2.93 2.93 0 0 1-.698-.15c.261-.081.534-.122.806-.146a28.47 28.47 0 0 1-.022-.275l.302-.183.325.248-.05-.476c.184.073.368.145.553.213.015.058.03.115.043.172.11.05.222.098.332.147.01-.127.02-.252.032-.379.21.098.42.197.634.29.098.502.622.77.684 1.295.014-.175.026-.349.041-.523.137.14.272.282.407.423.122.01.246.022.37.034.096-.184.197-.367.302-.545.208.208.366.46.47.735.009-.28.079-.553.193-.808l.318.107.122-.272-.307-.068.215-.186a62.153 62.153 0 0 0-.408-.037c.24-.07.484-.163.623-.388l-.253-.228a20.409 20.409 0 0 1-.623-.032c.127-.178.256-.353.39-.525l-.259-.28.015-.27c-.181-.016-.362-.034-.543-.052l-.092-.33.336.038c.093-.275-.1-.482-.263-.676.283-.068.563 0 .816.134a.702.702 0 0 1 .287-.669l.005-.443c.412.17.603.584.85.925l.23-.548c.033.25.065.502.1.753.135-.19.282-.37.451-.53-.08.255-.186.502-.297.745.169-.3.37-.604.718-.707l.088.408c-.112.13-.224.261-.335.394.262.174.573.22.862.089.065.21.156.433.04.645l.151-.013c-.105-.544.155-1.012.53-1.38l.266.283c.144.07.286.142.428.219.045-.13.092-.26.139-.388.172.068.345.134.518.2.114.473.25.94.413 1.4l.183.07c.123-.172.25-.342.373-.513l-.43.034c.181-.176.365-.35.544-.529l-.438.121v-.317l-.277-.223.235-.2c-.132-.304.11-.49.36-.607.009-.064.019-.127.03-.19l.252-.043-.014-.203.24.181c-.024-.2-.044-.4-.058-.602.383.171.577.598.998.705a5.642 5.642 0 0 1-.099-.902c.08.156.154.314.23.472.112-.12.225-.243.339-.363a31.478 31.478 0 0 1-.01-.29l.217-.087c-.04-.154-.081-.309-.118-.464.171.216.337.435.507.65.009-.219.021-.439.04-.658.308.084.624.132.943.149.033-.21.067-.422.102-.632l-.284.34a25.24 25.24 0 0 1-.168-.563c-.193.042-.387.08-.58.117.12-.227.243-.454.36-.684l-.504.105c.014-.458.738-.75.33-1.192.024-.138.048-.276.07-.415l.2.02c.003-.112.008-.223.012-.335l.223.2-.14-.632.42-.038a21.74 21.74 0 0 1-.05-.537c.155.088.31.18.463.273l.376-.08a40.678 40.678 0 0 1-.098-.354c.153-.098.303-.202.45-.31.21.096.382.249.536.418.26-.156.556-.19.832-.05-.03-.184-.057-.368-.08-.552.158.15.31.306.457.466.055-.034.11-.067.164-.102l.136.278c.258-.08.513-.166.775-.233-.15-.288-.133-.604.101-.838.13.212.271.419.437.605.496-.248 1.057-.123 1.583-.232.082-.152.168-.305.264-.45"/>
        <circle cx="43.661" cy="43.661" r="43.661" stroke="#FFF" stroke-width="2"/>
    </g>
</svg>
