<svg xmlns="http://www.w3.org/2000/svg" width="90" height="90" viewBox="0 0 90 90">
    <g fill="none" fill-rule="evenodd" transform="translate(1 1)">
        <path fill="#FFF" d="M21.446 47.963c-.174.116-.377.214-.508.38.127.342 1.002-.42.508-.38m-1.233.107l.108.463.38-.014.042-.437c-.177 0-.354-.003-.53-.012m3.276-1.263a2.34 2.34 0 0 0 .976-.431c-.348.083-.7.189-.976.431m-3.69-.431c-.175.067-.357.177-.448.345.13.308.96-.314.447-.345m16.753-2.988c-.402-.008-.774.15-1.132.314.734.32 1.467.692 2.27.793.045-.45-.352-.658-.66-.881.117-.131.232-.265.345-.398a5.537 5.537 0 0 0-.823.172m2.726-.585c-.179.055-.356.308-.228.482.23.098.536-.442.228-.482m-3.438.18l.527-.12-.056-.628c-.158.249-.316.496-.47.748m.566-1.072c.057.44.29.868.663 1.12-.112-.242-.241-.473-.363-.708.006-.257.089-.588-.3-.412m-12.453-.072c-.073.283-.16.563-.262.838.165.017.332.033.497.054.051-.238.103-.476.157-.715l-.392-.177m10.794.794l-.422.116c.072.205.145.412.22.618a32.79 32.79 0 0 0-.223.242l.445.032c-.04-.075-.122-.222-.162-.295l.613-.116.25-.355c-.052-.193-.104-.387-.154-.58l.351.27c.08-.32.156-.642.216-.967-.564.118-1.121.377-1.134 1.035m-15.64-.477l.206.484.396-.513-.02-.496c-.192.179-.385.353-.582.525m22.954-1.359l-.268-.149a5.19 5.19 0 0 1-.831-.088l-.319.276.533.11c-.233.069-.47.12-.707.173a8.872 8.872 0 0 0-.944-.825l-.217.298a3.79 3.79 0 0 0-.783.385l-.326-.296c-.241.208-.48.42-.715.634l.38.18c-.149.143-.296.288-.444.434l.143.34c.237-.126.48-.236.727-.339.013-.23.03-.46.046-.69.092.199.186.395.281.593l.173-.622c.098.16.196.322.296.482.109-.084.22-.166.33-.25.127.143.257.285.386.428l-.534.03c-.075.223-.149.446-.222.67.283-.032.567-.054.85-.099-.067.204-.13.41-.196.615l.667-.16-.48.447c.027.158.052.317.08.477-.74.335-1.394.917-2.218 1.027-.954-.018-1.817-.497-2.742-.69l-.377.118c-.35-.503-1.094-.248-1.42-.707a.536.536 0 0 0-.427-.05c.146-.144.3-.278.464-.401-.074-.31-.162-.615-.257-.917a7.447 7.447 0 0 0-.9.683c.02.375.033.75.062 1.126.287.013.573.02.86.028-.302.362-.637.82-.397 1.312.463 1.004.576 2.112.9 3.162.435.329.88.646 1.337.945.527-.555 1.145-1.057 1.49-1.754 1.06-.357 1.14-2.018 2.391-1.97l.122.412c1.116-.477 2.583-1.31 2.378-2.741.067-.058.204-.173.27-.231.165.131.328.265.488.4.501-.95 1.279-1.712 1.856-2.614a16.284 16.284 0 0 1-.625-.417c-.186.02-.374.036-.56.055l.06-.463c-.224.209-.444.42-.661.633m-11.843-.743c-.216.73.472 1.276.698 1.913.366-.397.74-.786 1.108-1.182-.118-.178-.231-.357-.35-.533.018.113.05.34.067.453-.478-.293-1.07-.305-1.523-.65m4.749-.979c-.524.83-1.152 1.732-1.124 2.778.312-.25.417-.647.62-.976.048.352.087.707.112 1.063.213-.557.322-1.151.576-1.692.005.253 0 .508-.01.763.174.07.348.135.524.204l.104-.672.34.116c-.026-.33-.052-.66-.066-.991a16.304 16.304 0 0 0-.54-.364c-.13.145-.262.286-.395.426.102-.298.44-.848-.141-.655m-12.61-.202c-.16.186.142.552.343.366.196-.207-.125-.55-.343-.366m1.858-.294c.005.102.01.306.014.407l.378.074c.067-.08.2-.242.265-.324a52.415 52.415 0 0 0-.657-.157m6.429-3.449c-.139.406-.066.8.247 1.103l-.134-.577c.256.025.522.03.75.166l.14-.427a26.18 26.18 0 0 0-1.003-.265m-2.69-.284c.1.275.206.549.324.818-.116.069-.347.209-.463.277.494.197.987-.035 1.43-.251.065.226.127.454.184.685l.247-.017c-.008-.33-.014-.662-.01-.994-.188-.222-.374-.445-.559-.67-.382.06-.768.1-1.152.152m-6.768-.15c.063.007.19.02.252.028.026.205.055.412.087.617.108-.205.212-.413.316-.62-.275-.09-.432-.338-.16-.597-.278.076-.383.335-.495.571m.898-1.34l-.09.417.338.271.175-.509-.423-.179m11.05-2.277c.144.28.297.556.474.817l.311-.319c.268.103.54.192.813.28l.146-.485c-.302-.26-.613-.514-.97-.695a7.94 7.94 0 0 1-.773.402m21.676-1.364l.111.329-.439-.106c.243.54.684.907 1.239.468a70.515 70.515 0 0 1-.341-.308l-.238.452c-.124-.27-.031-.545.083-.798.23.255.554.304.879.288a73.984 73.984 0 0 0-.05-.572c-.405.126-.817.235-1.244.247m-22.21-.17c.18.334.345.68.444 1.047.084-.164.169-.326.255-.488.241.072.485.305.747.175-.07-.396-.488-.564-.744-.828l-.703.094m7.4.155c.647.067 1.025-.447 1.321-.933-.604.056-1.061.396-1.322.933m2.043-1.816c-.24.381-.506.747-.709 1.152l.566-.018c-.372.311-.8.54-1.18.84-.245-.025-.489-.05-.733-.073.013.24.025.48.039.719l.181-.406.294.244c.01.162.02.324.032.488.233-.205.503-.357.776-.503l-.137.647-.453-.047c-.281.667-.929.69-1.462.277-.156.618.428.52.828.45-.56.598-1.447.704-2.161 1.06l-.19.374c.316.176.66.288 1.005.388-.452.215-.877.001-1.201-.325-.095.16-.19.322-.281.482-.201.054-.4.11-.599.17l.19.3c-.07.017-.214.054-.287.074.393.384.798.756 1.18 1.154-.03-.346-.045-.69-.066-1.035.117-.084.237-.165.354-.249l.122.252-.338.259.4.06c-.126.06-.25.123-.376.184.082.086.243.26.323.347l.557-.351c.109-.224.23-.441.357-.653l.27.444c-.076.082-.23.247-.305.33.212-.098.424-.197.632-.303l-.015.259c.185-.074.373-.144.56-.216l.07.337.344-.222-.06.35c.2-.003.401-.002.602.011l.286-.113.174.404c.234-.13.473-.253.716-.368-.082.758-.997.602-1.227 1.254.29-.01.578-.053.812-.236-.05.206-.097.414-.145.621l-.543.157c-.009.202-.016.406-.022.61.262-.078.522-.168.777-.271.086-.354.196-.715.478-.965l-.227.523c.442.105.89.2 1.342.247.06-.295.12-.59.187-.883.057.183.112.366.165.55.042-.056.126-.172.167-.23l-.053-.305c-.166-.033-.33-.063-.495-.094l.224-.225a58.595 58.595 0 0 1-.28-.632c.24.12.478.242.716.366.18-.072.36-.143.543-.209l.091-.467c.155.265.387.453.688.53a24.275 24.275 0 0 0-.298-.512l.526.062-.19.41c.1-.094.304-.28.406-.374-.003.284-.014.578.107.846-.1.178-.197.36-.292.542.193-.128.37-.276.53-.444.076.007.23.024.307.033.443-.603.964-1.214 1.088-1.976.24-1.313.935-2.686.272-3.99-.214.16-.425.323-.637.487a10.399 10.399 0 0 1-.003-.914c-.566.273-1.124.582-1.755.666l-.04-.31c.457-.109.891-.287 1.341-.426l-.286-.421c-.253.114-.503.253-.518.571a2.315 2.315 0 0 1-.646-.524 3.308 3.308 0 0 1-.959-.126l-.211.17c-.073-.058-.216-.178-.287-.236-.452.48-1.105.317-1.69.384-.078-.181-.152-.363-.228-.544.094.016.281.05.375.068v-.272l-.627-.038c.349-.153.712-.269 1.086-.346-.29-.11-.58-.209-.874-.301M40.2 29.032c.664-.122 1.114-.599 1.352-1.208-.767-.071-1.091.629-1.352 1.208m15.361-.978c.462-.094.724-.4.664-.885-.23.288-.455.58-.664.885m.843-1.129c.025.304.05.606.086.91-.1.104-.198.21-.295.315.495-.11 1-.026 1.498-.007.048-.153.095-.305.144-.457-.276-.247-.562-.486-.824-.748-.204-.005-.407-.011-.61-.013m.468-1.888c-.016.25-.038.5-.065.75.396.428.933.694 1.3 1.15.038-.103.075-.205.116-.308.07.2.14.402.212.603.017-.451.057-.9.122-1.349-.614-.17-1.217-.392-1.685-.846m6.2-1.304c-.28.061-.133.475.124.395.271-.05.122-.483-.123-.395m-1.286-.568a41.78 41.78 0 0 1-.164.617c.117.052.237.106.354.16.104-.36.195-.722.264-1.09-.152.103-.304.207-.454.313m-7.477-.292c-.106.369-.214.738-.342 1.101l.153.413c-.83.68-1.335 1.666-1.825 2.6.44-.023.835-.235 1.252-.358-.15.149-.45.446-.6.597.35-.128.665-.328.99-.51.04.078.122.233.164.31.927-.305 1.487-1.088 1.7-2.011-.357-.765-.49-2.016-1.492-2.142m-7.919.45l.324.284c.125-.228.235-.465.326-.709a1.536 1.536 0 0 0-.65.426m-1.464-.3c-.114.16.03.426.224.428.295-.087.015-.61-.224-.427m5.338-.239c-.1.745-.153 1.492-.33 2.225.147-.13.299-.255.45-.382.002.599.123 1.187.407 1.717l.198-.429c1.47-.125 1.895-1.76 2.63-2.778-.016.167-.042.502-.056.669.16-.288.311-.58.459-.873-1.26.052-2.518.146-3.758-.149m-4.328-.39c.267.045.536.085.806.12-.02.089-.057.267-.075.357l.379-.207-.07-.5c-.367.009-.782-.117-1.04.23m15.759-.609a9.466 9.466 0 0 1-.267.901l-.32-.573c-.113.34-.463.832.127.87-.045.181-.088.363-.128.543.34-.215.618-.505.813-.856l.206.15-.084-.802c.277.262.558.525.897.705-.193-.525-.716-.836-1.244-.938m-5.558.867c.17.996.901 1.72 1.47 2.505l.382-.007c.423.393 1.019.423 1.56.496l.182-.404c-.006.096-.02.285-.025.38.418-.028.84-.04 1.26-.003a5.64 5.64 0 0 1-.172-1.018c.246.293.323.67.438 1.025l.238-.348c.319-.201.534-.515.73-.83-.706-.215-1.217-.747-1.681-1.287.034-.12.068-.24.104-.359a41.33 41.33 0 0 0-.429-.022l.264-.237c-.11-.027-.33-.077-.438-.103l.59-.041c-.306-.54-.9-.282-1.39-.282l-.122.206c-.586-.136-1.192-.192-1.785-.052l.014-.432c-.435.213-.812.518-1.19.813m-1.937-.853a10.97 10.97 0 0 1-.476.507c.244.032.488.066.732.103.11-.234.212-.472.306-.713-.188.034-.375.067-.562.103m-.778.01l-.179.377c.26-.027.515-.095.645-.348l-.466-.029m-6.583-4.24l-.16.48c.05.193.094.387.139.582.098-.142.198-.283.299-.423a54.274 54.274 0 0 0-.289-.304c.103-.13.204-.263.307-.397l-.296.062m9.295-6.129c.167-.149.337-.295.506-.442.201.333.475.61.757.875-.003-.172-.006-.518-.008-.692.05.109.154.325.204.432l.206-.127c.299.332.693.55 1.03.838.055-.025.167-.074.222-.1l-.01.452c.263-.279.516-.567.773-.85l.37.12c.046-.086.137-.26.181-.347-.015.236-.032.472-.046.71.133.059.268.118.402.18.057-.017.168-.048.225-.063.052.31.109.62.185.927.206-.183.403-.376.597-.571.23.47-.157.893-.254 1.34.21-.228.386-.484.566-.736-.046.33-.114.658-.193.983.2-.164.397-.33.601-.489l-.042.697c.155-.277.212-.588.26-.896l.111.329c.077-.04.23-.12.308-.158.024.195.043.391.064.588.322-.048.643-.086.962-.152l.393.215c.173-.136.348-.27.53-.395-.19.263-.402.51-.613.755l.542.13c-.19.226-.374.452-.568.672l.303.158c.14-.28.284-.558.448-.826-.005.278-.015.555-.032.833.133.045.267.09.4.137.506.018.7.459.824.888.106-.08.213-.16.32-.238l.396.113c-.09.114-.178.227-.266.342.043.217.09.435.135.65.173-.121.347-.242.526-.358-.127.37-.292.726-.47 1.075l.36.044a24.32 24.32 0 0 0-.169.462c.393.12.794.22 1.202.286-.12.117-.238.236-.356.354a6.403 6.403 0 0 0-.67.243c.179-.026.536-.075.715-.099l-.02.31c-.119.008-.357.021-.476.027.18.067.363.13.546.19a6.31 6.31 0 0 0-.283 1.736c.198.003.396.01.594.023-.074.088-.224.262-.3.348l.42.326c-.237.075-.471.153-.702.238.207.115.417.228.626.346-.715.122-1.276-.43-1.964-.462a2.942 2.942 0 0 0-1.29-.22c-.383-.223-.817-.139-1.222-.043.023.202.044.405.06.609.266-.209.57-.347.916-.315.065.115.132.23.2.344l-.541.21c.181.085.363.171.543.26-.46-.106-.905-.267-1.352-.42l-.217.154c-.002.213-.01.426-.022.639.656.097 1.607-.243 1.7.737.117-.375.165-.764.229-1.15.061.379.112.758.188 1.135.086-.182.17-.366.251-.55l.45-.342c-.105.209-.209.416-.316.623.5.156 1.012.262 1.535.141.067.162.137.325.211.485a22.33 22.33 0 0 0-.081-.707l.28-.053c.022.21.046.418.07.628.133-.133.264-.267.395-.402.307.152.605.333.801.624l.164-.286c.612-.436 1.462-.064 1.239.774.105-.063.213-.125.32-.188l.43.161c-.016.112-.05.335-.068.445.104-.028.31-.086.415-.116l.042.142-.57.265c.202.006.406.01.611.01 0 .497.183.972.518 1.34-.06-.015-.178-.048-.238-.064.091.292.171.588.249.884-.104.094-.207.19-.308.285-.04-.01-.121-.026-.163-.035-.464.582-1.27.492-1.92.404l.2.263c-.114-.006-.345-.015-.46-.02l.104.45c-.231-.236-.474-.465-.764-.63-.591.258-1.202.476-1.73.855.193-.003.58-.006.773-.007a3.175 3.175 0 0 0-.64.235l.715.149c-.619.098-1.193-.177-1.8-.222-.252-.3-.604-.34-.943-.17-1.287.416-2.746-.274-3.878.645-.849-1.102-2.382-1.145-3.37-2.035l-.126.287a23 23 0 0 0-.278-.126c-.094.13-.19.257-.285.387l-.094-.416-.263-.138c-.203.088-.406.171-.61.25-.01.328-.021.655-.091.975.193-.15.391-.296.594-.436a27.03 27.03 0 0 1-.045.488c.067.155.153.301.26.435a13.43 13.43 0 0 0-.756.275l.535.194c.073.112.147.223.222.335l-.376-.235-.305.183c-.403-.064-1.253-.374-1.207.295-.363-.533-.905-1.053-1.603-.855a8.521 8.521 0 0 1-.815.412c.349 1.82-1.23 3.027-2.121 4.385.143.107.286.214.428.323l.097-.588.588.415a8.764 8.764 0 0 0-.287.566 5.63 5.63 0 0 0 .567-.637c.092.093.192.181.288.272a6.3 6.3 0 0 0 .081.551c.207-.23.4-.476.581-.728.037.189.074.38.12.569-.153.11-.303.22-.452.333.222.206.445.413.694.587l.165.277.634-.143c-.356.257-.792.442-1 .856-.435.213-1.02.213-1.304.656l-.314-.06a41.46 41.46 0 0 0-.303.409 6.305 6.305 0 0 0-.687.18c-.233-.067-.465-.131-.694-.201-1.28 1.322-1.333 3.413-2.681 4.694-.856.964-1.257 2.254-2.244 3.125-.874 2.05-2.967 3.226-4.97 3.954-.908 1.264-2.341 2.1-2.99 3.558-.307.972-.326 2.01-.264 3.019 1.484.93 2.607 2.339 3.476 3.828.529.617 1.175 1.125 1.626 1.81 1.09.977 2.437 1.606 3.55 2.552.86.266 1.105 1.173 1.643 1.788.443.577.381 1.354.572 2.026.622.329 1.606.66 1.525 1.529-.098.607.239 1.378-.343 1.809-.054.57-.419.943-.974 1.052-.12-.06-.241-.119-.362-.177.152-.378.45-.798.237-1.21-1.069-.283-1.935.728-2.665 1.378.155.206.305.41.454.62a1.647 1.647 0 0 1-1.042-.5c-.78.153-1.596.45-2.355.044-.177.146-.358.287-.54.427.026-.26.059-.516.093-.774-.854-.134-1.67-.429-2.456-.779-.04.422-.106.85-.005 1.269-.213.342-.408.698-.632 1.034-.438-.31-.904-.6-1.422-.754-.66.175-1.021.944-1.75 1.008-.918.141-1.786.573-2.716.604-.833-.25-1.477-.974-2.378-1.048-1.253-.018-2.453-.545-3.719-.393.106-.064.21-.128.316-.19.701-1.54 1.526-3.612 3.47-3.795.103-.742.56-1.358.746-2.064.036-1.113 1.182-1.603 1.697-2.473-.266-.475-.333-1.016-.447-1.539-.064-.51-.664-.715-.777-1.194.006-.731.477-1.44.201-2.168-1.262-.393-2.642-.285-3.86-.79 1.11-.466 2.37.134 3.417-.482a11.87 11.87 0 0 1-.515-1.087c-1.25-.29-1.162-1.888-.694-2.8.445-.61-.101-1.248-.19-1.882-1.12-.831-1.955-1.979-2.783-3.08-1.342-.053-3.127.64-4.155-.502 1.256.393 2.008-.79 3.053-1.23l-.006-.464c.993.153 1.873-.721 2.856-.349.987.59 1.753 1.473 2.654 2.18.893-.42.567-1.753-.274-2.025a2.375 2.375 0 0 1-1.36-1.322c-.638-.69-.023-1.772-.745-2.412-.042.292-.086.584-.153.87a7.673 7.673 0 0 0-.763-.334c.155.174.32.341.484.508l-.107.259c.104.085.311.254.414.34-.421-.117-.855-.21-1.294-.13l.472.323c-.183.08-.366.162-.55.245.156.268.331.522.511.773-.18.01-.358.021-.537.036-.02-.255-.03-.532-.296-.657.062-.162.12-.327.18-.49-.307-.145-.616-.288-.923-.436l-.216.475c-.088-.25-.185-.495-.284-.741-.326.156-.675.293-.913.579.24-.068.478-.14.715-.217l-.591.431c.181-.025.542-.079.722-.105-.167.11-.332.22-.5.329-.556-.865-1.528-.01-2.226.217.321.179.655.335.97.526-.454.004-.924.017-1.345-.176-.255.03-.51.067-.761.11l.234.322c-.416.013-.755.232-1.07.479-.745.408-1.625.392-2.45.387a9.285 9.285 0 0 0-.679-.478l-.046-.295a23.341 23.341 0 0 1-1.953-1.13c-.106.105-.21.21-.314.316-.192-.451-.631-.648-1.051-.83-.203-.417-.347-.861-.344-1.329.378-.312.79-.626.976-1.098.103-.05.206-.102.309-.15.1-.284.217-.559.355-.824.03.278.048.557.057.838l.158-.058a3.804 3.804 0 0 1-.1-.98c.167.136.33.274.494.413l.006-.575c.231.017.463.032.696.036.13.106.263.211.396.316.023-.3.001-.6-.058-.895l.409-.034a118.41 118.41 0 0 0-.237-.441l.554-.342c.095.17.185.345.274.52.13-.31.262-.617.377-.931l.23.329c-.056.1-.111.205-.166.308.57-.031 1.314-.162 1.408.61.015-.105.045-.315.058-.421.076-.037.226-.113.302-.152-.003-.216-.001-.432 0-.648.37.36.684.773.956 1.212-.113.124-.225.25-.336.375.233.193.466.385.705.57.145-.436.125-.9.186-1.35-.18-.087-.36-.174-.542-.259.04-.278.075-.556.122-.833.1.177.198.354.297.533.101-.197.207-.39.315-.584-.001.348-.023.695-.04 1.042.407-.196.535-.674.812-1 .049.28-.04.536-.18.774.321-.09.644-.164.973-.219a14.63 14.63 0 0 1-.167-.704c.099.122.195.245.29.37.091-.614.566-.586.519.023.132.126.268.25.402.378.236-.134.48-.253.728-.368l.27.246c-.072.27-.142.543-.203.819l.363.205.036.536.281.091c-.183-.724-.284-1.47.083-2.156.207.294.457.55.712.801.26-.323-.043-.561-.277-.78.12-.031.359-.097.48-.13.059.091.18.272.24.362.133-.412.315-.81.632-1.115.05.271.09.544.132.818.306-.304.332-.655.04-.981-.23.062-.46.126-.69.186l-.179.287c-.101-.061-.305-.18-.408-.241-.106.13-.211.257-.315.387l-.44.06c.075-.097.22-.294.295-.394-.432-.116-.783.146-1.154.314-1.993-.035-4.004.169-5.986-.134l.499-.151c-.207-.19-.396-.398-.587-.605.039.182.082.365.118.547-.435-.261-.916-.413-1.407-.516l.094-.266c-.094-.006-.282-.018-.374-.022l-.094-.45c-.16-.015-.323-.027-.483-.04a4.938 4.938 0 0 0-.535-.478l.292-.195c-.203-.232-.494-.22-.774-.201.164-.071.327-.143.491-.216-.241-.177-.476-.36-.712-.545.143-.23.273-.466.387-.71l.51-.183c-.125-.16-.25-.322-.377-.48l.41-.215c-.062-.146-.121-.29-.184-.435l.25-.266c.365.113.74.195 1.121.218l.191-.281c.16.152.325.302.484.457.09-.3.149-.615-.087-.865l.441-.112c.146.313.372.61.33.974a3.44 3.44 0 0 1 .785-.487l-.103-.579.395.348c.046-.195.094-.39.143-.583-.235-.289-.472-.599-.84-.724.032-.052.091-.156.122-.208-.18-.027-.361-.05-.542-.069-.204-.26-.42-.509-.635-.759.128-.2.253-.402.375-.606l.333.08.224-.24-.03-.428c.068-.226.128-.455.187-.685l.216.249.04.399c.202-.098.404-.196.604-.298l.41.33c-.026-.221-.052-.443-.073-.663.118-.139.231-.283.343-.426.094.183.19.365.29.543-.001-.13-.007-.391-.009-.522.22-.133.44-.265.663-.395.132.158.266.313.4.47l-.012-.71.316.342c.237-.087.475-.175.716-.254.153-.21.313-.418.463-.63.095.307.152.66.445.852l-.146-.439.227-.433.15.234c.179-.072.362-.134.543-.198-.016.089-.047.268-.064.357l.489.022c.11-.135.22-.27.332-.405l.22.3-.3.189c.021.055.063.166.083.223-.124.141-.25.283-.371.426l.414.046c.07-.33.16-.655.236-.984.121.022.362.068.483.092.056-.31.128-.616.223-.917 0-.141.003-.283.009-.426-.363-.436-.793-.853-1.414-.625.23-.085.461-.168.686-.265a9.68 9.68 0 0 0-.747-.07c.141-.074.283-.152.422-.23l-.446-.129.482-.128.021.438.208-.304c.03.19.061.383.094.573.42-.323.472-.693-.06-.888-.334-.356-.663-.716-.943-1.117l.001-.433.462-.076.01-.62c.1.056.3.163.4.218.053-.116.108-.232.163-.348l.328.223c.159-.28.32-.56.465-.847.045.077.136.23.18.308.383-.317.757-.648 1.177-.916l.342.27c.149-.008.296-.012.445-.014l.066-.4-.171-.356c.291.19.539.474.89.551.064-.26.123-.521.18-.783.095.179.19.359.283.54.15.09.302.18.452.273l-.001.254.387.105a38.987 38.987 0 0 1-.098-.578c.175-.045.354-.088.531-.131l.249.278.126-.219c.274.094.56.133.849.134-.073.142-.143.285-.213.428.262-.042.524-.091.782-.157-.072.368-.091.743-.12 1.117l.263.013-.097-.658c.184.207.354.428.528.643l-.25.261.606-.079c-.062.09-.187.271-.251.36.13-.035.388-.108.516-.146-.152.163-.304.324-.457.484.16.063.319.125.478.19.164-.282.32-.57.466-.86l.3.102c-.004-.112-.008-.332-.011-.444l.303.329c.067-.07.201-.21.27-.28a50.53 50.53 0 0 0-.134.445c.195.113.387.231.578.353l.476-.126c.04.07.12.206.158.275.174.092.345.192.512.296l.372.042c.061-.12.183-.36.246-.48l.359.5a65.897 65.897 0 0 1-.178-.495l.183-.326.355.095c-.063-.095-.19-.286-.252-.382l.544.162c-.08-.448-.015-.9.032-1.346l.389.22c.056-.114.171-.345.23-.461.024.137.077.41.103.546l.387-.359-.15.536.247.264c.012-.133.036-.396.05-.529l.409-.193c.044.15.09.302.138.452l.25-.1.319.226-.09-.365c.142-.143.282-.288.423-.432.212.07.425.136.64.202.066-.145.133-.29.202-.434.254.164.51.323.762.493.001-.115.004-.346.007-.46l.311.284c.061-.061.182-.182.243-.241.277.155.537.336.776.546-.002-.149 0-.298.003-.448-.486-.536-1.173-.47-1.833-.482.451-.061.907-.073 1.358-.137-.201-.209-.47-.301-.75-.346-.224-.27-.46-.528-.68-.8-.384.026-.783.054-1.064.352a2.137 2.137 0 0 1-.345-.34c.025-.126.035-.252.055-.379.216.426.598.332.944.098a14.49 14.49 0 0 0-1.108-.45c.16.002.482.007.643.008a83.277 83.277 0 0 0-.256-.378c.183-.156.365-.313.55-.467l.047-.355c-.192-.056-.383-.111-.573-.17.085-.032.256-.1.342-.132a31.908 31.908 0 0 1-.186-.612c.185.103.37.209.553.316l-.161-.429.576-.004.138.391c.122-.118.246-.235.371-.35l-.027.673c.115-.144.23-.289.343-.435a31.913 31.913 0 0 0-.292-.437c.235-.08.448-.204.656-.337.11.116.218.234.326.35l.178-.658.391.353.106-.628c.094.126.281.382.375.51.082-.232.03-.463-.045-.687l-.577.011.405-.157-.136-.19c.093-.184.185-.369.277-.555-.065-.146-.196-.437-.26-.583.156.143.31.287.463.436.108-.078.217-.155.329-.23.227-.208.473-.39.725-.568-.058-.488.01-.984.27-1.407.205.122.413.237.62.359.326-.021.653-.033.982-.037-.052-.215-.107-.428-.157-.642.214.083.428.165.644.246-.009-.268-.01-.536-.007-.804.158.226.298.464.435.705-.01-.08-.026-.24-.033-.32.321-.067.33-.375.38-.641l.124.402c.09.014.268.046.358.06l-.161.416c.164-.124.323-.253.484-.381-.028-.155-.055-.31-.076-.465a3.8 3.8 0 0 0 .403.386c.22-.24.454-.466.68-.7l.376.237c.086-.173.176-.345.26-.52 0 .29.017.581.05.871.014-.344.24-.63.266-.97.06.216.115.433.164.652.122-.075.244-.148.369-.22-.067.212-.138.42-.208.63.266-.062.534-.132.799-.205l.16-.32.376.345c.001-.11.004-.329.004-.439l.283.286c-.068-.446.124-.618.527-.463"/>
        <circle cx="43.661" cy="43.661" r="43.661" stroke="#FFF" stroke-width="2"/>
    </g>
</svg>
