<svg xmlns="http://www.w3.org/2000/svg" width="90" height="90" viewBox="0 0 90 90">
    <g fill="none" fill-rule="evenodd" transform="translate(1 1)">
        <path fill="#FFF" d="M67.468 60.908c-.144.185.144.487.327.32.144-.184-.151-.478-.327-.32M14.147 59.59c-.016.124-.03.25-.045.375.152.002.303.005.454.009l-.03-.42c-.126.01-.253.024-.379.036m12.16.078l.361.023c.088-.101.174-.202.262-.3l-.018-.32c-.204.196-.406.395-.606.597m-3.955-.5c-.011.067-.034.202-.044.271.066-.004.2-.01.268-.012l.177-.333c-.133.023-.268.049-.401.074m23.989-.471c.137.161.273.325.408.49l.344.003-.048-.26c-.235-.077-.469-.157-.704-.233m-29.45-.76l.002.345c.36-.042.714-.115 1.063-.209l-.011-.536c-.4-.032-.735.192-1.054.4m-1.338-.42l.047.379c.15-.122.3-.244.45-.364l-.497-.015m52.383-.62l-.326.547.397.044c.036-.19.09-.377.172-.552l-.243-.04m-3.057-.537l.001.361c.28.034.553-.022.823-.095 0 .244 0 .487.002.732l.616-.269c-.002.112-.008.337-.009.45.139.003.278.008.42.015-.015.199-.027.398-.04.6l.446-.306-.022-.23a4.894 4.894 0 0 1-.522-.723l-.639.036-.12-.509a9.688 9.688 0 0 1-.647-.174 29.04 29.04 0 0 0-.309.112m-47.443.058c-.033.125-.065.25-.096.376.42-.045.899.008 1.222-.321l-.273-.395c-.284.114-.567.23-.853.34m36.06-1.163c-.132.184.162.45.304.242.127-.18-.17-.454-.304-.242m3.239.06c.214.262.431.521.65.776.344.019.69.048 1.028.13.033-.37.064-.74.013-1.108-.57.194-1.105.61-1.691.203m-24.23-.208c-.004.237-.002.475.001.713l.273.043.215-.232a30.206 30.206 0 0 1-.489-.524m-13.527-.56c-.007.066-.019.197-.024.264l.38-.059-.018-.237-.338.032m39.44-.41c.103.19.205.382.303.577l.351-.061-.02-.228a14.554 14.554 0 0 1-.278-.296l-.356.008m-7.655.372c.775.177 1.852.04 1.88-.962-.7.086-1.526.283-1.88.962m-4.446.617c.642-.014 1.313.11 1.938-.047.532-.368 1.169-.914 1.043-1.634-1.117.244-2.38.612-2.981 1.68m11.946-1.606l.027.505c.248-.124.5-.245.75-.365-.219-.204-.499-.226-.777-.14m-7.903-.432l-.064.265c.135-.012.27-.024.406-.034l.047-.278c-.13.014-.26.03-.39.047m-4.831-.047c.162.307.3.626.398.96.06-.03.119-.058.178-.084l-.27-.454c.26-.023.523-.033.786-.047l.025-.338a7.683 7.683 0 0 1-1.117-.037m9.987-.223l.002.37c.376-.206.77-.16 1.102.107l.214-.24c.165.114.326.23.49.348-.18.146-.36.29-.542.43l.082.345c.19-.055.377-.113.565-.175.205.062.41.123.62.177a1.98 1.98 0 0 0-.38-1.403c-.362.019-.744-.036-1.068.16-.338-.174-.718-.173-1.085-.119m-25.253-.625c.008.098.023.293.033.391.09-.019.273-.054.366-.072a74.109 74.109 0 0 0-.01-.546l-.39.227m38.854-.832c.003.35.001.701.003 1.054-.316-.002-.631 0-.947-.006.004.22.007.441.008.662.46-.017 1.023.032 1.337-.382.338-.36.245-.875.261-1.324-.222 0-.443-.001-.662-.004m.904-.27l.287.533c.198-.014.397-.029.596-.046-.193-.314-.55-.4-.883-.487m1.745-.974l.008.451.376-.02.016-.414c-.134-.007-.267-.012-.4-.017m-4.492-.085c-.402.368-.254.954-.286 1.436.223-.004.445-.006.668-.008-.001-.35.003-.699.007-1.048.312 0 .624.001.937.005a27.058 27.058 0 0 1 0-.655c-.448.024-.969-.07-1.326.27m-32.244-.851l-.01.327c.162-.021.324-.044.487-.069a18.566 18.566 0 0 0-.477-.258M18.05 46.934c.23.203.538.176.822.186.018-.063.05-.192.067-.255a11.75 11.75 0 0 0-.889.069m-.668.3c.077.012.233.036.31.046l.262-.34c-.105-.143-.208-.286-.311-.429-.231.18-.296.441-.26.723m20.546-1.005c-.007.216-.012.433-.015.65.174-.002.347-.005.521-.009l.07-.332-.261-.429-.315.12m-9.57-.705c-.235.212.244.438.342.181.057-.186-.214-.279-.341-.181m23.366.17c.163.01.325.022.49.034l-.039-.425c-.152.128-.301.258-.45.39m-5.026-.247l.317.122c.126-.155.253-.307.376-.462-.251.067-.475.202-.693.34m-19.535-.342c-.148.195.181.417.312.216.139-.19-.187-.429-.312-.216m9.79-.133l-.016.382.372-.02-.015-.368-.341.006m-21.907-.014c.005.105.013.317.019.421-.114-.006-.34-.02-.453-.029l.062.399c.311-.23.6-.489.878-.759l-.506-.032m40.612.435c.317.016.634.014.952.002a16.855 16.855 0 0 0-.19-.729c-.27.225-.526.467-.762.727m-19.198-.73c.344.084.7.097 1.052.06-.296-.286-.715-.26-1.052-.06m6.618-.057l.061.368-.549-.166c.185.166.374.328.565.49l.017-.452a5.76 5.76 0 0 0 .641-.376c-.246.041-.49.09-.735.136m-4.53-.19c.015.132.032.266.05.4.127.108.252.217.378.328.162-.016.325-.032.488-.05a2.359 2.359 0 0 0-.917-.678m17.191-.089l-.015.41.329-.022-.057-.328-.257-.06m-6.611-.389c-.07.08-.14.159-.207.238-.066.436-.214.851-.292 1.284.4-.218.844-.247 1.284-.156-.247-.155-.493-.311-.74-.463l-.14-.425c.093-.147.189-.293.284-.438l-.19-.04m-5.323.34c.27.1.54.2.818.28a18.63 18.63 0 0 0-.43-.672c-.13.13-.26.26-.388.392m-15.667-.783l-.001.36.444-.228c-.147-.046-.295-.09-.443-.132m7.07-.352c.028.4.307.685.572.955l.36-.002a9.07 9.07 0 0 0-.346-.975 28.64 28.64 0 0 0-.587.022m10.706.226c.212.083.422.167.636.245-.137-.381-.176-.843-.54-1.09-.044.28-.072.562-.096.845m-5.028-.645l-.067.522c.65.157.882.815 1.265 1.282l.269-.038c.064-.387.284-.71.597-.937.24-.045.656.127.681-.241-.258-.193-.59-.167-.894-.19-.227.374-.633.295-.748-.11a7.367 7.367 0 0 1-.594.19c-.066-.164-.132-.327-.195-.488l-.314.01m2.042-.918l.304.373-.064.438c.28.082.562.15.85.188.131-.274.262-.548.396-.822-.325-.576-.988.056-1.486-.177m-17.156-.123c-.01.072-.029.218-.04.29.216-.064.432-.129.649-.186l-.17-.22-.439.116m1.76.064c.131.129.263.256.397.383l.328-.087c.026-.22.051-.44.074-.66-.266.122-.532.245-.799.364m13.816-.918c-.01.078-.027.236-.036.314.324.214.618.47.903.732-.1-.486-.387-.885-.867-1.046m31.726-.1l.016.313.579-.003a18.25 18.25 0 0 0-.173-.598c-.142.095-.283.19-.422.287m-44.047-.48c.097.388.199.774.315 1.155.374.003.736.094 1.093.196a7.47 7.47 0 0 0-.567-1.059 4.721 4.721 0 0 1-.84-.292m-5.006.096l-.024.45.466.008-.044-.465-.398.007m34.538.15c.344.021.69.027 1.035.005a2.989 2.989 0 0 0-.595-.451c-.148.147-.294.296-.44.446m-41.99-.606c.16.201.32.402.478.603.1-.008.197-.013.295-.02a47.272 47.272 0 0 0-.315-.635l-.457.052m40.637-.405c.031.202.07.404.113.605l.36.035-.024-.659a51.02 51.02 0 0 0-.45.019m-27.618.19c.269.024.538.028.808.024l-.037-.423c-.266.116-.533.233-.77.4m-1.31-.473c.089.183.184.363.28.543.178-.106.359-.207.54-.305l-.054-.426c-.257.06-.512.127-.767.188m16.888-.062l-.009.308c.234.003.47.007.706.013.153-.182.308-.364.46-.548-.404-.057-.793.06-1.157.227m11.778-1.015l-.05.285.36-.045.032-.263-.342.023m-.913 1.313c.29.009.58.02.87.025l-.049-.489c-.477-.054-.678-.392-.577-.843l.53-.037c-.148-.131-.298-.26-.442-.394-.406.497-.38 1.133-.332 1.738m-1.499-1.986c-.069.674.5 1.387 1.195 1.39-.078-.475-.238-.928-.416-1.373-.26-.014-.52-.02-.779-.017m3.247-.145l-.062.312c.222-.076.443-.152.664-.233-.2-.033-.401-.058-.602-.08M15.97 36.73c-.147.26.378.342.404.089-.022-.182-.3-.221-.404-.089m11.563-.386c-.159.19.182.446.346.288.146-.202-.174-.454-.346-.288m-.807-.51c.085.33.43.713.06.994l-.023.311.248-.106c.115-.21.239-.417.372-.617-.218-.195-.43-.397-.657-.582m29.51.184c.212-.054.484-.075.53-.344-.213.052-.487.071-.53.344m-41.566-.39c.246.13.52.119.76-.019a2.652 2.652 0 0 0-.76.019m2.992.128a37.78 37.78 0 0 0-.459-.237 41.6 41.6 0 0 0-.092.433c.345.1.687.21 1.026.335.04-.142.08-.285.117-.426.148.097.294.198.438.301.054-.235.175-.444.327-.63a51.341 51.341 0 0 1-.894-.204l-.463.428m16.123-.982c-.218.13.05.437.233.302.211-.138-.048-.438-.233-.302m7.934-2.357c.001.07.006.209.008.279.124.172.246.347.362.527-.45-.096-.908-.182-1.371-.129l-.03.313c.088.214.16.435.21.663a2.865 2.865 0 0 1-.746-.252c-.053.417-.1.84-.262 1.231.655.782 1.486 1.542 2.503 1.763l.037-.71c.299.007.587.084.855.215a2.17 2.17 0 0 1 .697-.503l.037-.31c-.513.143-.868-.194-1.225-.5.058-.094.117-.188.178-.28-.272-.461-.132-1.005-.137-1.51-.172 0-.344 0-.516-.003-.06-.264-.127-.526-.192-.788l-.408-.006m-4.75.442c.116.063.23.128.345.194l-.068.4-.529.036.014.627c.394.102.789.197 1.184.297a7.75 7.75 0 0 0-.197.668c.497.052.99-.054 1.487-.04.695-.622.323-1.576.475-2.377l-.358.001c-.344-1.175-2.036-.806-2.352.194m13.078-.23c.054.138.108.276.165.414-.062.099-.123.2-.184.301l-.39.044.089.339.54.037-.065.472c-.19.039-.381.076-.57.113l.231.278-.01.316c-.283.004-.568.01-.85.03.255.185.515.362.774.542.036-.08.106-.242.14-.324l.318-.062c0-.104.004-.313.005-.417.579.05 1.206.181 1.76-.055l-.361-.39.037-.234.5-.03.155-.689a3.234 3.234 0 0 1-.706-.696c.258-.24.49-.507.659-.818-.906-.548-1.517.455-2.237.83m-9.301-1.01c-.226.21-.45.42-.672.635l.32.03.217-.247c.24-.012.48-.025.72-.042-.195-.126-.392-.25-.585-.376m6.416-.778c-.207.259.078.522.193.754.212-.224.44-.447.54-.748-.245-.013-.49-.033-.733-.006m19.16-.169c-.217.065-.18.514.083.395.23-.07.19-.5-.083-.395m-16.9-.244c.048.266.226.544.09.814-.3.007-.488-.284-.72-.432-.169.187-.337.373-.502.563.258-.003.515-.008.775-.014.097.433-.265.65-.594.821.008.22.018.44.032.66.809.047 1.495-.528 1.95-1.143.128.017.255.036.384.055.147-.128.295-.255.445-.38l-.088-.326c-.149.198-.292.403-.424.615-.23-.376-.118-.828-.119-1.243-.411.007-.82-.009-1.23.01m-1.303-2.478a17.74 17.74 0 0 0-.01.46c.177-.145.337-.31.474-.492-.156.01-.31.02-.464.032m-17.083-.874c.044.196.09.392.138.588l.28.03c.004-.086.01-.26.015-.346-.144-.092-.287-.183-.433-.272m-2.785-1.669a33.34 33.34 0 0 0-.363-.028l-.031.285c.202.004.404.012.605.032.192-.073.384-.146.577-.216-.151-.12-.302-.24-.45-.363a23.06 23.06 0 0 0-.338.29m4.134-1.188c-.016.083-.05.25-.065.333.226.33.504.625.866.802 0-.403-.14-.783-.305-1.146l-.496.01m1.756-.377l-.085.262.432-.02c.006-.077.015-.23.019-.306-.122.02-.245.043-.366.064m-2.528-.913l-.077.412.26-.066c.07-.146.143-.29.216-.436l-.4.09m6.17-1.981c-.016.168-.03.337-.047.507.12-.073.242-.145.365-.216l-.012-.355-.305.064m-3.304-.614l.012.37.47-.337c-.16-.012-.322-.023-.482-.033m6.973-.09l.051.61c.098-.19.196-.381.295-.57l-.346-.04m3.232-.113c-.013.12-.025.241-.036.361l.285.007.013-.412-.262.044m-10.892-1.174c.027.355.157.688.3 1.011l.279-.009a2.373 2.373 0 0 1-.308-1.03c-.068.007-.204.02-.271.028m9.445-.254c-.117.592-.034 1.178.288 1.69l.403-.19a83.922 83.922 0 0 1-.312-.41c-.003-.104-.005-.313-.007-.418l.322-.21a18.573 18.573 0 0 0-.694-.462m8.272-.982l-.251.26.027.349c.308-.044.594-.21.532-.564-.077-.01-.232-.035-.308-.045m-4.386-1.186l.028.245c.107.05.214.1.321.152l.129-.36-.478-.037m7.735-1.574c-.06.11-.118.22-.176.331l.414.23.033-.577-.271.016M41.234 71.606c.337-.841.93-1.567 1.146-2.457.481-2.081.488-4.228.397-6.35-.122-1.135-.036-2.31-.47-3.39-.226-.543-.483-1.24-1.133-1.368-.127.59-.543 1.02-1.008 1.371-.22-.47.01-.87.333-1.207-.563.05-1.01.4-1.456.711l.173.492-.514.025a41.535 41.535 0 0 1-.29-.436c-.149.026-.3.054-.449.083-.096.253-.196.507-.296.76-.225.043-.448.086-.674.124a5.347 5.347 0 0 1-.015-1.028c.164-.021.328-.044.49-.064.097-.234.198-.464.3-.695-.494.048-.958.22-1.356.513a11.435 11.435 0 0 0-.845-.531l-.02-.43c.264-.115.528-.23.796-.335a551.91 551.91 0 0 0-.035-.426c-.288.185-.57.38-.852.575l-.378-.558c-.375.078-.724.243-1.098.324-.252-.255-.17-.627-.182-.949-.609-.08-1.196.166-1.458.744l-.656.073a5.522 5.522 0 0 1-.51 1.535c.163.638.915 1.263.66 1.92-.512-.047-.895-.522-1.445-.443-.115.55-.284 1.164-.793 1.479-.287.042-.475-.269-.701-.4.28-.57.547-1.158.976-1.635.014-.21.025-.42.037-.63l-.314.012c-.166.359-.342.712-.513 1.068-.148.053-.296.108-.443.162.032.733.11 1.66-.666 2.05l-.398-.442c-.27.18-.567.39-.907.253.265-.495.397-1.052.042-1.54l-.208.094c-.171.268-.312.58-.589.758-.649-.102-1.064-.885-.68-1.466a46.686 46.686 0 0 1-.604-.385c-.198.154-.397.306-.598.457-.21-.33-.267-.714-.271-1.097l-.39-.203c.185.593.142 1.22-.446 1.562-.186-.232-.37-.465-.56-.695a3.233 3.233 0 0 0-.347 1.562l-.225.255-.292.01-.285-.646-.622-.044c-.23.675-.418 1.388-.937 1.91l-.41-.298c.01-.159.022-.316.034-.472a8.327 8.327 0 0 1-.441-.785c-.409.35-.95.312-1.45.362-.594.134-.878.736-1.21 1.184a28.5 28.5 0 0 1-.787-.54c-.295.264-.638.465-1.042.307.019-.306.041-.612.068-.916-.33.263-.753.456-1.05.028.165-.134.332-.265.5-.396a34.493 34.493 0 0 1-.278-.478l-.47.278-.455-.432c.009-.409.014-.816.008-1.223l.388-.292c0-.287.002-.573.006-.858.212-.002.427-.005.64-.005.539-.602.077-1.212-.334-1.72.021.617-.293 1.38-1.016 1.376.15-.376.322-.743.482-1.113a76.098 76.098 0 0 0-.37-.309l.102-.406c.25.041.5.085.748.134-.003-.11-.003-.22-.004-.329-.531-.027-1.239.158-1.441-.503.188-.058.376-.115.563-.17l-.038-.375c-.295.152-.588.307-.883.458-.405-.323-.566-.854.115-.918-.01-.486-.089-1.025.226-1.44.445-.072.694.394 1.04.584.249-.074.411-.293.602-.455l-.362-.47c.292-.117.583-.235.872-.357-.31-.368-.608-.757-.741-1.226.152-.033.305-.065.458-.096l.199.402c.68-.09 1.092.455 1.578.81.693.195 1.417.282 2.123.429.765.016 1.464.527 2.235.266-.114.29-.234.578-.361.863.13-.138.259-.277.389-.413l.078.596c.173.01.347.022.522.034l.325-.594c-.041-.19-.08-.381-.119-.572l.434-.35a188.98 188.98 0 0 1-.011-.86c.14-.157.28-.312.422-.468a19.965 19.965 0 0 1-.072-.3c-.236.237-.473.476-.714.71a1.739 1.739 0 0 1-.278-1.31c-.44.51-1.12.465-1.732.464.279.404.579.794.84 1.213.197-.079.397-.157.595-.235.294.175.51.436.635.753-.271.196-.54.394-.808.593-.494-.632-1.236-1.008-1.68-1.69.022-.172.046-.343.069-.513a74.557 74.557 0 0 0-.326-.323c.11-.188.218-.376.326-.566-.502.006-.985-.13-1.315-.529.219-.147.44-.29.661-.429a18.497 18.497 0 0 0-.033-1.012c-.698-.033-1.546.31-1.981-.449a68.37 68.37 0 0 0-.482-.06c-.117.235-.238.47-.36.705-.192-.106-.384-.21-.577-.313.126-.22.25-.44.374-.66-.4-.019-.801-.037-1.199-.082l-.058-.34c.157-.043.313-.084.47-.125a3.742 3.742 0 0 0-.2-1.057 7.302 7.302 0 0 1-1.102.008c.303-.226.616-.439.922-.66l.35.225-.044-.434c-.264.03-.567.168-.787-.054.083-.525.651-.743.94-1.144l.56-.038c-.008-.486-.145-.95-.325-1.396.505-.25 1.13-.52 1.245-1.141-.127-.307-.425-.506-.646-.747a7.826 7.826 0 0 1-.992-.119l.224-.712c-.326.074-.65.155-.976.226l.012-.66a5.643 5.643 0 0 0 1.577-.811 13.524 13.524 0 0 1-.01-.803c-.162-.014-.322-.029-.482-.045l-.227-.655a13.564 13.564 0 0 1-1.04-.24l.084-.595.588.221c.307-.339.597-.69.88-1.05.395.208.783.428 1.173.648-.149-.348-.268-.73.057-1.015.451.422.95.795 1.534 1.01.186-.32.38-.632.575-.946-.706.131-1.428-.305-1.313-1.093a3.154 3.154 0 0 1-1.1.343l-.224-.686c.216-.22.434-.438.654-.655-.22-.386-.677-.736-.602-1.223.192-.224.454-.37.685-.548-.36-.44-.9-.13-1.354-.082-.06-.235-.119-.471-.175-.708.226-.057.452-.11.68-.16-.284-.471-.317-1.138.238-1.419.706.12.98.88 1.408 1.362l.152-.184c.018-.412.25-.748.544-1.02.01-.194.018-.388.025-.583.287.285.657.406 1.055.302.26-.77.584-1.798-.085-2.446l-.062-.234c.422-.015.887.018 1.231-.276-.127-.323-.292-.634-.308-.987.292.161.58.332.875.492.515-.573 1.087-.099 1.492.327.165-.17.33-.339.497-.508l-.3-.618.593-.036c.056-.071.165-.214.22-.286-.25-.304-.49-.615-.72-.934.12-.14.24-.277.361-.414.104.148.208.297.31.448.325.082.648.176.968.277a1.913 1.913 0 0 1 1.105-.283c.172.251.347.501.518.753.157-.028.315-.056.472-.082l.24.423c.556-.073.942.307 1.258.708.488-.127.988-.46 1.502-.28.23.23.115.582.14.87.336.304.776.396 1.216.418l.326.67c.272-.283.561-.546.863-.795l-.56.14.07-.54c-.383-.225-.767-.506-.748-.999a7.19 7.19 0 0 0 1.114-.284l.05-.285-.45-.15a2.72 2.72 0 0 0-.004-1.596c-.573-.096-1.127.084-1.495.544l-.554-.05a44.093 44.093 0 0 0-.188-.44c.988-.267 1.22-1.547.412-2.158-.491.238-1.06.345-1.53-.002.192-.557.447-1.1.501-1.695.297-.11.598-.215.9-.312a33.475 33.475 0 0 1-.037-.732c.856.225 1.653-.17 2.491-.138l.161-.338c.573.011 1.155-.02 1.711.142.106.473.163.954.165 1.437.3.153.56.366.788.608l.45-.065c.33.581.924 1.095 1.53.514a6.32 6.32 0 0 1-.283-1.03c.695.357 1.37.754 2.034 1.166.517.34.347 1.031.365 1.549.647-.11.985-.605.79-1.245.606.237 1.24.509 1.909.364-.204-.2-.413-.394-.623-.587l.053-.236a3.71 3.71 0 0 0 .818-.87 46.4 46.4 0 0 0 .28-.125c.37.554 1.013.585 1.619.553.02-.198.04-.397.062-.596.812.04 1.658.072 2.341.57a11.417 11.417 0 0 0-.365-.596l.012-.491a12.249 12.249 0 0 0-1.032-.686 3.79 3.79 0 0 0 .766-.876c.246-.01.49-.021.737-.04-.25-.22-.538-.385-.83-.541.128-.716.73-.925 1.384-.728-.01-.188-.017-.375-.025-.562l.32-.257c.5.271 1.018.515 1.499.82.166-.156.336-.31.506-.464.222.132.444.266.668.398.427-.378.952-.406 1.43-.102.252-.066.505-.124.762-.174-.012.209-.024.417-.034.626.412.13 1.062.058 1.166.603-.726-.065-1.333.354-2.002.543l-.058.335c.154-.104.31-.207.468-.31l.345.158c-.007.231-.016.461-.03.692.342.44.834.372 1.258.086-.172-.323-.447-.613-.5-.986.127-.278.447-.387.683-.555-.068-.288-.12-.58-.162-.873.385-.224.758-.026 1.087.191-.008-.313 0-.627.02-.94.333.05.424.325.48.61.2-.045.4-.09.603-.134a63.559 63.559 0 0 1-.055-.498l.62-.266c.33.164.665.315 1.01.448.05.153.098.307.149.46.253.1.506.204.758.309l-.15.694.425.506c.42-.032.837-.102 1.249-.197-.51-.201-1.286-.884-.83-1.45.276.26.512.56.785.825.218-.09.44-.179.68-.18-.05.34-.16.666-.256.994.07-.022.21-.069.282-.091.145-.358.314-.703.498-1.042l.403.065c.03.212.062.424.094.637l.278-.028a51.042 51.042 0 0 1-.015-1.006l.645-.172c.05.247.1.494.152.74.564.078 1.08.362 1.137.982-.376.094-.755.179-1.129.276.166.323.344.64.544.943l.36-.041c.035.296.098.589.167.88.537-.11 1.162-.663 1.514.034-.296.018-.592.023-.887.027l-.01.633c-.388.21-.78.415-1.183.594-.004.274-.01.548-.018.82.424-.112.842-.248 1.261-.38-.115.313-.237.624-.362.932l.312.311.428-.013c-.006.215-.01.429-.014.643-.23.088-.46.175-.69.265l.678.06c.02.4.029.8.02 1.2.632.444.547 1.35 1.098 1.892l-.544.075-.538-.315c-.116.201-.23.404-.342.606.79.649 1.878.712 2.658 1.356-.16.064-.479.195-.637.262.206.051.417.074.63.1.218.372.26.804.303 1.225.242-.12.483-.243.724-.363.543.352 1.124.666 1.785.696.091.266.18.532.26.802l.46.14-.092.368c-.568.004-1.147.012-1.685-.202.18.392.347.79.477 1.203-.26.258-.524.514-.797.757a3.136 3.136 0 0 0-1.136-.2 20.499 20.499 0 0 1-.509-.758c-.279.09-.56.172-.84.254.01.136.02.273.032.41.28-.075.723-.339.891.05.3.36.086.842.16 1.263.156-.176.31-.354.464-.533.086.057.258.17.344.225-.06.226-.122.451-.18.679.097.02.288.06.384.082.398-.668.993-1.67 1.905-1.104.57-.359.806-1.035 1.307-1.474l.312.07c-.06.26-.13.517-.197.775.201.125.405.248.608.37l.667-.278c.28.112.563.22.846.328.01.16.022.319.037.48-.266.043-.53.09-.795.133a31.3 31.3 0 0 0-.19.597c.583.374 1.163.793 1.446 1.453-.448.343-.985.524-1.48.777-.413.377.06.928.117 1.367l.333.179c-.095.585-.241 1.194-.785 1.525.025.37.025.742.013 1.113l.501.026.659-.68c.633.103 1.125-.294 1.564-.688.107.094.214.189.324.283-.23.409-.304.87-.328 1.333l.456-.044c.093.109.186.216.282.324.437-.07.867.03 1.25.248.479-.49 1.185-.357 1.753-.653l.275.151c.028.444.094.882.142 1.324l.336.148c-.016.1-.05.302-.065.402a7.718 7.718 0 0 1-1.153-.198l.344.4c.236.006.473.009.711.014l-.06.512-.768.004.004.392c.605-.353 1.137.035 1.564.465-.002.234-.004.47-.002.707-.294.101-.589.198-.88.297.313.732 1.251 1.58.39 2.293-.504-.41-.855-.961-1.253-1.463-.334.086-.663.188-.989.305.135.4.603.867.135 1.22-.43-.175-.888-.106-1.33-.03.037.492-.067.971-.164 1.448-.141.604.362 1.057.692 1.493-.229.223-.462.443-.701.656.025.335.032.671.022 1.009a2.505 2.505 0 0 1-.949-.309c.056.335.052.678-.09.994l-.399-.272-.025-.354-.537.109.027.558-.46.23c.185.192.371.382.56.571-.19.19-.386.377-.579.565.333-.006.724-.104.955.216.27.134.54.265.81.4.303-.25.608-.498.919-.739.215.273.423.552.624.838.272-.144.537-.3.798-.46.344.043.688.08 1.033.103l.402.483c-.378.382-.81.708-1.281.965.19.483.45.934.73 1.37-.137.125-.27.252-.404.38l.564-.062.407.38a37.08 37.08 0 0 0-.092.41 4.791 4.791 0 0 1-.859-.222c-.104.156-.21.313-.312.47-.243-.086-.485-.172-.73-.251.08.2.164.398.25.597-.203.105-.408.207-.613.308-.17-.286-.337-.573-.5-.862l-.394.456a97.82 97.82 0 0 1-.64-.039l-.06-.622a42.002 42.002 0 0 0-.356-.07c.001.173.004.35.009.524-.387.213-.763.444-1.156.645a57.232 57.232 0 0 1-.32-.535c-.388.01-.776.049-1.143.177a18.636 18.636 0 0 1-1.37-.58c-.32.193-.649.367-.983.533.277.515 1.078.557 1.089 1.228l-.595.001c-.106.179-.21.358-.315.538-.287.014-.573.03-.858.058.33.408.856.49 1.349.507l-.048.262c-.529.16-.872.556-.98 1.097.196.228.471.414.584.704-.148.179-.319.337-.483.5-.475-.439-.875-1.003-.91-1.668-.13.398-.416.721-.856.749-.056-.225-.111-.449-.163-.674-.387.274-.793.168-1.08-.192-.178-.008-.356-.016-.533-.022-.61-.82-1.495-1.288-2.31-1.863a7.626 7.626 0 0 0-.154.207l.308.314c-.019.13-.036.262-.053.393-.928-.082-1.815.896-2.606.01-.173.13-.345.262-.517.395-.41-.272-.878-.47-1.225-.828.072-.708.64-1.236 1.154-1.674l-.645.048-.069-.347c.213-.266.42-.536.621-.811-.158-.041-.318-.08-.476-.12-.714-.914-1.977-.341-2.88-.733-.003.287-.01.573-.019.86-.494-.213-.873-.645-1.42-.737-.248.469-.65.837-1.16 1a51.408 51.408 0 0 1-.276-.535c.085-.287.142-.582.167-.88-.461.205-.922.13-1.263-.253-.218.274-.447.539-.678.802l-.346-.062c.029-.495-.044-.99-.324-1.409-.51.458-.828 1.115-1.432 1.466-.88-.03.632-1.284-.432-1.259l.191.568-.329.086c-.117.184-.238.365-.36.545l.26.36c.22.03.441.064.662.098-.275.393-.79.665-.896 1.142.354.344.91.142 1.354.215-.248.444-.718.658-1.147.884.234.147.484.27.753.345l.175.297-.663.24-.242.57c-.44-.1-.868-.258-1.226-.539l-.324-.008c-.009.215-.016.43-.022.647a50.3 50.3 0 0 0-.742.41c.03 2.771.352 5.535.785 8.27.245.882.776 1.648 1.322 2.368"/>
        <circle cx="43.661" cy="43.661" r="43.661" stroke="#FFF" stroke-width="2"/>
    </g>
</svg>
