<svg xmlns="http://www.w3.org/2000/svg" width="90" height="90" viewBox="0 0 90 90">
    <g fill="none" fill-rule="evenodd" transform="translate(1 1)">
        <path fill="#FFF" d="M54.689 59.3l.545.063c-.019-.109-.06-.328-.078-.437-.157.124-.313.249-.467.375m-1.453-3.205c.173.49.177 1.226.84 1.272.1-.174.205-.349.31-.521-.541.07-.83-.415-1.15-.751m.332-.329c.224.197.456.385.69.569l-.055.299c.557.02 1.073.23 1.587.431-.657-.54-1.346-1.183-2.222-1.299m-1.61-.288c.273.066.55.128.826.195l.025-.25c-.285.015-.568.03-.852.055m-12.036-.985c-.056.43-.114.86-.143 1.294.127-.203.252-.407.375-.61.089.12.18.24.268.364.037-.156.076-.312.115-.466-.202-.2-.405-.396-.615-.582m15.948.197c-.08-.017-.24-.054-.32-.073-.099.213-.202.424-.306.636l-.249-.497c-.355.168-.716.327-1.08.478.72.4 1.203 1.172 2.025 1.383l.033-.545.322.025-.155-.293c.294-.019.587-.055.88-.097a80.68 80.68 0 0 1-.05-.584l-.48-.015c.01-.519-.184-.757-.62-.418m-1.475-.28c.127.137.438.073.466-.125-.02-.35-.609-.179-.466.125m-32.058-.187c.038.058.11.176.148.235.08.033.238.102.318.136.16-.105.32-.207.483-.307l-.164-.101a8.25 8.25 0 0 1-.785.037m29.364.408c.777.106 1.578.405 2.347.087-.008-.29-.005-.582-.015-.872l-.82.198c.116-.424.433-.679.871-.679l-.084-.305c-.698.629-1.643.89-2.299 1.571m-31.018-1.554c-.006.098-.021.294-.03.39.185 0 .368-.004.554-.005-.008-.176-.014-.35-.02-.525l.797.383c-.3-.573-.84-.578-1.3-.243m13.071.17a9.985 9.985 0 0 0 1.46-.58c-.553-.042-1.131.099-1.46.58m30.553-.696c-.21.15-.005.577.238.397.218-.145-.006-.57-.238-.397m-16.805-.63c.142 1.117 0 2.255.215 3.363 1.144-.007 2.272-.779 3.066-1.576-.333-.022-.668-.028-1-.038.139-.205.285-.406.438-.6l-.386-.244c-.137.368-.416.69-.843.56l-.285.322c-.064-.08-.194-.239-.26-.318-.226.086-.453.171-.68.254.053-.374.068-.755.194-1.114a44.459 44.459 0 0 0-.46-.609m-24.431.47c-.32-.032-.637-.079-.953-.138.177.3.294.63.387.964.164-.059.326-.118.49-.174.127.1.256.2.386.3-.04-.498-.136-.993-.095-1.496l-.215.543m15.059-.62c.283.19.503.452.612.778l.422.183a12.25 12.25 0 0 1-.072-.827c-.32-.051-.643-.088-.962-.134m3.938-.205l.212.483c-.066.211-.126.425-.184.64l-.287.141-.138.455a3.178 3.178 0 0 1-.525-.898c-.603 1.012.326 1.764 1.145 2.202.33-1.036.356-2.137.21-3.207-.11.045-.324.137-.433.184M15.52 50.55l-.204.36c-.223.082-.444.166-.667.252l.583.29.304-.102c.21.089.422.173.633.257.128-.206.259-.407.394-.604-.372-.09-.736-.217-1.043-.453m46.533.462c-.204-.033-.408-.065-.61-.095l.043.332.352.21.414-.132c-.014.11-.04.334-.052.445l.552-.13c-.007.104-.023.31-.032.412-.578.215-.296.722.08.998-.203-.875.634-1.345 1.387-1.244-.338-.23-.737-.098-1.112-.095l.333-.31c.04-.285.093-.567.148-.849-.19.048-.38.097-.568.147l-.309-.18-.32.41c-.111-.213-.222-.427-.33-.64 0 .24.012.481.024.721m-43.521-.598l.207.444a34.882 34.882 0 0 0-.804-.064c.069.452.516.526.89.463l-.03.457c.19-.087.382-.17.573-.253-.168.576-.724.971-.054 1.505-.103-.856.608-1.384 1.4-1.283l-.33-.277c-.094.076-.28.23-.373.307l-.324-.238.288-.203c.046-.29.098-.578.151-.866l-.568.176-.316-.17c-.23.525-.517.13-.617-.218l-.093.22m15.694-.221l-.388-.413c-.048.206-.1.411-.15.615a24.447 24.447 0 0 0-.627-.344c.097.139.196.277.3.413-.01.202-.016.405-.018.607.402-.075.824-.028 1.145.248.162-.32.34-.628.574-.899-.12-.319-.252-.63-.389-.94-.241.176-.377.43-.447.713m-2.82-.601c.047.27.093.54.142.811-.284.254-.603.46-.93.651-.04-.202-.075-.405-.11-.606-.198.16-.396.316-.599.469a58.58 58.58 0 0 0-.514-.406c.302-.215.619-.413.975-.524-.246-.039-.49-.085-.732-.14-.197.114-.398.223-.6.333a6.66 6.66 0 0 0-.807-.045l.25-.682c-.657.18-.856 1.016-1.6.998.05.234.085.47.122.706.626-.207 1.259.003 1.87.154a35.05 35.05 0 0 0-.108.382c.274-.094.55-.189.817-.298.01.123.027.37.035.495.048-.176.095-.35.14-.524.202.213.417.414.646.6l-.051.426.493-.13c-.1-.191-.198-.383-.296-.573.25-.137.49-.292.715-.468.145.025.291.051.436.08l.36-.325.296.15c.012-.098.037-.295.051-.393.206-.112.408-.23.61-.35a3.022 3.022 0 0 1-.94-.35l-.464.116c.126-.31.262-.613.408-.912-.204.118-.41.238-.615.355m16.663 1.244c.08-.285.155-.571.227-.858l.36-.084c.057-.11.174-.33.233-.44l.296.568c.025-.326.04-.654.05-.981-.607.358-1.825.959-1.166 1.795m-13.025-2.661l.173.577c.376-.34.872-.319 1.343-.303-.362-.15-.728-.29-1.07-.483l-.446.209m6.462-.712l-.11.56c.093.131.187.262.28.395.123-.116.248-.23.374-.343a63.928 63.928 0 0 1-.544-.612m-4.68-.107c-.079.194-.161.387-.245.58l.472.002c.018-.067.057-.2.076-.266-.101-.106-.203-.21-.302-.316m10.35-.226l-.015.41c.133.12.265.242.398.365l-.477.13c.026.685.618 1.016 1.123.478-.209-.162-.416-.323-.622-.486.282-.12.566-.237.841-.37-.278-.021-.556-.04-.833-.055a29.075 29.075 0 0 1-.416-.472m-7.588-.854l-.044.284c.234.048.467.101.701.155l-.27.317-.49-.237c.095.124.196.25.296.374.196-.046.395-.086.595-.12l.236.4.296-.473a32.375 32.375 0 0 0-1.32-.7m2.66-.183c-.123.16-.391.323-.334.552.28.2.723-.615.334-.552m-3.462-.131c-.254.381-.64.604-1.093.665.138.05.278.1.417.154.184-.125.355-.298.595-.284-.036.198-.204.324-.326.472a8.34 8.34 0 0 1 1.006-.051c-.227-.142-.55-.25-.554-.57l.399-.347c-.148-.013-.296-.025-.444-.04m13.626-.418l.523.171c.058.143.119.287.18.43-.002-.248-.005-.495-.005-.743-.234.045-.468.092-.698.142m10.12-.64l.016.366c.343.124.858.265.676.749.416-.18.865-.11 1.294-.024.066-.272.139-.543.21-.812-.31-.053-.643-.102-.912.109l-.487-.018c-.259-.14-.528-.255-.798-.37m-9.943.227c.366.011.73.048 1.096.089a40.034 40.034 0 0 1-.261-.326 40.832 40.832 0 0 1-.759-.012 15.2 15.2 0 0 0-.076.25m-17.079-1.029c.01.232.027.464.045.695l.394.248c-.138-.318-.272-.637-.439-.943m29.335-.278c.246.213.498.425.796.566a38.195 38.195 0 0 0-.128-.451c-.223-.04-.447-.076-.668-.115m-25.18-.088c-.244.172.14.712.393.61.035-.242-.195-.5-.393-.61m1.604-.182c.005.256-.008.513-.157.732l-.223-.688-.1.53c-.202.132-.4.267-.598.406.265.347.63.592 1.044.73-.04.062-.119.185-.157.248.233-.008.467-.014.7-.019.003-.076.007-.229.008-.305.204-.02.41-.048.61-.094-.482-.213-1.111-.238-1.423-.722.42-.048.463-.464.598-.777l-.302-.04m-5.734-.125c-.003.098-.01.294-.015.394.037.057.11.176.146.235l.378-.013a8.02 8.02 0 0 1 .695-.16c-.151-.162-.3-.326-.449-.49l-.755.034m-6.97-.332l-.349.346-.058.496c.23-.079.458-.158.69-.232.003.276.005.553.016.829.472-.234.476-.787.515-1.241-.272-.066-.543-.131-.814-.198m9.182.114c.22.093.44.188.661.285l-.353.316-.402-.069c-.001.089-.005.265-.005.354l.215-.069c.123.18.253.358.382.536.08.218.166.436.263.65-.318.048-.637.091-.953.144.698.014 1.392.347 2.085.203l-.504-.148c-.003-.355-.032-.709.007-1.062-.124-.575-.72-1.746-1.396-1.14m1.113-.36c.19-.07.196-.416.09-.556-.373-.098-.434.5-.09.556m18.075-.797a3.839 3.839 0 0 1-.227.86 6.29 6.29 0 0 0-.568.468c-.119-.218-.236-.44-.355-.654l.062.587c-.26.036-.517.08-.776.121l-.2-.75c-.015.324-.029.648-.05.97-.306-.1-.61-.209-.929-.252.298.22.606.428.908.644.474-.046 1.234.318.947.879l.432-.119a6.924 6.924 0 0 0-.215-.521c.118-.235.238-.467.362-.7.313.317.232.728.075 1.101.313-.105.618-.236.914-.386.069-.388.306-.666.701-.741-.279-.338-.265-.77-.19-1.179-.072-.006-.212-.02-.283-.028l-.33-.422c-.069.03-.208.09-.278.122m-19.287-.028c-.024.22.348.37.522.264.036-.227-.349-.366-.522-.264m-1.26-.103c-.14.162-.281.325-.426.486l.27.295c-.035.09-.107.265-.144.354.223.1.444.202.67.299l.274-.587c.15.015.448.048.598.064a4.69 4.69 0 0 1-.793-.91l-.448-.001m-5.798-1.16l.224.4.528-.044c-.551-.28-.382-.982-.525-1.478-.078.373-.154.746-.227 1.122m29.534-1.447l-.22.458-.38-.103-.056.46.195.175c.001.13.006.259.012.388-.09.137-.177.276-.263.414.825-.476 1.72-.884 2.39-1.579-.328.047-.655.105-.982.15l-.119-.578c.187-.084.373-.171.56-.259-.346.047-.689.103-1.033.15l-.15-.603c-.088.31-.088.631.046.927M32.177 38.27c-.119.377-.215.79-.54 1.05l-.024.393c-.77.078-.36.92-.047 1.273.086-.257.175-.513.268-.768.224-.065.449-.136.671-.206-.04.359-.146.703-.288 1.033.3-.069.601-.125.902-.185l.29.36c.07-.144.14-.289.211-.432l.553-.067-.023-.43.822.08a38.183 38.183 0 0 1-.27-.65c.11-.095.217-.19.326-.283-.349.003-.715-.045-1.036.127l-.003-.398-.358.34c.014-.158.03-.315.047-.473-.358-.39-.87-.489-1.381-.467l.306-.22c-.143-.024-.285-.05-.426-.077m30.479-.217l-.268-.138-.065.607c.362-.087.727-.173 1.094-.25l-.068-.572c-.23.121-.463.237-.693.353m2.264-.546c.022.27.031.539.033.81.218.004.436.006.655.007.04-.078.116-.233.155-.311.227-.087.453-.178.68-.268l-.154.548.285-.358.582.008-.216-.33c-.25-.036-.494-.081-.737-.133l-.017-.434c-.32.388-.772.53-1.266.46m-12.391-.773c.112.184.229.366.347.546l-.126.58c-.162-.114-.32-.23-.475-.35-.17.091-.34.185-.51.273.306.08.583.23.823.435.101-.15.204-.298.307-.446.098.167.194.332.294.499-.089.078-.176.154-.262.232.172.398.461.71.897.811-.138.254-.281.505-.422.759.295-.203.595-.402.911-.57l.178-.452c.501.28 1.085.28 1.629.139-.324-.122-.654-.243-.917-.475.238-.067.48-.128.722-.187.203-.22.458-.372.748-.443.025-.143.048-.286.074-.43l-.422.093-.242-.201c-.088.015-.264.05-.35.067l.002-.352a9.716 9.716 0 0 1-.48-.226c-.175.08-.348.165-.52.249l-.074-.444c-.215.42-.385.86-.511 1.313-.14-.25-.282-.497-.417-.746l-.359.32a48 48 0 0 1-.439-.544c.084-.162.168-.323.253-.483l-.66.033m10.523.003l-.482.14c-.047.15-.094.3-.139.452.26.02.522.035.783.053.112-.338.23-.675.338-1.013-.17.119-.336.242-.5.368m-35.904-.928c.08.29.168.58.247.872.172.11.343.224.514.336l-.073.397c.385-.003.77-.008 1.154-.01-.142-.06-.282-.122-.424-.183a3.067 3.067 0 0 0-.565-1.1c-.121.026-.364.079-.486.104-.121-.14-.244-.28-.367-.416m33.37-7.914c.23.319.443.65.638.995.36-.117.672-.337 1.004-.513l-.266-.001c-.176.085-.344.202-.544.215.003-.259.027-.514.049-.771-.295.015-.59.04-.882.075m5.556-.553c-.079.194-.16.388-.236.58.092.01.275.027.369.036.03-.364.092-.727.08-1.093-.314-.048-.192.288-.213.477M37.026 26.12c-.121.093-.244.188-.364.283l.31.466c.285-.405.753-.539 1.21-.656-.387-.026-.773-.046-1.156-.093m18.926-6.899l-.044.304c-.177.084-.352.173-.525.265.545.021 1.095.04 1.63.163-.083.143-.169.287-.258.425-.068.28-.146.556-.238.829.125-.09.25-.18.378-.268-.007-.206-.046-.428.08-.61.114.155.224.312.332.474-.007-.14-.018-.417-.022-.556.146-.193.29-.387.433-.582a5.93 5.93 0 0 0-1.25-.343l.152-.3c-.223.07-.446.137-.668.2m-6.376-6.939a18.6 18.6 0 0 0 .698-.15l.179.286c.195.07.386.146.58.223l.325-.642c.266.368.54.729.831 1.078.055-.25.112-.499.172-.746l.419-.26c.073.244.144.489.218.733.305-.137.612-.27.925-.386l.202-.38.232.39c.27-.38.564-.466.648.07.104.009.314.024.419.032.028.075.084.227.11.302l.494-.126c.01.103.034.31.045.413.23.073.456.146.685.222-.177.12-.356.236-.538.348l.143.515.428.123-.265.285c.13.13.257.262.385.394-.081.394-.139.793-.21 1.188.232-.183.553-.72.858-.37-.02.225-.067.448-.11.67a23.303 23.303 0 0 1-.932-.02c.01.36.025.722.056 1.083l-.344.276c.283.09.565.182.846.286.105-.028.319-.084.425-.11.023.432-.34.67-.625.926.207-.092.413-.185.618-.282l.01.664c.095-.164.187-.327.275-.492.17-.114.338-.23.507-.35l.344.096c.104-.066.316-.193.422-.257-.058.32-.126.64-.21.954.48-.47 1.04-.384.792.382.175-.11.35-.22.528-.327.146.537-.313.817-.74.998.108.045.215.092.324.137a1.37 1.37 0 0 1 .603-.447l-.24.497c.377.196.73.434 1.031.738l-.62.18c.196.102.391.21.586.318-.196.189-.393.379-.584.572.14.154.28.31.419.467l.032-.6c.193.181.377.373.555.572-.098-.707.372-.833.67-.221-.195.165-.395.327-.595.484.12.14.242.28.365.42l.02.593-.385-.212c-.078.134-.16.268-.239.402.1.42.119.918-.303 1.166.319.034.635.104.948.182-.22.226-.44.452-.651.682.533.265.75.807.933 1.338a1.69 1.69 0 0 0-.011-.799l.598.238.072-.588c.16-.067.32-.133.484-.195.006.28.01.56.012.843.198-.301.422-.581.678-.835.11.31.222.618.352.92.057-.043.17-.132.226-.176l.024-.392.335-.019.134-.526c.12.191.238.384.355.58.187-.175.379-.347.575-.513.05.19.107.378.173.563.171.064.342.125.515.184l.05-.49.363-.23.086.554c.196-.11.394-.218.593-.324-.078.322-.165.643-.248.965.218-.283.44-.562.648-.852.165.193.332.383.5.575l.082-.612.332-.011c.07.143.142.287.215.428l-.187.335.165.399c-.145.286-.3.568-.482.831.24 0 .484.003.728.003l-.132-.675.438-.027c.057-.103.172-.308.229-.413.098.265.191.531.277.8.152-.242.327-.471.517-.686.12.343.32.752-.12.945.05.164.096.327.146.492l-.414-.057c-.006-.134-.02-.399-.028-.533-.146.536.054 1.136-.312 1.625.097.149.192.3.287.451l-.473-.019.084.552c.45.162.876.41 1.12.84l-.452.03c-.04.045-.115.134-.154.18.071.062.211.188.281.252-.112.14-.222.28-.331.422.433.023.852.137 1.182.433-.005.1-.011.3-.014.4-.243.017-.485.04-.726.065l.056.737c-.226.017-.452.032-.676.05.092.48.263.943.508 1.367l-.094.358c.085.204.169.408.248.615a28.855 28.855 0 0 1-.53-.082c-.258.068-.521.126-.781.182.076.188.152.378.227.57a7.215 7.215 0 0 0-.733.263c.324-.051.643-.13.964-.2l.051.318c-.093.136-.187.271-.279.408-.11-.03-.33-.085-.439-.115-.109.182-.216.363-.327.544-.059-.103-.177-.309-.237-.41-.165.103-.33.206-.495.307.014.294.024.589.042.883a4.421 4.421 0 0 0-.252.736c-.192-.135-.38-.274-.57-.41-.073.247-.142.495-.212.742a4.44 4.44 0 0 1-.657-.587l.32-.297a24.824 24.824 0 0 1-.636-.496l-.45.323a28.447 28.447 0 0 1-.045-.382 3.66 3.66 0 0 1-1.13-.051c.094.223.19.445.278.671-.229-.005-.458-.01-.685-.02a26.424 26.424 0 0 0-.035-.35 62.87 62.87 0 0 1-.542.006l.15-.398a44.782 44.782 0 0 0-.895-.246c-.167.088-.334.173-.499.259.139.248.279.494.42.74-.244.1-.487.204-.73.305.045.075.134.223.18.296l.308-.254c.212-.013.423-.031.635-.05l-.156.488.645-.085-.001.377.302-.462c.063.355.051.715.009 1.073.134-.341.444-.494.78-.584-.008.249-.017.501-.031.752a54.3 54.3 0 0 1-.475.135l.031.337c.212.152.408.327.477.592.17-.004.338-.007.509-.008-.03.159-.058.317-.086.478.316.235.639.467.99.652.052-.095.155-.282.205-.376.268.037.537.062.805.1.265-.133.534-.255.805-.376-.008.419-.2.78-.512 1.051a8.6 8.6 0 0 1 1.2-.128c-.127.31-.255.619-.37.933.196-.157.392-.313.591-.469a83.66 83.66 0 0 1-.115.61l.56.023c-.297-.405-.147-.829.401-.625l.12.405c.118.02.353.06.472.078l-.137.262a11.62 11.62 0 0 0-.608-.086c.222.112.461.18.703.238l.402.368c-.223.085-.446.174-.665.264.447.16.909.271 1.38.332-.043.067-.127.204-.169.273a16.56 16.56 0 0 1-.42-.125c-.005.23-.01.46-.017.692.196.08.392.166.588.255-.299.062-.598.117-.897.18.193.278.372.563.56.846l-.526.193c.106.172.214.343.321.514l-.571.09c-.175-.227-.374-.439-.664-.509l.137.488a3.472 3.472 0 0 1-.398-.234l-.049-.089c-.04-.025-.121-.076-.163-.1.051.184.103.37.153.557l.478-.04-.038.628c-.369.005-.735.04-1.1.055l-.45.43c.214.087.429.176.644.266a13.61 13.61 0 0 1-.508.487l-.279-.22c-.126.074-.38.219-.507.292.067-.287.226-.522.476-.704-.366.18-.683.435-1.017.665-.129.18-.263.357-.4.531l.055.526c-.212-.073-.42-.148-.63-.224.32.841-.753.87-.66.064-.263-.15-.349-.403-.328-.698-.204.212-.405.427-.614.633.209.16.416.32.622.485-.194.117-.384.236-.577.35.036.217.067.438.098.66.228.077.455.157.68.241a9.655 9.655 0 0 1-.236-.676l.497.148c.084.226.224.414.433.542a8.047 8.047 0 0 0-.122.263l.371.461c-.232.048-.462.098-.693.151.114.232.227.466.336.701.083-.234.17-.466.26-.695.122.162.243.326.365.49l-.159.242c.023.2.04.399.052.6a27.725 27.725 0 0 1-.435-.62c.1.354.195.709.27 1.068-.273.018-.543.04-.813.063.317.095.629.215.923.37-.164.084-.327.17-.489.256-.397.464-.922.193-1.277-.16-.163.283-.43.473-.695.65.616-.101 1.243-.03 1.757.35-.191.119-.383.237-.578.351.226.087.45.178.673.271-.229.22-.501.333-.808.215l-.271.09c-.198-.4-.682-.212-1.033-.241l-.032.528-.441-.427-.254.634c-.148-.209-.29-.419-.425-.634-.332.083-.67.182-.76.562-.132-.232-.262-.467-.39-.699-.029.142-.057.283-.083.425-.209.073-.415.148-.622.223-.191-.265-.381-.531-.579-.788l.171.582c-.09.04-.27.122-.363.162.181.117.36.235.54.355l-.124.485c.094.08.28.24.376.319-.427.04-.855.015-1.28-.016l.487.22c.288.732-.265.844-.799.501l.086-.397a45.293 45.293 0 0 1-.798-.171c.31-.344.636-.408.899.028.047-.438-.361-.517-.696-.494a11.045 11.045 0 0 1-.46-.518c-.177.155-.353.313-.521.478.314.03.63.053.945.093-.112.27-.226.539-.34.808a34.13 34.13 0 0 1-.426-.109c-.04.26-.08.522-.123.78l-.452-.33.42-.562c-.415.04-.59.315-.5.698-.188.209-.378.416-.563.626a73.95 73.95 0 0 0-.29-.363c.133-.395.39-.722.714-.98-.016-.111-.044-.334-.06-.445-.148.21-.297.42-.45.626l.075-.46c-.207.06-.419.108-.63.149.124-.347.29-.678.515-.972-.271.095-.545.187-.818.276.04.165.077.33.116.495-.245.028-.493.04-.737.054l.193-.61c-.528.184-1.09.19-1.604-.048.216-.307.545-.463.914-.49a1.022 1.022 0 0 1-.627-.362c.084-.076.25-.23.333-.307-.087-.034-.26-.103-.347-.135-.022.25-.04.503-.052.755-.227.179-.455.355-.688.526-.271-.615.176-1.11.718-1.334a28.513 28.513 0 0 1-.558-.074c-.13.26-.283.507-.47.73-.045-.308-.08-.613-.137-.916l.23-.033c-.106-.257-.193-.52-.29-.779l-.12.735c-.255-.14-.496-.314-.435-.646l-.243-.204.221-.274c-.123-.05-.37-.15-.492-.201.266-.27.537-.537.814-.799l-.718.192c-.006.127-.018.383-.026.51l-.696.07c.089-.462.28-.89.556-1.269-1.025.362-1.7 1.285-2.615 1.843-1.397.922-.713 2.773-.944 4.145-.342 1.548.725 2.937.55 4.479-.086.764-.045 1.538.18 2.277.195-.004.393-.005.591-.005.045-.32.089-.639.162-.952.028.622.06 1.245.078 1.866.196.132.394.263.593.394.203-.32.396-.648.606-.964-.13.41-.304.804-.466 1.202l.626.031c.045-.218.092-.434.142-.649.014.185.04.558.055.743.38-.1.593-.428.81-.726a38.68 38.68 0 0 0-.432 1.045l.39.067c.091-.2.183-.397.275-.596.008.254.012.509.015.764 1.566.315 3.3-.06 4.714.863.706.537 1.411 1.117 1.933 1.842-1.288.483-2.708.192-4.052.232-1.386-.093-2.674.519-4.038.634-4.597.51-9.268.804-13.87.185-.885-.009-1.293-.985-2.134-1.113-1.75-.316-3.49.427-5.244.196.187-.53.75-.659 1.245-.729 1.214-.19 1.945-1.32 3.058-1.736a36.428 36.428 0 0 1 2.207-.752l.525.03-.081-.359c.314.017.63.025.946.03.531-.419 1.327-.551 1.569-1.268.328-.848 1.367-1.017 1.819-1.766.426-.665.451-1.484.574-2.242.117-1.163.942-2.17.783-3.375-.127-1.17-.158-2.356-.41-3.508l-.448.057c.05.151.1.302.148.455-.373-.148-.922-.343-1.093.188a83.654 83.654 0 0 0-.394-.183c-.053.218-.103.436-.152.655-.103.215-.175.441-.223.675l-.268.009c-.092.226-.187.45-.282.676a20.057 20.057 0 0 1-.3-.531c-.061.012-.183.04-.243.054a23.44 23.44 0 0 0-.262-.648l-.469.007a67.404 67.404 0 0 1-.208-.497l-.217.526c-.212-.328-.34-.697-.489-1.054l.089.54c-.32.142-.603.35-.874.567l-.279-.215-.316.396-.204-.312c-.261.036-.524.07-.786.103.112-.191.227-.38.346-.567-.061-.032-.183-.096-.243-.129.19-.252.37-.514.55-.774-.231-.01-.462-.014-.692-.016.003-.196.01-.392.014-.587l-.51.032c.038-.25.076-.499.107-.748.124-.1.249-.198.373-.296.292.06.581.12.871.182a43.71 43.71 0 0 0-.545-1.035c.25-.362.54-.692.864-.988l.263.586c.17-.139.34-.276.511-.413.137.27.276.54.425.804.08-.168.158-.337.237-.505-.25-.183-.632-.313-.553-.697.335-.31.783-.284 1.13-.005a28.702 28.702 0 0 1-.135-.695c-1.29-.338-2.633-.032-3.82.511.18.27.358.539.533.813-.101.21-.192.424-.273.642l-.31-.038-.141.619c-.13-.212-.251-.427-.366-.645-.416.428-.981.632-1.523.847a32.635 32.635 0 0 1-.061-.948c-.241.571-.445 1.319-1.232 1.21-.08-.186-.162-.37-.244-.553l-.168.493c-.119.024-.354.07-.472.095.165.167.333.332.503.497l.014.727a12 12 0 0 1-.633-.398l-.146.291-.336-.442c-.23.18-.458.367-.686.554-.21-.01-.42-.017-.632-.019-.215-.138-.436-.266-.657-.394l.51-.35a10.094 10.094 0 0 1-.753-.44c.252-.152.512-.29.78-.415l-.157-.302-.343.019-.24-.245a30.32 30.32 0 0 1-.24.625c-.079-.337-.141-.673-.19-1.013-.17.324-.347.645-.527.964-.245.002-.49.02-.732.046l.045-.463c-.343.13-.68.273-1.02.411-.291-.106-.59-.191-.883-.296l-.4-.001a10.89 10.89 0 0 0-.502-.357c-.037-.316-.085-.63-.134-.945a4.863 4.863 0 0 1-.216 1.176c-.2-.016-.402-.028-.604-.04.006.097.015.29.022.387l-.306-.132a35.939 35.939 0 0 0-.34-.586c-.172.246-.354.484-.546.716-.078-.227-.155-.454-.23-.682.166-.182.335-.364.509-.539l-.01-.283c-.102-.031-.306-.093-.407-.126l.299-.294c-.48-.268-1.03-.284-1.56-.197-.066-.07-.133-.138-.2-.207l-.735.291-.039-.489c-.276-.034-.551-.067-.825-.102l.028-.396c.229-.031.46-.06.69-.086-.371-.317-.739-.64-1.103-.965l-.008.375c-.394-.067-.783.011-1.144.176-.24-.109-.475-.22-.706-.346-.118.412-.422.693-.8.874-.215-.388-.438-.774-.65-1.163l-.053.431c-.431.08-.83-.048-1.079-.422-.003-.246-.012-.492-.019-.736-.54-.393-.266-1.036.081-1.452.13.203.259.407.384.61.009-.541-.03-1.163.53-1.454-.034-.235-.06-.47-.091-.705.123-.007.247-.011.37-.017.181.196.37.386.555.577.03-.336.056-.67.08-1.007l.322-.075c.175.287.34.584.336.933.179-.185.358-.366.536-.553.141-.017.281-.037.423-.056.031.07.095.213.128.283l-.27.304c.215.045.43.089.644.137.021-.177.045-.353.068-.531.115.173.23.347.341.522l.737-.145c.104-.182.21-.361.317-.54l-.398-.007c-.18-.174-.37-.34-.56-.506l.426-.226c-.036-.053-.11-.157-.145-.21-.223.165-.45.322-.688.467.008-.395.22-.711.493-.975l-.158-.116c-.125.19-.251.378-.382.565-.031-.341-.019-.684-.008-1.025l.304-.006c.213-.22.433-.43.665-.628l-.234-.24c-.129-.034-.39-.1-.521-.135.272-.124.557-.218.855-.258-.102-.243-.203-.486-.307-.728l.18-.492.47.23c.228-.12.452-.247.669-.387.212-.01.423-.02.635-.028a7.42 7.42 0 0 1-.867-.42c.182-.12.366-.239.55-.356.116.081.235.16.351.242.055-.12.11-.24.169-.358-.391.032-.782.034-1.173.028.128-.22.258-.436.397-.648a2.368 2.368 0 0 1-.775.18c.091-.193.185-.386.28-.576.205.072.41.145.615.223.274-.438.766-.624 1.205-.846-.369-.238-.52-.647.033-.753l.363.33.46-.164.02.42c.28.054.56.108.84.16l.494.654a51 51 0 0 0 .283-.309c.343.11.672.254.98.441l-.117-.39c.302.018.604.016.905.032l.187-.316c.135-.013.272-.03.41-.049.138.108.278.214.418.321l.14.49c.206-.206.407-.418.608-.63.08.271.15.545.221.82.123-.286.24-.575.36-.864.646-.023.646.538.487 1.014.558-.088 1.056.184 1.469.533a22.906 22.906 0 0 1-.102-.857c.197.088.393.176.59.268-.018.114-.05.343-.066.456l.36.119c-.08.347-.02.693.12 1.017.211.056.42.112.628.17.08-.65-.255-1.463.326-1.958L30 41.117l-.23.05a15.015 15.015 0 0 0-.348-.48l-.004-.577c-.284.234-.558.48-.829.73a90.677 90.677 0 0 1-.109-.636c-.174.207-.353.408-.543.601-.083-.374-.017-.747.101-1.106.167-.185.308-.389.452-.591-.374.01-.748-.011-1.119-.066-.109-.458-.133-.928-.15-1.395.283.14.566.282.851.422-.212-.18-.426-.355-.634-.539-.274.055-.548.114-.816.19a22.007 22.007 0 0 1-.096-.297l-.54-.203c-.063.075-.186.224-.247.3.145-.04.435-.12.58-.158l.05.394-.863.16c-.213-.197-.42-.41-.523-.69-.102.022-.304.069-.407.09a3.74 3.74 0 0 0-.005-.758 10.8 10.8 0 0 1-.53.117c.163.103.412.178.39.419-.197.167-.431.28-.688.322.087-.205.176-.41.268-.612-.413-.018-.995.268-1.265-.183-.406-.391-.177-1.008-.4-1.478l.143-.268c-.255.025-.51.048-.766.072l.151-.556-.241-.125.042-.279c.157-.224.304-.456.445-.691-.092-.06-.272-.184-.363-.246-.104.218-.213.434-.323.65-.04-.096-.122-.284-.164-.378-.193.016-.388.03-.582.045-.148-.27-.298-.541-.424-.822l-.44-.121-.26-.51-.298.577-.246-.477c.317-.232.606-.501.84-.819a28.72 28.72 0 0 1-.043-.515 40.727 40.727 0 0 0-.406-.128l.338-.36c.249.207.487.425.732.637a17.01 17.01 0 0 1-.345-.84c.069-.05.203-.152.271-.202.003-.347.088-.683.172-1.018.168.123.336.246.503.372.059-.237.118-.47.18-.705.18.168.36.339.538.512.193-.023.386-.048.579-.083l-.75-.134c.256-.205.512-.412.776-.61l.128-.601c-.218-.06-.438-.117-.654-.176.154-.112.31-.224.467-.335.207.221.422.436.645.642-.094-.214-.19-.424-.291-.633l.158-.49c.215.25.278.564.275.886.246-.019.492-.03.74-.033-.287-.232-.507-.525-.725-.817.215-.16.43-.323.64-.49l.114.488c.215-.145.427-.293.638-.444.223.167.449.327.68.48l.052.406c.142-.319.3-.629.483-.928.143.125.428.372.572.495-.16-.534-.44-1.04-.46-1.61l.427-.196-.36-.378.36-.13c-.123-.2-.248-.403-.368-.607.355-.031.7.053 1.014.22-.223-.304-.416-.63-.506-.997.335.09.634.265.89.497l.284-.04c.058.07.176.208.234.276-.011-.345-.038-.691-.055-1.037.418.16.61.567.855.907a5.66 5.66 0 0 0-.311-.879c.283.114.565.234.847.35.003.26.01.52.008.778l.185.163c.065-.335.316-.454.63-.46a2.68 2.68 0 0 1-.694-.644c.589-.001 1.1.592 1.67.171.121.186.241.371.364.556.016-.295.031-.591.048-.886.251.126.499.259.75.382-.02.18-.04.361-.058.542.166-.019.333-.038.5-.055l.17-.254c.468.02.781.315.955.73.17-.172.342-.342.513-.513.19.377.349.77.476 1.171.276-.025.552-.039.829-.045-.114.21-.235.417-.358.623l.498.27c-.164.308-.341.607-.515.909.383-.391.764-.791 1.219-1.101.095.043.285.134.38.177-.002-.096-.003-.29-.003-.386.132-.125.261-.25.392-.377.18-.092.357-.191.531-.293.081.282.186.556.51.626l.026-.548c.313.128.613.288.905.461a35.642 35.642 0 0 0-.318-.35l.051-.425c-.576-.084-1.152-.164-1.725-.268a15.852 15.852 0 0 0-.076-.61 33.37 33.37 0 0 0-.312.19c-.179-.184-.356-.37-.537-.555.01-.226.012-.452.01-.678.143-.115.284-.23.428-.344a25.858 25.858 0 0 1-.18-.822l.637-.104a19.624 19.624 0 0 1-.67-.628c.228-.096.46-.191.69-.283.007-.086.016-.257.022-.343-.102-.02-.308-.062-.41-.084.041-.37.058-.744.105-1.117-.525.137-1.068.208-1.61.14.153-.211.316-.417.484-.618l.642.243c-.03-.14-.058-.28-.086-.42l-.419.075.35-.57a7.446 7.446 0 0 1-.256-.858c.096-.004.293-.008.39-.011.164.185.328.369.49.557a4.465 4.465 0 0 1 .015-1.088c.391.28.75.598 1.082.945a4.713 4.713 0 0 0-.365-.63l-.002-.71c.406.153.498.577.657.93-.014-.224-.034-.45-.053-.674.287-.196.567-.405.852-.606-.075-.157-.15-.313-.223-.47l.274-.386c.158.255.31.515.46.777.04-.39.104-.777.258-1.139.125.183.25.366.373.552l.261-.354c.245-.018.488-.046.73-.078l-.057.5c.238-.008.478-.012.718-.01.056-.267.115-.533.184-.798.193.279.311.595.292.938l.187.079a18.37 18.37 0 0 1-.075-.712c.282.287.547.592.807.899.008-.164.022-.49.028-.654.273.202.542.41.794.637-.182.356-.579.688-.395 1.13l.405-.44.246.316c.274.054.528.176.7.405.119-.113.236-.225.356-.335-.047.238-.095.478-.148.715.174.096.348.194.521.294a6.075 6.075 0 0 1-.08-1.05c-.233-.084-.47-.163-.703-.243.213-.102.43-.204.648-.296a2.497 2.497 0 0 1-.254-1.03l.392.035c.136.273.267.549.404.823.032-.376.068-.75.135-1.119l.492.137.218-.485c.162.09.324.18.486.272l-.04-.501c.071-.092.145-.184.218-.276.83.343 1.048-.489 1.174-1.12l.318.215c.071.335.137.671.2 1.01.068-.4.15-.798.276-1.183"/>
        <circle cx="43.661" cy="43.661" r="43.661" stroke="#FFF" stroke-width="2"/>
    </g>
</svg>
