<svg xmlns="http://www.w3.org/2000/svg" xmlns:xlink="http://www.w3.org/1999/xlink" width="90" height="90" viewBox="0 0 90 90">
    <defs>
        <path id="a" d="M48.881 32.749V.014H0v65.469h48.881V32.749z"/>
    </defs>
    <g fill="none" fill-rule="evenodd" transform="translate(1 1)">
        <g transform="translate(19 10.07)">
            <mask id="b" fill="#fff">
                <use xlink:href="#a"/>
            </mask>
            <path fill="#FFF" d="M21.715 57.867c.005.116.012.233.02.35l-.318.02.023.305c.2-.126.407-.244.616-.356l-.045-.292-.296-.027zm-11.933.393a.48.48 0 0 0 .407-.463.897.897 0 0 0-.407.463zm6.686-1.985l-.209.095c.203.124.404.25.594.39l-.268.111c.062.065.123.131.183.198l.097-.18.418.01a12.87 12.87 0 0 0-.434-.222l.218-.391c-.116-.129-.23-.258-.343-.388a7.881 7.881 0 0 0-.256.377zm-7.092-.525a5.42 5.42 0 0 0-.175.623c.116-.189.382-.406.175-.623zm3.914-2.084c-.073.101-.148.203-.221.306l.251.217c.114-.058.228-.116.343-.172l-.05-.172-.323-.18zm.677-.143c-.11.045-.175.238-.028.28.202.03.26-.347.028-.28zm1.66.317a.524.524 0 0 0 .416-.163l.204-.033c.032-.136.064-.271.094-.405-.27.166-.578.322-.714.6zm-2.84-.286l-.044.431a13.6 13.6 0 0 1 .286-.219l.042-.2c.1-.07.2-.139.298-.21-.193.066-.386.135-.582.198zm25.724-.9l.068.164c.177.068.354.138.53.208-.049-.107-.1-.212-.15-.317a.552.552 0 0 1-.448-.054zm-21.76.157l.121.2.437-.196c-.171-.122-.373-.061-.558-.004zm25.188-.556l.119.226.262.13c-.038-.086-.075-.171-.11-.256l-.271-.1zm-3.917-.18c-.072.25-.004.495.13.718l.294-.374c-.117-.01-.234-.02-.35-.028a4.795 4.795 0 0 0-.074-.316zm-.703.09c.103.075.21.144.319.213l.015-.242-.334.03zm-20.052.152c.075.132.144.266.214.402.097.041.196.084.293.128.244-.087.485-.18.723-.281.023-.094.047-.186.072-.279a9.453 9.453 0 0 0-.174-.154 1.473 1.473 0 0 1-.495.197c-.091-.076-.18-.15-.27-.223l-.363.21zm23.67-.335c.169.202.37.379.576.55.068-.063.137-.126.207-.188-.02-.04-.056-.122-.074-.162-.237-.065-.47-.138-.708-.2zm-21.358.054c.058.12.115.241.171.365-.05-.05-.154-.147-.205-.197l-.35.082-.13.281a20.47 20.47 0 0 1-.095-.296l-.327.164c-.059.19-.12.378-.185.566.474-.255 1.07-.143 1.497-.505.073-.154.159-.303.245-.45a75.385 75.385 0 0 1-.621-.01zm13.278-.233c.04.28.112.56.112.846.29.087.593.14.9.128-.277-.229-.54-.47-.792-.719.003-.068.011-.205.016-.272l-.236.017zm6.527-.563c.252.507 1.018.479 1.227 1.025.058.001.174.006.231.009a16.612 16.612 0 0 0-.005-.22c-.078-.005-.232-.018-.309-.024.012-.135.041-.268.196-.332l-.009-.147-.243-.058-.207.292-.016-.399-.24-.123.047.422a1.713 1.713 0 0 1-.277-.408 10.74 10.74 0 0 0-.395-.037zm-10.627.02a4.896 4.896 0 0 1-.03.459c.173.042.346.09.52.136l.003-.207-.352-.002c.132-.134.262-.268.391-.403-.178.004-.355.01-.532.016zm-1.948-.056c.006.193.017.387-.003.582-.162.182-.458.07-.683.094l-.001.368c.27-.007.54-.008.81-.007.407-.239.409-.655.388-1.04l-.51.003zm19.006-.072c-.022.096-.043.194-.064.293.11-.087.22-.174.33-.263l-.266-.03zm-13.21-.33l-.007.166.554.123a5.52 5.52 0 0 1 .028-.192l.168-.195c-.25.03-.495.072-.743.099zm-7.166-.455c-.27.231-.154.591-.192.886.17-.003.34-.005.511-.004-.007-.195-.016-.393.003-.587.167-.177.462-.064.69-.087a22.141 22.141 0 0 1-.016-.436c-.337.025-.741-.008-.996.228zm4.721-.324c-.088.073-.11.275.045.296.186-.02.158-.405-.045-.296zm-2.603-.493l.05.312.379.01c.014.11.028.22.046.33.02-.14.042-.28.065-.418.271.19.258.527.355.796.122-.037.244-.075.366-.11l.07.324.166-.225.471-.08c-.087.078-.173.16-.26.24l.283.037-.034-.22.36-.263c-.217-.121-.41-.322-.69-.305-.063.118-.13.234-.197.351l-.047-.266a3.593 3.593 0 0 1-.35-.37 7.68 7.68 0 0 0-.28.226l-.233-.272a8.722 8.722 0 0 1-.52-.097zM6.045 48.34c-.152-.03-.258.207-.086.244.164.04.242-.2.086-.244zm37.031-.103l.06.174.421.135-.146-.194-.335-.115zM9.261 48.08c-.139-.004-.322.239-.106.262.165.035.298-.23.106-.262zm.354-.515c0 .148.002.295.008.444.087-.133.17-.268.252-.403a27.74 27.74 0 0 1-.26-.041zm12.12-1.37c-.062.088-.124.179-.183.27.249-.023.5-.043.75-.06l-.011-.193a12.135 12.135 0 0 1-.556-.018zm-.787-.216l-.078.172c-.198.019-.395.043-.591.073.11.178.325.212.538.222.103-.11.212-.215.326-.315l.031-.202-.226.05zm-.872-.198c-.121.086-.246.169-.37.252.13-.03.26-.057.389-.086l.23.132.196-.28a26.025 26.025 0 0 0-.445-.018zm16.015-1.171l-.023.271.264.084a1.089 1.089 0 0 0-.24-.355zm3.084-.256l-.106.292-.267.08.267.075c.078-.14.265-.293.106-.447zm-3.492-.117a7.872 7.872 0 0 1-.016.425c.063-.01.186-.035.248-.046a5.458 5.458 0 0 1-.232-.38zm-16.703-.74c.052.254.133.502.207.75.396-.147.072-.516-.01-.756l-.197.006zm19.93 1.024c.077-.21.165-.417.313-.596l-.202-.157-.105.324c-.128-.15-.141-.333-.153-.513a18.823 18.823 0 0 0-.397-.249c.004.444.322.813.545 1.19zm-3.267-1.079c.056.19.128.377.203.564.027-.196.06-.39.09-.585a33.91 33.91 0 0 0-.293.021zm-16.004-.583c.151.228.441.309.68.443-.134.121-.28.233-.416.353l-.45.03.046.4.192.11v.156c-.118.043-.235.088-.351.134a15.29 15.29 0 0 1-.258-.221l-.168.009c.007.201-.003.409-.16.57a3.606 3.606 0 0 1-.071-.517c-.144-.085-.18-.23-.217-.365-.014.265-.03.53-.064.794l-.181-.145-.198.176c-.092-.004-.275-.009-.366-.011.109-.19.231-.372.362-.55a34.003 34.003 0 0 1-.066-.401c.104-.087.207-.175.306-.267-.305.179-.573.4-.845.614l-.271-.013-.2.267a1.535 1.535 0 0 0-.597.313c.626.733 1.886.636 2.776.415l.068.151c.156-.01.314-.015.47-.02.01.046.027.14.036.186l-.138.223c.753.055 1.295-.462 1.89-.78-.867.072-1.806.283-2.627-.074.687-.349 1.511-.263 2.223-.521-.236-.04-.47-.065-.707-.096.085-.146.164-.294.215-.452.077-.015.155-.028.233-.041a20.514 20.514 0 0 1-.39-.404l.222-.279a42.308 42.308 0 0 0-.285-.183c-.02.069-.056.205-.075.274-.158-.166-.36-.286-.618-.278zm-.555.324l.12.218c.209-.108.583-.177.476-.456-.266-.137-.482.034-.596.238zm11.972-.949l-.052.241.321.032c-.032-.083-.062-.165-.092-.247l-.177-.026zm-11.25-.042a4.63 4.63 0 0 1-.394.542c.07-.017.21-.05.279-.068l.08-.168.303-.04-.269-.266zm12.11-.203a.436.436 0 0 1-.022.275.974.974 0 0 1-.27-.03c-.094.187-.166.382-.187.585l.402.11.078.2c.067-.014.2-.045.266-.06-.233-.144-.47-.282-.699-.43.103-.117.174-.327.385-.31.273.297.576.585.922.83l-.241.319c.324.303.832.375 1.284.407-.202-.185-.457-.312-.7-.449l-.3.008c.074-.125.15-.246.224-.37-.354-.383-.715-.762-1.143-1.085zm11.29-.138a15.58 15.58 0 0 0-.019.37l.345-.002a1.003 1.003 0 0 0-.327-.368zm-.753-.248c-.078.22-.148.443-.192.672.253-.061.17-.27.154-.437.202.028.403.053.607.079-.146-.162-.355-.246-.569-.314zm-33.098.035l.013.176.167.038c.1-.172.208-.34.312-.509-.18.075-.345.175-.492.295zm11.18-.505c.019.114.04.227.062.341-.079-.018-.238-.056-.317-.076-.112.077-.222.157-.332.236l.014.191.223.07c-.01.138-.017.277-.026.417l.19.13c.217-.05.423-.135.59-.27 1.084-.083 2.226-.114 3.193-.591l-.032-.154c-.439-.09-.87-.227-1.326-.216l.009.275-.142.014-.086-.318c-.112.165-.223.331-.338.494-.02-.2.053-.392.107-.582-.61-.145-1.206.324-1.79.04zm14.067-.162c.088-.01.177-.017.267-.022.049.048.098.098.146.149.005-.109.013-.216.022-.323-.044.026-.132.077-.175.104l-.2-.2-.06.292zm-10.893-.259l.034.167c.168-.01.337-.016.507-.024l-.067-.22c-.159.022-.317.048-.474.077zm13.882-.647c.126.303.386.6.763.671.19-.2-.2-.346-.342-.467l-.089-.175-.332-.03zm-8.749-.02v.283l.172-.023.028-.21a8.6 8.6 0 0 0-.2-.05zm7.57-.382c.092.173.194.342.288.514l-.38.227.123.152c.289.007.583.027.847.142.113-.093.228-.185.344-.275a15.029 15.029 0 0 1-.198-.252l-.116.33c-.197-.358-.524-.633-.907-.838zm-3.398.082l.262.226c.063-.135.127-.27.194-.401-.152.057-.305.116-.456.175zm-.642-.618c.012.186.08.363.194.522.066-.204-.027-.383-.194-.522zm5.266-.315c.197.077.397.153.59.238l-.035-.237a8.66 8.66 0 0 0-.555-.001zm-22.828-.206a8.456 8.456 0 0 0-.056.47l.214-.04c-.011-.154-.012-.32-.158-.43zm11.62-.248c.011.148.02.296.028.445.194-.07.388-.14.58-.214l-.367.019.062-.25h-.304zm1.738-.682l-.012.233c.1-.074.2-.148.298-.223l-.286-.01zm-13.552.065c.194.025.39.047.585.07l.207-.288c-.276.033-.552.087-.792.218zm8.91-.459c-.01.067-.032.2-.044.267.093.078.185.157.277.238a17.485 17.485 0 0 1-.064-.21l.36.018a2.19 2.19 0 0 0-.529-.313zm-6.208.495a14.683 14.683 0 0 0-.31-.15l-.052.327-.36-.035c-.07.075-.142.15-.215.225l.326-.067c-.068.244-.122.49-.162.74.26-.11.537-.18.815-.244.017-.21.053-.419.085-.628.122-.104.232-.218.325-.342l.203-.074.089-.27c-.374-.03-.63.234-.744.518zm-3.516-.564c.004.147.013.295.027.442.137-.185.268-.375.409-.557-.145.041-.29.078-.436.115zm-.762-.04a42.84 42.84 0 0 0-.16.205l-.252-.09.028.213c.216.047.43.092.648.136.079-.196.174-.386.266-.577-.177.037-.353.077-.53.114zm1.908-.292c-.189.028-.085.266.08.212.185-.03.09-.277-.08-.212zm22.393-.233l-.13.19.25.063.552-.212a16.333 16.333 0 0 0-.672-.04zm-14.057.455c-.047.184-.11.364-.162.548.051-.081.1-.165.149-.247.088-.096.174-.192.26-.289.208-.045.414-.098.618-.155a13.564 13.564 0 0 0-.399-.048l-.058-.302c.002.237-.146.417-.408.493zm-10.55-.1c.287.057.567-.014.825-.122-.09-.08-.178-.16-.265-.241a4.695 4.695 0 0 1-.56.363zm7.478-.438c-.18.009-.185.276-.003.288.167-.007.17-.278.003-.288zm-2.327-.161c-.02.217-.027.434-.042.651.262.06.691.137.775-.177-.138.054-.267.128-.416.16a4.625 4.625 0 0 1-.113-.349l.152-.134-.356-.151zm.731-.067l-.046.174.297.033a21.946 21.946 0 0 1-.009-.255l-.242.048zm-2.863-.24c-.018.068-.035.135-.051.204.187.02.374.044.558.078l.067-.308c-.191.013-.383.02-.574.026zm9.922-.21c-.116.04-.17.234-.018.267.212.043.25-.34.018-.268zm-12.453-.255c-.126.04-.149.232-.004.266.216.046.229-.337.004-.266zm4.972.184c-.075.096-.15.194-.222.293.18-.116.357-.235.53-.358l.223.007-.038-.219a2.484 2.484 0 0 1-.493.277zm-4.638 1.099l.328-.087c.277-.432.622-.839.765-1.326-.603.284-.798.914-1.093 1.413zm20.94-2.794c.066.187.128.376.184.566l.177-.284c.286.167.558.351.82.547-.08.022-.242.066-.323.09.088.071.176.145.263.22l-.02-.233.356-.038a25.37 25.37 0 0 1-.06-.362c-.285-.046-.57-.095-.855-.142l-.025-.199c-.087-.06-.173-.121-.258-.182l-.259.017zm-21.768-1.848c.366.008.731.007 1.097.008-.069-.096-.135-.194-.203-.29a3.688 3.688 0 0 1-.683-.05c-.079.106-.15.217-.21.332zm10.475-1.233c-.1.122.11.307.25.229.081-.117-.113-.32-.25-.229zm-5.146.036c.236.008.472.008.71.008l-.185-.379c-.217.073-.45.155-.525.37zm7.406-.652c.032.263-.063.512-.214.736.14-.006.28-.01.422-.013-.065-.242-.145-.48-.208-.723zm-7.76.199c.235.168.535.113.813.1l.015-.46a6.114 6.114 0 0 0-.828.36zm2.263-.554c-.007.287-.007.575.011.863l-.235-.002a1.332 1.332 0 0 0-.353-.486c-.214.127-.437.24-.657.358l.33.035c.112.065.225.126.342.186l.014.182-.339-.067c.013.164.022.329.03.493.492.008.563-.348.493-.692.133.109.265.219.401.325-.092-.006-.274-.022-.364-.028l.088.356.497-.096.038-.383c.287.093.386.365.527.579.113-.096.227-.19.343-.283-.206-.341-.918-.596-.576-1.03l-.225.051c-.121-.12-.243-.242-.365-.361zm-7.146-.606c.085.076.224.174.349.16.063-.152-.29-.33-.35-.16zm.53-.768l.05.172c.125.033.248.068.373.104.068-.156.132-.312.187-.472a2.738 2.738 0 0 0-.61.196zm-1.324-.583c.012.141.021.282.032.424l.371-.004c.045-.135.09-.27.137-.405-.18-.002-.36-.007-.54-.015zm2.228-.607l-.022.227.314.003-.023-.238c-.068.002-.202.007-.27.008zm-2.383-.595l.165.109c.166-.02.332-.039.5-.057a32.384 32.384 0 0 1-.189-.111l-.007-.3c-.12.16-.214.358-.47.359zm.598-.716l.274-.09.05-.308a.695.695 0 0 0-.324.398zm-1.48-1.448c.198.147.452.081.674.038a1.892 1.892 0 0 0-.674-.038zm.218-.64c-.049.156.318.172.377.05-.061-.108-.27-.108-.377-.05zm3.23-.248c-.115.04-.13.223 0 .255.19.02.21-.323 0-.255zm-.936.192c.154.016.31.03.465.044l-.016-.298c-.2.005-.336.124-.45.254zm19.978-.434c-.281.322-.147.66.188.908-.224-.068-.447-.135-.68-.167l.117.225c.793.196 1.575-.161 2.286-.431-.599-.288-1.227-.485-1.911-.535zm-5.197-1.408c.229-.036.449-.105.64-.222-.26-.262-.479.053-.64.222zm-15.918-.55l-.018.182c.14.056.28.115.417.179 0-.047.005-.14.007-.187-.137-.057-.271-.116-.406-.174zm.565.412c.137-.027.275-.051.413-.075l-.185-.077a8.111 8.111 0 0 0-.181-.36c-.026.169-.037.34-.047.512zm16.07-.637c-.18 0-.216.265-.01.255.19.02.193-.26.01-.255zm-2.007-.007a7.12 7.12 0 0 0-.102.62l.188-.03c.018-.197.042-.394.1-.584l-.186-.006zm-13.88.023c.253.19.524.368.848.45l-.025-.358c.178-.011.357-.027.533-.056-.444-.083-.915-.205-1.355-.036zm14.735-1.09c.014.266.034.544-.109.79-.115-.208-.207-.425-.306-.638-.153.332.046.614.411.735.114-.16.22-.324.31-.496a7.32 7.32 0 0 1-.306-.392zm.01-.456c-.098.116-.197.228-.296.343.281.025.563.06.846.088.088-.094.177-.187.268-.279l-.28-.27c-.18.04-.359.08-.538.118zm-.138-1.426c.169.183.362.349.541.527-.205.001-.41-.001-.615-.002.029.175.127.328.242.471.337.075.604.302.958.328l.001-.223a45.25 45.25 0 0 0-.421-.11c.122-.072.246-.145.367-.22.18.002.362.004.543.008l-.194-.443c-.474-.113-.933-.274-1.422-.336zm.14-.73l.004.244.376-.012a.443.443 0 0 0-.38-.233zm-9.688-.402c.094.12.193.235.295.35.123-.088.251-.171.382-.25a10.973 10.973 0 0 0-.01-.183 3.52 3.52 0 0 0-.667.083zm3.271-2.049c.017.054.048.164.064.218l.282.112-.112-.262-.234-.068zm5.303-.339c-.102.102.095.282.215.195.107-.111-.087-.288-.215-.195zm.6-.266c.078.084.156.169.232.254l.148-.195-.38-.059zm.573-.154c-.026.08-.05.16-.075.241.063-.005.188-.016.251-.02l-.003-.302-.173.08zM22.55.462c.039-.15.08-.299.124-.448l.133.25c.18.097.358.195.54.286-.001.2-.005.4-.009.6l.264.003c.126.23.128.476.018.712l.196.216c-.043.516-.406.949-.499 1.455-.165.515-.022 1.045.07 1.559.286-.48.49-.993.758-1.482l.31-.038c.19-.39.508-.71.782-1.053-.147.351-.317.704-.603.987l.396.023c-.134.228-.33.417-.52.608.164-.038.327-.077.491-.113-.448.39-.862.872-.7 1.468.21-.28.388-.577.578-.868.13.304.168.633-.098.89-.227.54-.615 1.075-.555 1.668.608-.334.856-.964 1.073-1.531l.236-.105c-.06.281-.218.531-.371.78l.419-.068c-.088.14-.175.281-.259.423.18-.06.36-.121.543-.177a.667.667 0 0 1-.341.498c.045.08.09.16.137.24-.364.43-.413 1.004-.416 1.522.261-.186.387-.466.577-.702-.045.223-.123.44-.198.655l.28-.095c.134-.363.305-.722.62-.995-.083.37-.165.74-.303 1.097l.341-.07-.165.293.183.181-.222.36c.1.293-.117.541-.262.787.695-.465.87-1.209 1.08-1.901l.112.42.481-.366.103.204c.48-.136.802-.476 1.179-.746-.078.612-.645 1.021-1.068 1.463.386-.093.714-.308 1.094-.413-.274.383-.762.572-1.163.831.223-.015.447-.029.672-.04-.176.245-.407.46-.727.554l.022.323c-.34.105-.681.211-.99.376.226-.002.45-.01.677-.01-.233.197-.593.26-.746.529.776.082 1.484-.275 1.996-.757l-.204.396c.104-.004.31-.009.415-.011-.443.394-.86.82-1.382 1.137-.34.264-.78.522-.766.972l.357-.034-.008.283c.227-.188.469-.412.814-.353.426-.269.812-.606 1.316-.765-.174.208-.398.393-.479.65.39-.21.734-.49 1.166-.636-.083.318-.368.54-.596.782.236-.091.482-.164.739-.197-.106.277-.475.296-.731.408.265.036.534.052.802.074-.42.168-.899.256-1.206.584.182.128.382.26.395.486-.202-.037-.404-.08-.605-.122-.228.211-.386.467-.507.737.498-.053.97-.201 1.449-.32-.258.172-.571.261-.847.408.194.051.387.106.58.163-.462.206-.991.14-1.485.22.165.064.335.115.506.169-.082.16-.158.323-.225.489-.385.08-.835.003-1.134.278-.19-.009-.38-.023-.568-.039.024.162.044.324.063.487.085-.019.257-.054.343-.072-.015.082-.042.246-.055.328.453-.29.867-.677 1.443-.762-.08.136-.163.27-.244.405.672-.086.975-.675 1.492-.986a1.43 1.43 0 0 1-.38.605l-.014.238c.723-.222 1.158-.84 1.882-1.06-.253.354-.642.614-.876.982.548-.201.988-.604 1.595-.679l-.012.203c-.378.332-.886.494-1.378.649.488.022.978.007 1.467.018l-.02.172c-.638.043-1.285.152-1.863.401.332.078.736.032.996.267-.622.083-1.253.014-1.878.062.389.076.781.153 1.131.328-.611.144-1.23-.001-1.82-.144.17.514.96.525 1.361.886l-.223.058c-.076.106-.154.21-.234.314l.098.167c.008.12.029.243.126.338-.039.164-.082.327-.12.49.457-.305.646-.908 1.308-.968-.228.345-.647.62-.657 1.05-.12.072-.239.144-.355.22.204.018.41.033.615.052-.279.274-.735.209-1.044.435.165.034.331.066.498.095a1.998 1.998 0 0 0-.531.357c.267-.015.532-.046.798-.072.016-.044.045-.133.06-.177.103-.087.202-.176.299-.27a8.22 8.22 0 0 0 .433-.279l.33.037c.042-.078.086-.156.13-.233.156-.08.312-.164.458-.259.089-.005.177-.01.267-.013.097-.126.194-.25.297-.373.289.267-.35.331-.385.58.094.112.216.328.376.15.286-.357.492-.821.987-.994-.096.22-.201.437-.255.669.37-.229.745-.452 1.137-.652.01.277-.137.526-.273.768.4-.224.737-.521 1.135-.747-.177.382-.543.661-.753 1.028.422-.227.906-.4 1.41-.346-.306.22-.667.366-1.042.47.271.053.544.104.818.147-.274.04-.54.111-.804.183l.31.199c-.327-.01-.64.066-.935.18.013.133.029.264.045.396a31.68 31.68 0 0 0-.696.027c-.047.103-.093.208-.138.313-.199.002-.397.005-.593.012.05.15.108.297.165.446.835.12 1.38-.475 2.02-.802-.082.3-.189.593-.294.886.47-.277.785-.733 1.322-.925-.175.329-.456.602-.649.924.565-.207.94-.664 1.479-.914-.263.278-.575.524-.77.846.703-.339 1.508-.471 2.196-.833a.986.986 0 0 0-.35.62l-.406.009c.122.272.264.538.438.79a48.266 48.266 0 0 1-.61-.02l.165.25c-.614-.069-1.242-.032-1.792.236-.029.104-.058.209-.085.313l.387-.044c-.302.17-.599.346-.916.493.303.042.602.107.896.186-.788.347-1.59.768-2.507.725.084.097.166.195.25.294.385.041.774.054 1.157.111-.52.208-1.101.102-1.65.135.403.08.874-.004 1.2.269-.49.043-.984.045-1.475.078-.003.105-.003.21 0 .317l.133-.207c.509.212 1.11-.077 1.62.183-.636.276-1.332.361-2.034.342.104.058.21.114.317.17.024.141.053.28.085.421-.414-.028-.83-.083-1.246-.046a9.521 9.521 0 0 0-.534-.103c.061.096.124.192.188.287.32.095.773.034.962.328a17.879 17.879 0 0 1-.826-.042l-.01.372c-.204-.075-.38-.193-.481-.368a1.06 1.06 0 0 1-.44-.145l-.518-.013-.2.264c.756.41 1.66.533 2.523.63.865-.076 1.774-.26 2.612.049l.06.18c-.431 0-.862.023-1.292.052l.004.088c.234.056.465.121.695.19-.587.436-1.393.078-2.079.201.143.176.287.353.407.542-.632-.049-1.015-.56-1.55-.801l.036.231.275.13c.014.227.106.441.227.642l-.23.042c-.185-.126-.374-.245-.562-.366l-.101.226a2.084 2.084 0 0 0-.877-.063c.008-.049.021-.148.028-.198-.117.002-.233.004-.347.008l.083-.257-.208-.111-.183.16c-.03-.164-.056-.325-.093-.487-.091.181-.179.365-.267.548a9.1 9.1 0 0 0 .627.163l.136.142c-.064.08-.13.16-.192.241l.462.035c.016.045.048.134.065.177.673-.043 1.508.319 2.068-.096.176.07.356.131.539.188a33.47 33.47 0 0 0-.221.282c.208-.04.42-.077.63-.116.061-.142.12-.285.178-.428l.216-.027.066.26.291-.184c.077.012.154.027.232.041.218-.183.44-.37.735-.453l-.197.395c.32-.18.658-.335.983-.51a3.28 3.28 0 0 1-.33.5l.213.095c-.286.125-.563.29-.534.606.367-.163.664-.414.953-.665l-.154.483c.46-.335.7-.867 1.265-1.095-.05.211-.123.417-.194.622.232-.138.448-.294.674-.44l-.002-.15a12.7 12.7 0 0 0 .424-.329c.181.014.363.023.546.032-.164.168-.33.335-.476.516.33.031.612-.167.94-.139-.223.3-.567.484-.95.593.276.033.553.04.83.048-.441.273-.96.42-1.465.57l.348.118c-.275.175-.615.236-.922.355.191.071.382.143.573.218-.02.062-.064.19-.086.253 1.204.11 2.364-.2 3.555-.294a6.832 6.832 0 0 0-.594.373c.156.02.312.041.47.06l.088.2c-.468.095-.936.192-1.419.185.393.158.8.287 1.184.465-.774.015-1.518-.298-2.306-.223.303.307.952.157 1.121.538-.931-.013-1.86-.08-2.761-.292-.371-.117-.725.088-1.073.175.258.534.94.3 1.433.48.122.142-.047.279-.106.41.84.044 1.7-.103 2.53.063.222.036.186.265.204.413-.512.136-1.039.016-1.551-.045.305.312.648.594.93.925-.797.042-1.386-.48-2.071-.74-.08.042-.16.085-.24.13a27.9 27.9 0 0 0-.216-.227c-.02.073-.056.22-.075.293a64.83 64.83 0 0 1-.368-.138c-.049.164-.101.328-.148.493.822.305 1.758.551 2.643.323a18.64 18.64 0 0 0-.154.306c.722-.007 1.34-.469 2.054-.428l-.326.2a8.05 8.05 0 0 1 .716-.033l-.101.23c-.622.26-1.32.314-1.961.524.023.09.048.18.074.272-.195.018-.389.041-.581.063-.068.07-.136.138-.206.206l-.02.11c.172.054.344.11.511.18-.532.052-1.126-.088-1.534.307l-.304-.162-.003.223c.873.363 1.866.11 2.669-.277.782-.37 1.564-.754 2.436-.934l.033.219c-.32.308-.805.23-1.209.367.546.056 1.083-.07 1.626-.086-.48.281-1.015.477-1.535.693.223.03.447.054.673.072-.57.225-1.067.562-1.621.812.254.023.509.051.76.095-.51.124-1.043.16-1.566.229l.183.16c-.024.049-.069.148-.091.197-.247-.02-.495-.041-.743-.02.398.26.91.16 1.352.067l-.006.31c-.276.13-.553.281-.875.297l.184.289c-.346-.266-.67-.576-1.119-.265.121.076.244.15.37.224-.04.253.105.475.234.69.768-.283 1.453-.698 2.125-1.123-.08.231-.227.436-.389.629.1-.07.202-.139.305-.207.371.01.712-.126.979-.347-.101-.09-.202-.179-.301-.27.214.006.426.018.64.03a3.436 3.436 0 0 0-.44-.299c.181-.012.361-.028.542-.044l.102.248c.348-.286.612-.635.9-.965 0 .052.002.104.004.157-.05.09-.1.179-.145.271.96-.392 1.804-.995 2.74-1.439-.291.555-.933.859-1.448 1.234l.259.013c.455-.21.932-.398 1.435-.5-.265.303-.632.516-.975.743l.303.014c.223-.141.497-.144.759-.102-.54.272-1.13.457-1.674.725.372-.062.669.076.852.358a3.284 3.284 0 0 0-1.365.498c.138.027.276.056.414.085-.136.081-.275.159-.413.238l.184.253c-.159.122-.253.281-.236.47.385.018.77-.009 1.157.018-.27.182-.59.267-.927.237-.054.11-.106.221-.16.333.132.082.262.168.39.257-.107.037-.211.077-.315.115l.344.198c-.473-.01-1.013.081-1.379-.254l-.23.026c.13.118.259.24.372.373l-.376.05c-.135-.376-.572-.4-.875-.144l.26.146c-.006.348.173.728-.084 1.04.163.243.183.508-.061.714a6.485 6.485 0 0 1-.134-.845 15.16 15.16 0 0 0-.326.131c-.111-.102-.223-.203-.338-.3-.005.19.11.353.21.515-.248.299-.67.266-1.04.271l-.158.377c.09.151.171.306.247.464.307-.054.614-.108.923-.154l.056-.213c.09.002.182.004.273.009.102-.076.206-.15.31-.224.034.129.072.258.112.388.284-.558.25-1.221.688-1.718.066-.006.198-.02.265-.025-.12.377-.205.767-.128 1.16.34-.415.598-.873.862-1.326a40.485 40.485 0 0 1-.195-.337c.163.059.327.118.492.174-.015.103-.03.205-.042.31l.334.036a3.3 3.3 0 0 0-.322.433c.445-.206.711-.595 1.07-.892l.194-.003c.006.094.012.189.02.284l-.236.066-.016.186a2.603 2.603 0 0 0 1.296-.619c0 .11.003.223.006.334.267-.2.554-.38.873-.514-.154.659-.814 1.08-1.5 1.288.171.027.343.058.515.09-.163.144-.322.29-.488.432.214-.004.428-.004.643.001-.094.222-.28.399-.513.515l-.058.154c.197 0 .394.001.592.007-.22.114-.437.229-.656.341l.003.111c.073.097.141.198.209.3l-.328.07-.031.197c.101 0 .304.004.404.006-.615.63-1.584.234-2.374.256-.024.174-.055.348-.086.522.086-.01.26-.027.346-.036-.08-.086-.16-.17-.24-.253.462.051.928.034 1.39-.009l-.05.245a2.088 2.088 0 0 0-.585.062c.659.224 1.401.103 2.084.011-.233.363-.591.638-.999.843.177.01.355.021.534.034-.195.306-.588.398-.96.411l-.026.228c-.333.028-.703-.052-.995.125.136.117.27.237.4.36.58.045 1.162.038 1.742.024-.011.048-.036.144-.049.192-.443.245-.952.338-1.472.319l.072.216c-.779.104-1.536-.077-2.3-.133-.182-.475-.528-.031-.829.068l.03.467a4.909 4.909 0 0 1-.287-.5l-.164-.04-.326.225c.221.265.496.497.854.612-.113.08-.225.16-.336.242.124.572 1.066.525 1.097 1.121.107-.069.216-.137.327-.203l-.095.286c.23-.077.464-.145.711-.166a1.673 1.673 0 0 1-.365.243 5.56 5.56 0 0 0-.12.168c.28-.148.592-.186.91-.11l-.057-.372c.135.086.27.171.409.256a2.48 2.48 0 0 0-.234-.567c.447-.057.73-.376 1.069-.6-.103.152-.215.298-.325.445.172-.014.344-.028.517-.04.08-.084.164-.166.247-.25l.276-.03.02.264-.344.03a6.335 6.335 0 0 0-.09.404c.217-.123.396-.288.5-.497.187.098.375.194.567.287.327-.307.618-.644.97-.93l.028.348c.4.039.76-.115 1.122-.239-.141.164-.292.324-.43.49.301.077.61.124.921.167-.269.203-.615.29-.928.426.252.028.507.046.762.058-.019.13-.04.26-.057.393-.283-.01-.565-.017-.847-.02.1.155.193.313.276.477-.322-.027-.636-.095-.957-.123.244.174.46.382.483.674-.322-.08-.632-.186-.945-.285l.036.284a32.78 32.78 0 0 1-.77-.09 2.684 2.684 0 0 1-.21.497c-.126-.047-.251-.093-.375-.137.385.705 1.51.518 2.133 1.003l-.027.23c-.155-.064-.31-.13-.465-.193l-.124.215c-.251-.078-.485-.189-.717-.298l-.174.173c-.274-.125-.546-.253-.839-.34.024.128.055.257.09.384l-.016.202.654-.041c.229.232.488.445.809.577-.019.21-.027.42-.027.63l-.426-.066a10.83 10.83 0 0 0-.181.3l-.262-.17-.009.305c-.761.057-1.157-.609-1.754-.892.14.209.299.407.472.597l-.407.032c.446.41 1.11.577 1.497 1.045a22.3 22.3 0 0 0-.22.27c.163.142.325.287.487.433-.286.017-.577.023-.848-.073-.273.059-.482-.09-.66-.252-.605.152-.84-.685-1.372-.873-.142.175-.281.352-.424.527l.084.275.25.03c-.112.322.12.585.318.832-.334-.026-.654-.119-.915-.307.207.267.13.57.043.86-.213.003-.425.01-.637.024.104.078.208.153.313.233-.233.013-.467.02-.7.012l-.006.285a18.842 18.842 0 0 1-.558-.117c-.155.097-.308.193-.46.293a3.804 3.804 0 0 1-.706-.35l-.053.304c-.388-.263-.748-.555-1.147-.805.255.347.368.783.725 1.064.095.593.79.663 1.256.934-.183.005-.365.008-.547.009l.15.489-.207.013a4.824 4.824 0 0 1-.623-.472c.008.145.015.291.021.439a5.836 5.836 0 0 1-.53-.352l-.132.154c-.644-.368-1.197-.838-1.74-1.31.154.321.391.62.397.984a2.496 2.496 0 0 1-.76-.519c.068.175.13.35.185.53-.657-.265-1.178-.724-1.647-1.195.17.408.554.7.781 1.082-.514-.14-.835-.547-1.24-.832-.078.025-.157.051-.236.079-.244-.25-.589-.392-.855-.617-.358-.398-.546-.896-.963-1.257-.17.092-.337.19-.505.285-.053.235-.116.47-.165.706.175.024.35.05.524.076-.185.23-.453.39-.7.564.361.022.803.067.987.387-.294.052-.591.138-.779.357.424.114.856.2 1.295.262-.332.02-.666.068-.945.24.453.068 1.14.057 1.307.528-.364.06-.725.13-1.09.187.408.111.831.17 1.252.23v.099c-.49.031-.965.152-1.454.19.605.215 1.236.368 1.85.565-.47.13-.92-.112-1.382-.152.23.142.47.277.689.435-.36.05-.658-.172-.964-.298.046.146.09.292.129.44-.348-.128-.688-.27-1.024-.421.073.1.144.198.216.301-.523-.115-1.028-.291-1.471-.564l-.006.246c-.458-.065-.83-.316-1.183-.561.085.201.159.406.2.62-.359-.156-.696-.342-1.033-.527.054.18.097.361.124.547-.596-.11-.917-.588-1.303-.948.065.29.153.578.137.877-.216-.121-.37-.298-.513-.48-.142.284.06.584.147.86.307.524.326 1.166.782 1.623-.01.223-.01.447.016.672.114.077.228.156.342.238-1.051.486-2.305-.106-3.379.315-.132-.627.428-1.16.297-1.788-.177-.95-.136-1.919-.16-2.879-.049-.276-.237-.514-.402-.745-.008.408.137.803.198 1.205-.272-.307-.597-.575-.856-.892a17.365 17.365 0 0 0-.296-.018c-.195-.287-.539-.452-.783-.7-.042-.423.042-.87-.194-1.262l-.26-.043c-.069.098-.138.196-.206.296l-.368-.072c-.059.548-.173 1.178-.673 1.555-.135-.2-.264-.4-.398-.6l-.247.343c.126.272.098.564-.026.833-.353-.112-.59-.373-.817-.62-.015.272-.018.544-.047.816-.14-.177-.277-.354-.412-.531a3.3 3.3 0 0 1-.194 1.122.85.85 0 0 1-.274-.523l-.207-.086c-.035.324-.14.636-.228.953l-.243-.234c-.083.128-.167.255-.253.382-.03-.166-.056-.33-.082-.494l-.166.074a1.956 1.956 0 0 1-.398.909c-.054.001-.161.006-.214.008a8.45 8.45 0 0 0-.106-.936l-.178-.05c-.338.41-.396.92-.564 1.39l-.13-.515c-.328.329-.542.866-1.138.845.18-.31.371-.616.583-.91l-.23-.03c-.337.161-.652.358-1.006.493.443-.487 1.12-.827 1.36-1.442-.424.226-.787.545-1.269.686.594-.501 1.193-1.02 1.496-1.71-.25.202-.477.426-.738.62.136-.679.686-1.191 1.023-1.792l-.255-.002c-.074.304-.304.546-.549.762a2.124 2.124 0 0 1-.375-.773c-.288.423-.233 1.025-.828 1.246a.733.733 0 0 1-.308-.663c-.14.24-.318.468-.581.617-.056-.293-.041-.59-.05-.885-.31.216-.41.572-.628.851-.069-.15-.136-.3-.205-.448-.131.394-.256.814-.612 1.105-.424-.195-.02-.678-.14-1.014-.16.353-.367.696-.69.955.156-.324.312-.659.279-1.02-.47.309-.532.868-.96 1.205-.027-.142-.05-.287-.073-.427-.175.348-.493.617-.868.8a4.08 4.08 0 0 1 .397-.832c-.332.263-.613.568-.941.834-.013-.236-.014-.473-.02-.709-.225.339-.437.688-.728.989.034-.326.225-.609.382-.896-.232.09-.466.177-.706.251l.039-.305c-.494.19-1.037.33-1.579.233.216-.129.442-.243.675-.344l.034-.132c-.367-.001-.739-.002-1.1-.073.46-.132 1-.134 1.36-.453.417-.01.833-.06 1.235-.163-.253-.079-.512-.138-.765-.214.482-.093.973-.136 1.463-.183-.378-.13-.784-.17-1.17-.274 1.138-.138 2.297-.228 3.402-.518-.447-.044-.91-.034-1.332-.19-.249.16-.5.323-.782.44.067-.579.617-.995.727-1.56.032-.258.028-.518.032-.775-.153 0-.306.003-.46.007-.257.508-.143 1.3-.92 1.465.02-.422.151-.83.326-1.22-.385.435-.472 1.02-.92 1.42l-.38-.017c.167-.772 1.252-1.241 1.015-2.076a1.395 1.395 0 0 1-.819.2c-.611.643-1.645.867-2.569.786.506-.598 1.372-.86 1.847-1.488a15.46 15.46 0 0 0-.187-.154 6.45 6.45 0 0 0 .849-.782c-.584.288-1.045.699-1.51 1.114l.073-.4c-.339.313-.782.6-1.305.52.314-.4.84-.602 1.211-.955-.034-.034-.1-.104-.134-.14.143-.22.233-.46.276-.709-.506-.078-.916.44-1.403.209-.21.24-.826.762-1.018.295-.42.273-.885.505-1.412.565-.05-.128-.1-.255-.148-.382.623-.61 1.862-.503 2.262-1.283.107.012.214.027.321.041.174-.137.351-.27.525-.404l-.423-.057c.044-.174.203-.283.354-.386a3.853 3.853 0 0 1-.836-.129l-.005-.427c-.52.135-.741.656-1.292.744-.009-.205.07-.397.164-.58-.354.084-.701.187-1.054.272l.236-.37a6.666 6.666 0 0 1-1.368.006c-.072-.159-.142-.319-.212-.477.812.066 1.653.204 2.459.033l-.378-.129c.208-.046.414-.105.614-.173.07.07.139.141.208.214.14.003.28.008.418.015l-.012-.184a3.745 3.745 0 0 1-.554-.188l.2-.231c-.452-.07-.854.183-1.306.158.222-.266.607-.357.866-.589-.51.018-.994.236-1.51.145.276-.127.555-.247.829-.376a3.925 3.925 0 0 0-1.208.165c.009-.335.186-.755-.235-.955l-.032-.243c.705.066 1.275.494 1.97.593.885.158 1.81-.045 2.685.182.644.065 1.097.537 1.71.67.456-.004.889-.197 1.353-.14.703-.008 1.524.194 2.127-.22-.28-.024-.566-.02-.815.107l-.113-.1c-.218.034-.438.062-.657.091-.018-.147-.037-.295-.06-.44-.065.09-.13.18-.193.273a5.72 5.72 0 0 0-.152-.11l-.004-.36c-.489.216-1.5.15-1.38-.505.277-.026.492-.187.742-.273.079-.161.15-.323.215-.487l.247.054-.038.343c.207-.024.416-.05.622-.081l.13-.451a35.19 35.19 0 0 0-.305-.01l-.163-.275a1.26 1.26 0 0 1-.38.172c-.15.103-.294.212-.44.318-.008.128-.016.256-.022.386-.202.087-.452.189-.552-.07-.164.132-.318.273-.47.414a26.65 26.65 0 0 1-.05-.377c-.261.212-.524.45-.898.486-.048-.07-.096-.139-.145-.207-.32.16-.683.23-1.049.167.343-.17.689-.34.997-.557l-.133-.106-.003-.295a19.25 19.25 0 0 0-.412.178c.052-.13.1-.26.145-.39-.421.532-1.111.59-1.793.59.054-.121.11-.239.167-.358-.476.233-1.009.48-1.565.298.433-.356 1.063-.444 1.528-.768l.05-.265c.06.006.182.02.242.025.004-.135.012-.269.023-.403-.085.1-.17.2-.259.297l-.187-.222.229-.15-.116-.247c-.315.04-.626.114-.89.278l.08-.316c-.284.085-.565.177-.842.28l.02-.305c-.33.059-.657.123-.987.178.02-.227.117-.435.253-.625-.49.016-.97-.098-1.38-.337.5.013.995.088 1.495.11.378-.334.952-.327 1.45-.319l-.037-.185a3.76 3.76 0 0 1-.897-.326c.114-.086.23-.169.348-.25a6.378 6.378 0 0 0-.784-.592c.109-.055.219-.105.33-.155a5.267 5.267 0 0 1-.323-.443c.3-.051.599-.116.874-.237a5.76 5.76 0 0 1-.542-.375c.38.014.771.095 1.144-.008-.312-.174-.62-.361-.86-.612.957.597 2.1.904 3.259 1.01.5.015.96.19 1.435.305-.06.103-.12.207-.178.311l.19.119a6.42 6.42 0 0 1 .818-.014l-.018.302.082.049c.1-.054.198-.108.297-.16.624 0 1.112.474 1.744.393l-.154-.286c.445.181.86.424 1.337.54l.28.377c.21-.085.418-.173.624-.264-.038-.204-.07-.41-.138-.609l.15-.133c.222-.014.444-.033.666-.06-.241-.084-.52-.262-.769-.095-.52.27-1.152.203-1.724.136l.043-.204c.69-.44 1.61-.413 2.317-.826.106-.444.296-.89.597-1.261l-.226.057c-.155.23-.41.382-.655.532l-.239-.14a1.189 1.189 0 0 0-.504.39 13.093 13.093 0 0 0-.273-.09 28.02 28.02 0 0 1-.358.188l-.026.276c-.158-.049-.312-.108-.392-.244-.134.037-.267.077-.398.119a1.599 1.599 0 0 1-.394.383c-.003-.16-.002-.32 0-.48-.14-.006-.279-.009-.418-.01a10.116 10.116 0 0 1-.015-.381c-.497.122-1.006.215-1.525.19.336-.26.744-.44 1.068-.714.007-.338.104-.666.197-.99a8.233 8.233 0 0 0-.425.113l.016-.281c-.297.107-.589.225-.883.338a6.736 6.736 0 0 1-.23-.398c-.181.001-.362.001-.543 0-.114.086-.23.17-.346.257A20.413 20.413 0 0 0 6.1 41.6c-.006-.144-.015-.29-.027-.432l.325-.251v-.193c-.31.19-.641.352-.992.475.047-.23.274-.331.482-.435-.208-.075-.416-.153-.626-.22.02-.041.059-.121.08-.161a2.273 2.273 0 0 1-.819-.085c.191-.11.376-.228.552-.355-.105-.104-.21-.207-.313-.311.335-.194.738-.214 1.121-.276-.46-.075-.91-.192-1.353-.323l.009-.148c.307-.124.61-.252.925-.358.543.347 1.201.476 1.865.399-.163-.068-.36-.11-.394-.291.555.128 1.108.232 1.69.164.217.207.508.307.83.289a6.04 6.04 0 0 1-.233-.542c.155-.054.31-.105.468-.154a21.32 21.32 0 0 1-.075-.295c.156-.04.314-.084.396-.22a9.447 9.447 0 0 1-.952-.152c.47-.066.963-.112 1.355-.372-.763-.128-1.721-.35-2.06-1.03.63.258 1.223.624 1.923.716-.141-.104-.289-.204-.433-.305.256.02.51.058.76.103l.08.215.088-.315c.104.092.206.187.303.285.274.014.546.043.815.088l.218-.16c-.286-.14-.585-.26-.86-.417.553-.103.914.362 1.443.379a17.14 17.14 0 0 0-.278-.291c.228-.328.313-.71.338-1.088-.11.075-.22.151-.326.231l-.252-.043a1.276 1.276 0 0 0-.273.333 2.608 2.608 0 0 1-.791.308 51.967 51.967 0 0 1-.246-.265c-.453.172-1.02.273-1.448-.004.309-.061.596-.176.87-.315.069-.126.142-.251.217-.375.412-.076.765-.274 1.119-.463-.054-.127-.111-.254-.167-.38-.438 0-.839.138-1.196.352l-.154-.147c-.312.275-.707.488-1.156.527l.068-.285a3.59 3.59 0 0 1-1.422-.012l-.1-.202a4.985 4.985 0 0 0 2.793-1.024c-.282.067-.56-.007-.817-.108.282-.18.745-.05.886-.386-.866-.141-1.575.576-2.469.322l.032-.215a4.313 4.313 0 0 1-.64-.177c.079-.26.439-.333.666-.47-.553.012-1.049-.21-1.492-.477a.603.603 0 0 1-.32.243c.11-.274.256-.534.41-.79.214.267.372.573.64.803.426.006.765-.23 1.108-.416 1.052-.09 2.09.092 3.143.11.635.08.94-.533 1.214-.927a2.629 2.629 0 0 0-.722.48c-.47-.11-.924.044-1.337.228l-.204-.19-.2.181-.255-.255c.301-.098.586-.423.93-.282.195.067.397.116.61.109l-.616-.256.253-.221-.49.01.22-.24c-.229-.032-.457-.07-.685-.11a9.263 9.263 0 0 1-.065-.171c.563-.01 1.128.02 1.69-.026-.443-.203-1.371-.155-1.302-.762.405-.1.827-.106 1.245-.113-.343-.499-1.077-.6-1.574-.95l.25.012c.265-.2.61-.059.903 0-.275-.355-.408-.771-.505-1.187l.253-.07c.31.252.385.64.694.894.015-.151.03-.302.043-.454.358.303.833-.112 1.248.121.005.157.012.316.026.473l.51-.06.116-.16c.183-.035.366-.07.55-.107-.055-.085-.112-.17-.168-.253a1.21 1.21 0 0 1-.395.325c-.011-.082-.036-.244-.049-.326-.087.005-.26.014-.346.02l.173-.304a2.283 2.283 0 0 1-1.307-.04c.254-.148.54-.247.784-.41-.317.005-.634.021-.951.02a4.976 4.976 0 0 0-.32-.329c.094-.087.19-.171.287-.255l-.042-.297.314.157c.02-.122.038-.243.054-.364-.198-.004-.394-.003-.592-.004-.15-.157-.382-.14-.592-.137a16.018 16.018 0 0 1-.005-.371c.16.082.324.164.485.249l.042-.257.317-.037-.196-.17-.22.121c-.077-.09-.152-.18-.226-.27l-.26-.03.115-.248c-.144-.107-.29-.213-.436-.316.106-.08.211-.161.318-.24a13.387 13.387 0 0 1-.584-.121 10.2 10.2 0 0 1 .525-.267c-.295-.27-.649-.504-.842-.846 1.105.066 1.83.939 2.87 1.183.106-.099.217-.194.33-.288.062-.187.18-.353.315-.507-.224.058-.452.109-.683.136l-.03-.277c-.092.01-.182.022-.274.033-.029.038-.089.115-.117.154-.022-.16-.043-.319-.067-.477-.143.003-.286.007-.427.013-.072.131-.145.26-.225.388a5.114 5.114 0 0 1-.062-.434l-.47.096.069-.24.511-.091c.047-.085.096-.17.144-.253a4.751 4.751 0 0 1-.917-.06l-.152-.223c.344-.197.815-.232 1.008-.59a3.111 3.111 0 0 1-.636-.552l.248-.018c.195.326.53.58.949.35-.055-.177-.112-.354-.16-.534.241.148.466.317.711.462.243-.178.477-.365.713-.549-.325.135-.68.193-1.017.299l.072-.278.238-.046.08-.295c-.636-.091-1.39-.266-1.666-.842.312.038.62.096.935.126a9.646 9.646 0 0 0-.433-.126 20.318 20.318 0 0 0-.06-.231c.31.002.618.072.817.296l.09-.173c.151.065.304.125.466.168-.344-.59-1.54-.695-1.41-1.484.298.188.596.39.95.492-.195-.35-.413-.698-.49-1.088.498.347 1.02.766 1.105 1.35.073-.284.144-.568.23-.85.405.198.404.647.426 1l.243-.241c.168.208.135.465.146.706.095-.209.18-.42.267-.632l.225.006c.03.331-.151.623-.299.916.036.227.119.47-.122.641l-.019.128c.256.067.445.224.584.419l.283.014c.026-.2.043-.402.032-.603.266-.31.264-.717.442-1.062.211.354.26.751.279 1.145.08-.333.101-.708.404-.956l.04.304.19.021.05-.227.237.031.063.957c.091-.06.183-.118.275-.176l.068.28c-.126.005-.25.012-.375.02.01.211.027.422.052.634.568-.058 1.26.266 1.648-.261l.045-.375c.458.026.919.059 1.378.029.106-.233.217-.467.256-.717l-.236.115a6.577 6.577 0 0 0-.497-.08l-.097-.41c-.284.2-.498.454-.662.736-.299.003-.598.001-.89.064l.023-.207c.301-.276.764-.481.8-.905-.342.215-.622.515-1.035.633.045-.075.091-.148.138-.221.298-.133.566-.34.648-.635-.254.255-.627.283-.981.332l.1-.37c-.292.219-.649.34-1.03.36.022-.056.069-.166.092-.22.315-.102.606-.25.875-.427-.319.024-.63.084-.945.13.225-.184.491-.323.749-.469-.464-.031-.873.247-1.346.233.209-.106.412-.217.614-.332-.296.01-.591.027-.886-.008.019-.293.32-.437.596-.529-.424-.054-.904-.135-1.155-.475.236-.01.474-.014.71-.019-.458-.421-1.202-.623-1.461-1.2.623.264 1.219.574 1.832.856.241.101.577.25.795.028.282.116.538.275.797.424a3.816 3.816 0 0 1-.042-.645l-.579.008.032-.252-.258.081c-.424-.332-1.074-.14-1.449-.51.368-.06.736-.135 1.048-.326-.413-.017-.83.006-1.24-.047.131-.208.411-.209.644-.252a1.662 1.662 0 0 1-.27-.338c.237.101.47.214.735.253-.123-.13-.248-.26-.375-.385 1.427.223 2.542 1.133 3.952 1.403-.091-.33-.49-.317-.797-.365l.07-.317-.404.01.05-.267c-.218.011-.436.018-.655.02l.14-.333c-.278-.057-.558-.152-.697-.39.101.02.305.06.407.078a10.125 10.125 0 0 1-.15-.53l.486.09a14.696 14.696 0 0 1-.85-.712l.006-.187c.215.078.426.165.641.246-.13-.15-.266-.296-.39-.448.43.109.684.496 1.139.559-.187-.213-.406-.4-.567-.63.504.126.803.55 1.29.707-.253-.332-.571-.64-.688-1.037.346.15.467.521.82.652a5.033 5.033 0 0 0-.31-.612c.633.727 1.551 1.259 2.524 1.57l-.012-.436a4.25 4.25 0 0 1-.412-.266c-.146-.03-.29-.06-.434-.092a8.79 8.79 0 0 1 .202-.354c-.234-.053-.466-.11-.696-.175l-.053-.2.138-.194a23.59 23.59 0 0 1-.346-.337c.618.113 1.193.415 1.847.338-.284-.371-.814-.505-1.3-.47-.006-.043-.02-.128-.025-.17-.196.015-.39.028-.585.04.02-.068.042-.136.063-.203l-.202-.08.063-.145a4.76 4.76 0 0 1-.784-.04l-.068-.278c-.26-.078-.518-.155-.776-.236.664-.157 1.335-.292 2.02-.149l-.126-.202c-.304-.171-.415-.508-.736-.668l.374-.091c-.429-.073-.87-.159-1.19-.439.185-.007.37-.012.556-.012.075-.055.15-.11.225-.163.52.142 1.013.346 1.508.544l.218-.22-.3-.09a19.847 19.847 0 0 0-.065-.183c-.256-.047-.514-.09-.77-.137l-.054-.213c-.331-.148-.777-.155-.992-.449l.34-.058.078-.13c-.461-.06-1.006-.163-1.207-.585.369.008.734.048 1.1.081a5.993 5.993 0 0 1-.854-.652l.035-.277c.845.703 1.854 1.223 2.948 1.569.064-.09.13-.18.195-.268-.072-.095-.145-.19-.218-.282.22-.005.441-.011.661-.025-.117-.076-.236-.15-.355-.223.024-.151.046-.303.064-.454a7.104 7.104 0 0 0-.463.178c-.009-.142-.02-.283-.028-.425a37.13 37.13 0 0 0-.44.024l.108-.311c-.22.037-.443.07-.665.096l.066-.187c.11-.1.21-.208.303-.32-.211-.007-.422-.007-.63-.007.1-.105.199-.21.295-.318-.237 0-.474.008-.71.013.057-.099.115-.198.176-.296-.178-.067-.355-.14-.531-.21v-.24c.226.014.452.033.678.052l.128-.205.418.239c-.057-.15-.118-.297-.175-.447.43.353.698.837 1.192 1.133-.062-.283-.208-.54-.347-.798l.243.004c.143.259.322.536.686.57a3.168 3.168 0 0 1-.387-1.38c.168.088.333.18.5.27-.128-.39-.458-.692-.655-1.053l.51.17c-.526-.457-.573-1.145-.587-1.757l.063-.146a8.277 8.277 0 0 1-.134-.52c.213.118.418.247.635.36-.231-.492-.962-.988-.69-1.546.19.325.282.72.65.937-.008-.467-.389-.863-.401-1.35.117.102.239.199.366.292z" mask="url(#b)"/>
        </g>
        <path fill="#FFF" d="M44.46 18.189c.053-.293.133-.602.397-.81a.873.873 0 0 1-.397.81M62.306 61.463c.049-.168.287-.21.417-.16.075.243-.308.274-.417.16"/>
        <circle cx="43.661" cy="43.661" r="43.661" stroke="#FFF" stroke-width="2"/>
    </g>
</svg>
