<svg xmlns="http://www.w3.org/2000/svg" xmlns:xlink="http://www.w3.org/1999/xlink" width="90" height="90" viewBox="0 0 90 90">
    <defs>
        <path id="a" d="M0 0h44.861v62.961H.001V0z"/>
    </defs>
    <g fill="none" fill-rule="evenodd" transform="translate(1 1)">
        <g transform="translate(21 12.161)">
            <mask id="b" fill="#fff">
                <use xlink:href="#a"/>
            </mask>
            <path fill="#FFF" d="M25.15 60.86c-.497.137-.249.984.237.883.476-.149.254-1.005-.237-.883m.944-1.331c-.222.288-.014.88.4.793.592-.184.077-1.263-.4-.793m3.562-1.441a5.777 5.777 0 0 0 2.676 1.506c-.713-.775-1.596-1.414-2.676-1.506M5.016 35.036c.171.693.387 1.388.846 1.953-.068-.734-.406-1.382-.847-1.953m20.768-18.995c1.04-.214 1.768-.978 2.345-1.816-.923.39-2.028.728-2.345 1.816M22.858 4.205c.039-1.427-.085-2.954.735-4.205.796 1.087.758 2.449.837 3.73l.865-1.177c.157.05.47.157.628.208.085.962-.329 1.83-.8 2.635.284.012.85.03 1.131.04-.358 1.375-.811 2.724-1.027 4.136 1.021-.547 1.969-1.23 3.05-1.664.665 1.542-1.034 2.65-2.396 2.624-.337.567-.684 1.135-1.024 1.702.506-.502 1.006-1.007 1.53-1.488.64.92.255 1.973-.103 2.909.722-.401 1.439-.808 2.158-1.216.154.25.308.5.462.746l-.515.803c.704 1.147.322 2.422-.311 3.497.574-.27 1.146-.561 1.767-.704 1.596 1.316.38 3.572-1.273 4.13.199.497.394 1 .586 1.501a75.48 75.48 0 0 0 1.38-1.17c.308.514.622 1.019.942 1.524l-.391.746c.19.238.382.475.571.713.018.262.053.779.068 1.04 1.03-.142 1.987-.555 2.934-.96.204.27.412.541.616.815-.755.535-1.507 1.075-2.144 1.75.359.297.72.588 1.084.877.009.484.02.968.033 1.453.666-.488 1.29-1.025 1.912-1.563l.071 1.052c.382.52.684 1.09.945 1.685l.695-.464.376.856c-.086.157-.254.472-.337.627-1.256.264-2.526.416-3.784.65.145.467.293.934.441 1.4 1.149-.353 2.241-.9 3.446-1.052-.867 1.926-3.076 2.092-4.683 3.05 1.196-.164 2.205-.89 3.378-1.136.524 1.899-1.605 3.022-2.685 4.238.15.36.304.719.458 1.079 1.575-.895 2.253-2.835 3.908-3.567.302.277.566.598.874.868-.462.354-.915.716-1.371 1.079.175.253.352.505.527.76.663-.802 1.187-1.756 2.114-2.288.207.975.1 1.962-.364 2.841.121.5.222 1.008.299 1.519-.752.446-1.516.87-2.253 1.334.687.039 1.373.066 2.06.113.036.223.11.666.145.889-1.293.95-2.638 1.842-4.07 2.57 1.939.116 3.81-.451 5.654-.977l.19.846c.908-.187 1.782-.502 2.646-.84.003.303.01.609.018.912-1.391.734-2.96 1.093-4.299 1.914.34.448.732.852 1.108 1.271-.812.856-2.005 1.032-3.065 1.406-.04.143-.118.431-.16.577.714.392 1.336.93 1.741 1.649-1.056.113-2.12.068-3.176.14 1.79.57 3.665.166 5.394-.416.414 1.759-1.418 2.802-2.94 2.55l.003.855c-1.433-.208-2.771-.796-4.195-1.055 1.94 1.465 4.512 1.688 6.824 1.171-.009.597-.018 1.195-.024 1.795-.758.208-1.521.39-2.297.517l.106 1.001c-.636.045-1.276.063-1.912.072-.23.255-.465.51-.696.77a97.471 97.471 0 0 1-1.359-.702l-.367.895c-.953.077-1.918-.006-2.821-.342.32.386.628.781.93 1.186-2.105 1.271-3.962-.78-5.664-1.775-.263 1.002-.228 2.452-1.634 2.36-.08.398-.16.796-.243 1.195a20.703 20.703 0 0 1-2.209-.393c-.183-.4-.37-.805-.556-1.206-1.323.645-2.366 1.967-3.976 1.836-.148-.939-.207-1.89-.151-2.838a20.085 20.085 0 0 1-1.66-.49c-.179.517-.341 1.037-.492 1.56-.95.167-1.871.467-2.819.65.003-.552.015-1.099.033-1.648-1.421.66-2.937 1.257-4.542 1.052-.15-1.171.723-1.893 1.64-2.404-.142-.093-.423-.283-.565-.378-2.437.657-4.115-1.524-6.3-2.056-.092-.357-.187-.713-.281-1.067.547-.532 1.095-1.061 1.613-1.623-.476.205-.92.464-1.35.75l-.817-.203c.22-1.022 1.024-1.667 1.874-2.175-1.732-.25-3.582.392-5.21-.449.4-.838 1.24-.992 2.09-.975-.915-.96-2.55-1.569-2.43-3.147.648.286 1.251.657 1.832 1.067l.003-1.162c.278.057.832.17 1.11.23.018-.36.041-.72.062-1.077.332.14.663.28.992.422.095-.279.19-.555.284-.835a46.34 46.34 0 0 1 3.186 1.162c-.178-.294-.353-.588-.53-.882-1.549.059-2.854-.809-4.083-1.635-.195-.939-.488-1.878-.373-2.85.96.624 1.394 1.709 2.087 2.574-.018-2.277-2.063-3.944-1.954-6.265.625.265 1.24.556 1.877.788-.746-1.406-2.833-1.522-3.194-3.153 1.027-.08 1.835.58 2.65 1.094-.104-1.742-.596-3.427-1.167-5.064.225-.16.45-.318.675-.479-.062-.368-.127-.737-.186-1.105 1.273-.003 1.956 1.093 2.25 2.199.284 1.26 1.278 2.119 1.93 3.18.385-1.825-.989-3.34-.906-5.127 1.006.666 1.602 1.727 2.084 2.803.121-.612.246-1.219.373-1.828.586.211 1.17.44 1.747.678-1.395-1.18-3.25-2.443-2.987-4.547.47-.015.944-.03 1.418-.047-.746-1.528-2.434-2.497-2.59-4.31a9 9 0 0 1 1.722.907c.128-.175.382-.53.51-.704.411.404.793.835 1.16 1.28.515.17 1.024.354 1.54.523-.492-1.628-1.658-3.09-1.419-4.876.264-.012.527-.024.788-.033.59 1.171 1.696 1.884 2.732 2.61-.606-1.02-1.267-2-1.856-3.029.3-.172.601-.342.903-.514-.749-.829-1.598-1.605-2.007-2.674 1.7.068 2.318 1.92 3.825 2.424 1.628-2.475-2.11-3.271-2.066-5.417.953.39 1.726 1.082 2.56 1.661-.402-.915-.861-1.818-1.05-2.811.455.276.896.58 1.31.918.617-.012 1.23.012 1.842.066l.844-.916c-.725-.939-1.53-2.08-1.03-3.322.31-.012.622-.024.932-.033.231.363.465.722.7 1.085.153-.158.464-.473.618-.633.402.434.817.853 1.25 1.254.047-.618.094-1.233.153-1.851-.257-.003-.515-.01-.773-.012-.393-.61-.79-1.213-1.166-1.834.93-.588 1.9-.398 2.67.363-.106-1.037-.302-2.063-.467-3.09-.21-.402-.409-.81-.598-1.22.888.209 1.75.524 2.634.74" mask="url(#b)"/>
        </g>
        <circle cx="43.661" cy="43.661" r="43.661" stroke="#FFF" stroke-width="2"/>
    </g>
</svg>
