<svg xmlns="http://www.w3.org/2000/svg" width="90" height="90" viewBox="0 0 90 90">
    <g fill="none" fill-rule="evenodd" transform="translate(1 1)">
        <path fill="#FFF" d="M35.832 55.669c.25.404.782.624.698 1.187.386.175.77.363 1.184.463-.436-.706-1.218-1.167-1.882-1.65m12.743-.567a5.547 5.547 0 0 1-.446.607c-.005.368-.012.736.023 1.104.278-.44.476-.923.69-1.395-.091-.106-.18-.21-.267-.316m-6.106-4.935c.231-.158.347-.414.482-.646.105.102.208.205.313.31.003-.313.009-.625-.003-.937-.548.212-1.031.617-.792 1.273m-1.502-1.343a540.2 540.2 0 0 0-.048.442 29.82 29.82 0 0 1-.636-.213c-.487.345-.228.847.125 1.17-.092.568-.645-.032-.89-.188-.218.348.058 1.077-.528 1.072-.248-.2-.023-.542-.02-.804l-.22-.115c-.187.095-.377.18-.57.258-.289.881.712 2.216-.49 2.66.241.44.411.91.49 1.407l-.37.184c-.064-.171-.129-.342-.197-.511-.408-.101-.768-.328-1.173-.441.055.34.146.674.223 1.01.968.732 2.04 1.373 2.726 2.407.945 1.345 2.066 2.547 3.163 3.769.855.876 1.112 2.125 1.745 3.14.083.237.384.098.363-.115.176-1.284.214-2.586.285-3.88.065-.779-.366-1.488-.343-2.264-.09-1.049.151-2.134-.217-3.147-.398-1.178-.815-2.348-1.03-3.579a73.39 73.39 0 0 1-.102.484c-.076.033-.153.066-.23.101a3.51 3.51 0 0 0-1.262-1.259c.004-.178.013-.355.02-.533-.318-.448-.135-1.01-.188-1.518a8.01 8.01 0 0 1-.626.463m10.76-4.798c-.141.456-.07.915.13 1.338.147.267-.176.65-.45.461-.472-.292-.592-.873-.697-1.374-.644.698.308 1.27.305 1.984-.225-.038-.446-.087-.67-.13.113.681 1.073 1.118.617 1.886-.216-.008-.432-.016-.646-.022-.196.542.036 1.122-.015 1.646-.189.458-.533.033-.76-.153-.073.35-.279.634-.54.867.161.223.46.465.311.773-.254.543-.116 1.164-.352 1.714-.277.532.154 1.054.264 1.572.437-.467.853-.971 1.105-1.564.254-.844.146-1.738.247-2.6.207-1.296 1.02-2.355 1.7-3.437-.186-.693.622-1.04.588-1.708.148-.112.455-.281.287-.497-.456-.283-.944-.516-1.423-.756m-1.626-27.062c.47-.09.892.081 1.124.506-.15.098-.301.193-.453.286.953.087 1.206 1.192.925 1.963.192-.026.383-.06.574-.098l.382.361c-.152.11-.307.216-.461.322.021.202.046.404.07.607-.27.16-.571.244-.87.325.619.228.968.937 1.687.885.107-.514.446-1.06.197-1.577-.134-.26.055-.525.112-.78a1.192 1.192 0 0 1-.857-.46c.252-.1.507-.191.763-.28-.104-.18-.205-.36-.301-.543l.326-.21c.098-.162.202-.32.309-.476.298.173.618.297.93.439-.082.156-.164.313-.244.472.055.03.165.093.22.125l.348-.111c.144.196.278.399.402.609-.19.064-.38.126-.57.187.51.483 1.239-.068 1.726.487-.163.309-.434.533-.672.778.262.141.494.33.563.634a1.37 1.37 0 0 0-.444.633c.512.044.984.23 1.402.526l.149-.413c.389-.06.678.123.801.495.201.028.403.06.607.092-.035.358-.114.71-.172 1.066l.438.116c.097-.106.194-.213.292-.318.628.117.974.7 1.408 1.106.287.316.764.49.863.947.14.626.363 1.345.991 1.642.78.534.63 1.633 1.359 2.203-.264.404-.358.874-.42 1.344.193.079.387.156.583.234l.36-.407c.305.105.588.263.845.46a9.56 9.56 0 0 1-.532.376c.033.138.069.278.104.418.162.023.325.045.488.07.034.267.05.538.088.806.213.185.513.249.749.41l-.038.405c.682.321 1.297-.16 1.926-.35.055-.201.106-.402.156-.604-.211-.137-.432-.26-.68-.313-.123-.363.294-.491.451-.75.127-.213.262-.423.47-.565.215.146.427.294.642.442.127-.211.245-.428.359-.648.368-.009.718.097 1.011.32.62-.012 1.434-.11 1.563-.86l.412-.095c-.16-.121-.323-.24-.483-.359.036-.132.074-.262.113-.393.395-.008.753-.149.976-.49.508.35 1.146.641 1.194 1.347-.18.035-.358.07-.535.107.563.521 1.214.956 1.275 1.797l.312.07c.096.17.193.34.288.512-.094.088-.187.175-.279.264.326.325.801.587.85 1.094.048.449.404.732.735.987.003.2 0 .401-.004.601-.27.023-.543.022-.81.063.004.352-.197.661-.279.973.298.55.587 1.178 1.147 1.513.153.611-.192 1.168-.445 1.7.015.56.187 1.08.395 1.59.158.405-.38.522-.602.74l.309.178-.096.315c.38.169.689.447.993.726-.072.08-.144.163-.216.245.189.399.378.797.54 1.207-.078.109-.157.217-.234.327.276.864-.101 1.801.373 2.615-.112.058-.222.116-.33.175.065.405.047.818-.113 1.2.053.713.277 1.481.018 2.187l.207.414c-.61.406-.187 1.052-.098 1.602-.215.037-.43.067-.647.09-.063.192-.132.38-.202.569.218.362.186.78.099 1.176-.186.007-.373 0-.558-.01l-.115.395.389.029c.235.503-.037.847-.543.956-.254-.217-.463-.477-.672-.734.082-.194.17-.387.254-.582-.57.038-.956-.54-.37-.882-.003-.182-.01-.364-.02-.545-.147.06-.295.122-.44.183-.115-.313.027-.61.125-.904-.177-.37-.18-.767-.127-1.166-.104.011-.31.035-.414.048-.228-.212-.438-.442-.652-.667-.034.39-.011.795-.177 1.16a7.093 7.093 0 0 1-1.473-1.589c-.303-.39-.228-.937-.542-1.325-.185.27-.311.63-.661.724.074.42.478.985-.115 1.202l.165.36c-.115.114-.23.227-.342.341l.046.66c-.186.004-.371.01-.555.021.147.16.321.288.5.41-.007.251-.06.5-.169.729.04.204.078.409.107.616l-.3.106c.064.191.126.384.182.579l-.445.147a3.82 3.82 0 0 0 .172 1.306c-.354.6-.087 1.303-.253 1.965l-.376.054a11.34 11.34 0 0 1-.034-.857l-.284-.27c.573-.598-.147-1.296.359-1.903-.673-.397-.316-1.256-.142-1.843-.088-.46-.375-.93-.046-1.365l-.157-.33c-.338.258-.425.647-.28 1.038.194.53-.5 1.011-.147 1.512.332.417.002.875-.171 1.277.676.27.463 1.052.045 1.456.361.589.153 1.302.158 1.951-.095.05-.19.1-.283.151 0 .217-.024.433-.051.648-.217-.113-.432-.227-.653-.33.488.369.782.846.49 1.46a31.328 31.328 0 0 1-.422-.312c-.291.102-.643.43-.941.205.011-.248.142-.465.246-.683-.065-.356.041-.695.228-.996l-.483-.102c.065-.522.28-1.007.42-1.51l-.376-.156c-.006-.225.007-.45.043-.67-.05-.112-.099-.222-.149-.33.087-.104.174-.207.263-.308a8.997 8.997 0 0 1-.314-.681c-.37-.086-.592-.385-.774-.695l-.277.37a5.534 5.534 0 0 1-.65-.288c-.468.144-.392.536-.245.911-.314.156-.855.778-1.107.258.082-.412.52-.763.46-1.227-.049-.251-.115-.498-.137-.753-.17-.17-.333-.347-.492-.525l-.234.262c-.094-.202-.182-.407-.275-.609-.163.074-.323.152-.481.233l-.372-.352c-.294.28-.082.642.036.952l-.388.31c.001.545.206 1.043.454 1.518a2.47 2.47 0 0 1-.923.006c-.135.26-.33.488-.443.76.19.313.422.607.525.968-.128.098-.253.198-.379.298.015.216.037.432.053.649-.18.222-.155.708-.504.714-.224-.305-.134-.7-.134-1.048a4.832 4.832 0 0 0-.687-.184c.108.295.211.594.285.902-.097.053-.192.107-.288.161.167.65-.522.686-.906.386.253-.529-.146-1.345.513-1.591a2.258 2.258 0 0 1-.187-.989 4.662 4.662 0 0 1-.44-.42c-.089-.03-.176-.06-.264-.088a4.94 4.94 0 0 0-.51-.546c.095-.17.195-.337.3-.5-.144-.122-.288-.241-.433-.358-.203.03-.407.055-.609.088.08.2.168.398.263.592l-.305.306c.13.25.262.5.38.757-.229.164-.433.554-.757.365-.04-.323-.001-.65-.035-.973l-.353-.06c-.11-.122-.223-.241-.335-.36.143-.403.205-.831.385-1.22a2.38 2.38 0 0 1-.19-.776l-.41-.175-.05-.299c-.09-.07-.176-.14-.263-.209-.044-.499.016-.996.234-1.45-.15-.022-.3-.043-.449-.061l-.107-.502c-.143.157-.286.315-.432.47-.32-.29-.44-.722-.071-1.032-.123-.086-.242-.175-.363-.262l-.162.202.159.466-.194.323c.047.39-.042.846.297 1.13.24.196.133.534-.11.67.234.399.188.85.017 1.263l.347.33c-.051.39-.047.797-.21 1.164a8.532 8.532 0 0 1-.314-.596c-.133.22-.282.427-.461.611-.032.489-.016 1.014.38 1.363-.254.224-.334.76-.73.717-.11-.275.116-.516.213-.755a2.904 2.904 0 0 0-.438-.59c.04-.18.09-.355.14-.531l-.287-.178a20.731 20.731 0 0 1-.051-.34l-.293-.194c.11-.234.262-.444.39-.667-.042-.261-.41-.209-.597-.325.206-.237.434-.453.636-.692l-.422-.166c.046-.472.119-.946.269-1.397-.125-.449-.41-.972.054-1.323-.11-.404-.045-.818.074-1.21-.078-.115-.158-.227-.236-.34.062-.327.12-.655.137-.988-1.331 1.5-.88 3.698-1.597 5.457-.508 1.118-1.139 2.176-1.764 3.233-.693 1.061-.528 2.46-1.276 3.498-.322.564-.957 1.057-.827 1.778.097.921.186 1.867.553 2.728.469 1.061.31 2.253.504 3.37.187.414.461.789.571 1.238-1.778.077-3.562.03-5.34-.03-.37.046-.735-.327-.466-.671.473-.779 1.126-1.546.918-2.532-.517-.564-1.112-1.066-1.524-1.72-.533-.889-.874-1.883-1.446-2.749a160.057 160.057 0 0 0-2.822-3.665c-.466-.643-1.296-.764-1.977-1.071a3.624 3.624 0 0 1-.526.351c-.049-.2-.089-.401-.126-.603l-.608-.241c.033.227.057.455.052.685l-.445-.051c-.134.265.01.85-.392.836a1.172 1.172 0 0 1 .326-1.27 7.536 7.536 0 0 0-.57-.11c-.141.514-.294 1.024-.504 1.516.826.231.332 1.11.37 1.71-.743.35-.574 1.354-.2 1.931.654.749.052 1.752.106 2.617.087.742.76 1.58-.042 2.153a44.715 44.715 0 0 1-.26-.22 29.774 29.774 0 0 1-.46-.058c.086-.566.366-1.268-.285-1.62.052-.45-.01-.903.023-1.353-.152-.08-.305-.156-.457-.234-.514.348.113 1.013-.429 1.398-.153-.01-.307-.017-.46-.025-.049.127-.098.254-.146.383l.356.11c.426.777-.109 1.61.015 2.425.018.701.328 1.346.406 2.04-.51.109-1.089.272-1.525-.117-.301.21-.648.367-1.022.267-.257.072-.538.063-.732-.147.281-.361.581-.773.21-1.198-.26.12-.524.233-.786.353.105.172.212.344.316.519-.113.027-.227.054-.34.083a4.05 4.05 0 0 0-.555-.418c.028.355.282.616.443.917-.214.093-.428.182-.642.274a28.918 28.918 0 0 0-.341-.222 7.99 7.99 0 0 1-.623.207c.064-.48.264-.938.141-1.43-.14.051-.282.101-.421.154-.292-.512-.408-1.092-.414-1.675-.154.23-.227.496-.177.772.077.42-.448.657-.365 1.09.047.37-.124.693-.364.962-.5-.341-.81-.85-.62-1.465a3596.5 3596.5 0 0 0-.247-.243c.031-.456-.246-.801-.555-1.097.046-.215.382-.462.177-.657-.424-.348-.19-.945-.267-1.417l-.308-.042c-.54.662.156 1.484-.212 2.188-.33.578.338 1.214.09 1.79-.188.288-.426-.1-.576-.238-.014.077-.045.232-.061.31l-.406.048c.139-.574.04-1.151-.355-1.603-.31.148-.32.607-.64.698-.512-.359-.158-.95.027-1.383-.154-.735-.35-1.565-.994-2.03l-.05.508a9.59 9.59 0 0 1-.473.157c-.1-.425.189-.746.425-1.057-.435.14-.88.253-1.327.352-.216-.393-.36-.833-.78-1.063-.255-.508.07-1.105-.043-1.648-.092-.327.056-.624.24-.884l-.37-.36c-.095-.75.711-1.55.022-2.175.147-.287.452-.635.2-.954-.254-.24-.536-.453-.759-.726l-.444.15c-.159-.347-.385-.658-.707-.869-.133.393.072 1.107-.531 1.098-.81.259-.777-1.193-1.66-.81.162-.489.398-.95.553-1.442-.366-.266-.818-.057-1.205-.231.12-.723-.633-.99-1.131-.55l-.087-.585a6.06 6.06 0 0 1-.593.453c-.009-.393.302-.907-.116-1.184-.436-.365-.642-.907-.774-1.443-.224.036-.446.075-.671.106.254-.63.73-1.27.43-1.991-.103-.101-.636-.166-.36-.332.6-.327.63-1.37.007-1.695-.285-.35.156-.72.299-1.032.08-.4-.227-.739-.276-1.121.08-.274.333-.45.492-.677-.11-.186-.456-.49-.113-.64.379-.203.524-.617.775-.937.323-.178.776-.134.96-.524.562-.553.229-1.372.325-2.059-.113-.1-.228-.198-.343-.297.046-.247.095-.493.143-.739-.069-.095-.138-.19-.209-.284.031-.289.056-.576.067-.865-.185-.033-.369-.066-.554-.097.195-.51.495-1.003 1.016-1.231a67.333 67.333 0 0 1-.274-.312c1.208-.936 2.784-1.414 4.3-1.131.334.018.35.389.421.635.566.372 1.18.672 1.701 1.11.518.267 1.104.44 1.53.862.345.3.283.871.71 1.102.461.29.84.94 1.463.776.641-.189 1.344.477 1.914-.03.414-.422 1.09.026 1.467-.455.349-.448.892-.62 1.445-.568.025-.158.051-.316.078-.473-.59-.382-.395-1.065-.72-1.59-.31.115-.617.241-.944.294.173-.347.428-.693.277-1.1-.247-.726.67-1.185.534-1.896-.202-.309-.478-.561-.67-.877-.21.071-.416.146-.627.211.153-.49.58-.95.388-1.493-.11-.342-.045-.694.02-1.036-.674-.444-.07-1.241-.512-1.792-.324-.611-.04-1.349.288-1.905l-.246-.226c-.009-1.02.935-1.516 1.618-2.092.7-.062 1.706-.486 2.125.327.432.04.616-.37.916-.59.407-.157.768.205 1.138.32.395-.011.731-.287 1.129-.299.356.12.667.342 1.009.495.353-.153.677-.398 1.055-.484.471.03.937.13 1.413.108.102-.26.18-.53.317-.774.553-.057 1.174.238 1.068.887l.466.21c-.061.2-.132.4-.206.596.782.45 1.38 1.183 2.238 1.508.575.194.47.92.858 1.285.359.338.726.767 1.272.724.005-.469-.555-.825-.292-1.288.37-.561-.544-.596-.649-1.099-.934-.119-.255-1.75-1.315-1.637-.124-.492.074-.96.18-1.43-.163-.322-.404-.597-.562-.923.104-.128.21-.255.317-.38-.089-.359-.253-.688-.41-1.02.084-.264.26-.488.342-.752-.14-.214-.329-.389-.5-.575.347-.365.697-.836.468-1.362.134-.113.268-.225.403-.336 0-.149.01-.297.026-.444.758-.396 1.605.212 2.36-.145.255.36.416.772.59 1.174-.34.33-.842.396-1.19.698-.055.502-.069 1.012-.241 1.495.645-.045 1.129-.496 1.731-.67.356-.344.768-.623 1.291-.484.099-.232.345-.263.56-.314-.122-.146-.245-.293-.363-.443.236-.227.618-.561.942-.293.409.302.88.5 1.343.7-.083-.22-.172-.438-.258-.657.39-.212.8-.084 1.202.005.273-.22.511-.485.84-.623a4.404 4.404 0 0 1-.424-.785l.18-.307c-.068-.135-.134-.27-.2-.406.372-.25.807-.218 1.195-.024-.11.241-.201.49-.23.754.147-.107.291-.22.435-.33l.295.214c-.01-.414.299-.624.65-.746a24.585 24.585 0 0 1-.25-.35"/>
        <circle cx="43.661" cy="43.661" r="43.661" stroke="#FFF" stroke-width="2"/>
    </g>
</svg>
