<svg xmlns="http://www.w3.org/2000/svg" width="82" height="74" viewBox="0 0 82 74">
    <g fill="#FFF" fill-rule="evenodd">
        <path d="M20.226 6.506c-.865.346-1.464 1.098-2.096 1.747-.484.565-.984 1.456-.492 2.159.572.682 1.57.278 2.157-.173.915-.722 1.908-1.617 2.07-2.831.076-.86-.955-1.292-1.639-.902M16.253 2.71c-.792.377-1.435 1-1.985 1.67-.384.497-.76 1.094-.687 1.75.077.588.739.938 1.29.772 1.034-.265 1.745-1.124 2.447-1.867.443-.55.911-1.336.544-2.04-.32-.57-1.094-.558-1.61-.285m-4.36.433C12.92 1.335 14.912.125 16.988.007c.922-.05 1.906.174 2.594.817.381.334.6.799.807 1.25C21 1.547 21.453.752 22.26.514c1.04-.276 2.042.937 1.531 1.895-.376.625-.986 1.064-1.484 1.588.717.284 1.414.745 1.736 1.473.674 1.422.331 3.106-.367 4.45-.945 1.864-2.89 3.135-4.959 3.367-.959.091-2.003-.073-2.764-.706-.43-.35-.687-.85-.905-1.35-.647.539-1.114 1.416-1.997 1.585-1.022.174-1.891-1.025-1.404-1.942.387-.605.981-1.043 1.47-1.565-.836-.306-1.58-.93-1.866-1.791-.489-1.458-.114-3.074.64-4.374M71.07 44.808c-.012 1.806-.006 3.612-.002 5.418.911.003 1.822.017 2.732-.011-.005-1.8.002-3.6-.002-5.4-.91-.009-1.817-.014-2.727-.007m-19.137 0c.003 1.803-.008 3.605.005 5.408.908.027 1.816.013 2.725.011-.001-1.804.009-3.608-.004-5.411-.91-.007-1.818-.015-2.726-.008m-2.736-28.553c0 8.603.002 17.207-.001 25.813 9.108-.005 18.218-.002 27.326-.002.016-8.602.012-17.206.001-25.808-9.11-.01-18.218-.002-27.326-.003m-2.734-6.822c.01 1.354-.003 2.706 0 4.06a6066.67 6066.67 0 0 1 32.792.005c.028-1.355-.008-2.711.01-4.068-10.934-.007-21.868-.013-32.802.003m-2.724-1.4c-.022-.751.676-1.387 1.422-1.328 11.8-.006 23.6-.006 35.398 0 .718-.05 1.336.508 1.44 1.201v7.181c-.14.48-.46.955-.975 1.075-.58.112-1.173.062-1.759.07-.003 9.037.003 18.075-.003 27.111.029.609-.364 1.23-.969 1.385-.58.11-1.174.059-1.76.072-.003 2.176-.003 4.354.003 6.53.01.458-.082.959-.452 1.267-.382.379-.956.367-1.455.366-1.548-.026-3.093.001-4.639-.008-.44-.002-.933-.043-1.252-.387-.396-.353-.416-.913-.413-1.403.01-2.126.001-4.25.008-6.375-3.645.01-7.289-.008-10.93.008-.017 2.27.007 4.542-.01 6.812.014.784-.73 1.417-1.503 1.346-1.814-.019-3.632.03-5.447-.022-.735-.016-1.298-.725-1.244-1.439-.01-2.235.002-4.47-.003-6.708-.783-.038-1.743.22-2.353-.415-.488-.48-.368-1.214-.384-1.832.01-8.771.003-17.544.004-26.316-.587-.006-1.181.05-1.763-.057-.61-.16-1.006-.79-.967-1.406.001-2.241-.013-4.487.006-6.729"/>
        <path d="M57.395 23.044c.005.898-.003 1.795.011 2.693 3.64.024 7.283.003 10.923.01.002-.901-.005-1.802.006-2.703a713.856 713.856 0 0 0-10.94 0m-1.931-2.619c.544-.207 1.145-.105 1.715-.12 3.735 0 7.47-.002 11.205 0 .586.014 1.185-.07 1.76.074.647.203.999.914.954 1.559-.081 1.76.005 3.524-.046 5.284-.024.693-.67 1.264-1.358 1.239a3533.4 3533.4 0 0 1-13.646.001c-.695.028-1.35-.54-1.369-1.244-.034-1.814-.003-3.63-.014-5.446-.034-.558.28-1.123.799-1.347M30.076 63.87c-.016 1.802-.023 3.603.003 5.405.905-.004 1.811.017 2.716-.016.011-1.795-.001-3.588.005-5.383-.908-.004-1.816-.007-2.724-.005zm-21.88.006c.006 1.795.004 3.591 0 5.386.909.029 1.817.01 2.723.008.024-1.8.018-3.6.004-5.4-.908.004-1.818 0-2.726.006zM5.47 35.31c-.008 8.6-.003 17.198-.001 25.797 5.278-.083 10.559.05 15.84.005 4.741.042 9.482-.094 14.223-.003.003-8.6 0-17.198.001-25.797-10.02-.01-20.042-.005-30.063-.002zm-2.738-8.203c.014 1.814-.015 3.628.012 5.442 5.278-.092 10.556-.017 15.835-.043 6.559.026 13.12-.048 19.679.042.022-1.814-.002-3.627.01-5.44-11.846-.002-23.691-.004-35.536 0zM0 25.538c.136-.66.729-1.197 1.425-1.15 12.712-.004 25.425 0 38.137 0 .762-.05 1.46.606 1.436 1.37.013 2.508-.006 5.015.008 7.522-.008.53.042 1.148-.373 1.552-.607.647-1.58.387-2.365.44-.007 9.028.001 18.056-.003 27.085.04.615-.348 1.246-.958 1.41-.583.12-1.182.06-1.773.066-.002 2.162-.003 4.322.003 6.484.011.468-.06.99-.44 1.313-.382.386-.963.37-1.466.374-1.55-.02-3.1-.002-4.65-.005-.45.005-.94-.062-1.261-.409-.352-.318-.397-.816-.39-1.258.004-2.166-.003-4.333.002-6.5-4.555.004-9.111.002-13.666.002.003 2.113-.006 4.225.007 6.338.003.493-.01 1.059-.404 1.418-.396.438-1.03.41-1.571.412-1.602-.02-3.205.01-4.805-.01-.74.044-1.446-.584-1.422-1.333-.02-2.275.003-4.551-.008-6.826-.754-.05-1.66.194-2.284-.349-.605-.528-.424-1.397-.45-2.106.002-8.704.013-17.407-.006-26.111-.585-.007-1.177.05-1.754-.064-.506-.117-.817-.582-.969-1.045v-8.62z"/>
        <path d="M15.039 42.079c-.012.904-.007 1.807-.005 2.711 3.643.002 7.285.002 10.929 0 0-.908.008-1.815-.005-2.722-3.639.014-7.279-.013-10.92.01m-1.85-2.645c.555-.147 1.14-.072 1.708-.093 4.115.024 8.229-.008 12.343.01.455-.026.915.167 1.184.54.346.434.282 1.02.285 1.539-.037 1.593.02 3.189-.02 4.782.004.76-.731 1.362-1.473 1.3-4.473.003-8.944-.001-13.418.002-.437.016-.89-.126-1.169-.478-.408-.437-.323-1.071-.336-1.617.027-1.592-.018-3.186.016-4.778.008-.535.381-1.027.88-1.207M58.023 66.388c-.55.183-.745.859-.554 1.37.291.897 1 1.582 1.69 2.195.52.423 1.156.837 1.859.768.557-.07.93-.675.786-1.207-.174-.982-.977-1.662-1.657-2.322-.564-.515-1.325-1.028-2.124-.804m3.834-3.835c-.476.18-.687.751-.559 1.22.19.868.88 1.48 1.483 2.08.518.515 1.16.996 1.919 1.034.623.039 1.13-.605.977-1.2-.204-1.014-.993-1.775-1.74-2.432-.57-.459-1.318-.965-2.08-.702m-1.225-2.368c1.45-.52 3.081-.142 4.39.588 1.891 1.032 3.132 3.103 3.219 5.24.014.895-.23 1.845-.878 2.495-.334.355-.788.556-1.225.754.541.611 1.357 1.067 1.584 1.892.244 1.014-.92 1.963-1.867 1.516-.659-.358-1.094-1.002-1.642-1.495a2.998 2.998 0 0 1-2.551 2.042c-2.588.286-5.218-1.325-6.25-3.692-.58-1.32-.844-2.947-.108-4.262.344-.643.98-1.06 1.65-1.314-.579-.702-1.654-1.215-1.602-2.251.027-.936 1.156-1.575 1.978-1.121.597.386 1.03.972 1.545 1.456.304-.822.907-1.557 1.757-1.848"/>
    </g>
</svg>
