<svg xmlns="http://www.w3.org/2000/svg" width="55" height="69" viewBox="0 0 55 69">
    <g fill="#FFF" fill-rule="evenodd">
        <path d="M22.389 30.005c-1.457.32-2.69 1.266-3.577 2.443-1.368-.472-2.865-.625-4.273-.237-2.295.56-4.222 2.401-4.89 4.673-.27.826-.317 1.7-.345 2.563-1.488.213-2.956.768-4.07 1.806-1.481 1.327-2.37 3.31-2.305 5.308 0 1.805.815 3.523 2.026 4.831-.44.87-.809 1.793-.917 2.77-.24 1.957.4 4.004 1.729 5.46 1.468 1.667 3.776 2.555 5.98 2.258 2.138-.24 4.11-1.558 5.181-3.423a6.96 6.96 0 0 0 .618-5.543c-.524-1.75-1.793-3.233-3.392-4.094.321-.63.663-1.248.983-1.877 2.19 1.115 3.859 3.194 4.515 5.563a9.09 9.09 0 0 1-.263 5.741c-.66 1.749-1.889 3.25-3.42 4.307 1.937.753 4.212.57 5.985-.523.918-.53 1.617-1.338 2.376-2.062.514 1.06.975 2.18 1.803 3.043 1.48 1.658 3.792 2.52 5.993 2.21a6.684 6.684 0 0 0 4.468-2.389c-1.642-1.643-2.721-3.899-2.757-6.242.708.001 1.416-.008 2.126-.006a8.432 8.432 0 0 0 1.994 4.597c.225.32.659.29.95.518a6.791 6.791 0 0 0 3.89 1.302c2.113.063 4.222-.935 5.538-2.591 1.349-1.676 1.898-4.017 1.278-6.096-.145-.515-.523-.913-.757-1.384a7.115 7.115 0 0 0-1.482-2.001c-1.325-1.257-3.168-1.84-4.97-1.83 0-.719.003-1.435-.008-2.152 3 .008 6.003 1.442 7.73 3.932 1.113-1.356 2.01-3.055 1.868-4.86-.119-2.294-1.464-4.474-3.455-5.609-.883-.541-1.9-.78-2.907-.96-.079-1.207-.252-2.421-.726-3.542a9.744 9.744 0 0 0-5.054-5.237c-1.9-.861-4.086-1.046-6.11-.55a9.69 9.69 0 0 0-5.394 3.545 9.688 9.688 0 0 0-1.955 5.81c-.711.009-1.422-.006-2.133-.002-.012-3.028 1.215-6.017 3.317-8.185-1.403-1.213-3.38-1.734-5.188-1.285M7.227 8.455c.204 2.548 1.11 5.039 2.621 7.1 2.029 2.815 5.148 4.82 8.553 5.476 1.71.36 3.464.235 5.198.26.92.006 1.84-.012 2.76.002-.305-4.144-2.578-8.075-6.008-10.404a13.798 13.798 0 0 0-7.692-2.432c-1.812-.001-3.622.003-5.432-.001m25.51-1.406c-2.407 2.327-3.914 5.552-4.169 8.893 1.9-.007 3.8.007 5.7-.01 3.63-.085 7.182-1.695 9.667-4.345a13.993 13.993 0 0 0 3.766-8.48c-1.858.005-3.715-.003-5.572.004-3.48.053-6.909 1.497-9.392 3.938m-.805-2.15c2.799-2.46 6.481-3.885 10.205-3.928C44.714.96 47.292.968 49.87.97c.03 1.711-.062 3.442-.517 5.1-.985 3.864-3.49 7.3-6.835 9.453-2.48 1.62-5.424 2.505-8.383 2.557-1.868.014-3.737-.007-5.604.009.004 3.741.001 7.482.001 11.223l.68.566c2.086-1.471 4.645-2.253 7.196-2.16 2.81.085 5.558 1.261 7.599 3.192a11.836 11.836 0 0 1 3.595 6.784 9.082 9.082 0 0 1 4.747 3.317 9.093 9.093 0 0 1 1.695 6.743c-.267 1.944-1.22 3.767-2.601 5.15.623 1.728.75 3.64.275 5.42-.629 2.504-2.395 4.68-4.69 5.84-2.712 1.409-6.129 1.286-8.74-.3-1.158 1.439-2.744 2.536-4.52 3.051a9.087 9.087 0 0 1-6.83-.692c-1.27-.667-2.353-1.66-3.178-2.83-2.924 2.197-7.198 2.344-10.244.312-1.617.441-3.35.516-4.971.05-2.576-.688-4.79-2.588-5.88-5.024-1.006-2.193-1.068-4.788-.198-7.035a9.137 9.137 0 0 1-1.651-4.592c-.174-2.251.528-4.562 1.941-6.321a9.081 9.081 0 0 1 4.529-3.08 9.114 9.114 0 0 1 3.721-6.17c2.022-1.463 4.656-1.999 7.095-1.501 2.114-2.145 5.466-2.894 8.293-1.867.008-1.578-.001-3.155.004-4.733-1.868-.003-3.739.008-5.607-.007a15.894 15.894 0 0 1-9.171-3.098c-3.255-2.373-5.565-6.016-6.287-9.989-.264-1.323-.296-2.678-.277-4.023 2.533.001 5.066-.004 7.597.003a15.885 15.885 0 0 1 9.55 3.273 16.233 16.233 0 0 1 4.375 5.094 16.141 16.141 0 0 1 5.354-9.786"/>
        <path d="M32.737 7.05h.001-.001zm-2.834 8.101h.977c1.11.001 2.256.002 3.381-.007 3.413-.08 6.734-1.574 9.1-4.097A13.127 13.127 0 0 0 46.82 3.9h-1.78c-.97 0-1.94 0-2.909.003-3.268.05-6.494 1.403-8.844 3.713l-.004.004c-2.053 1.985-3.424 4.692-3.835 7.532h.454zm-1.335 1.582a.787.787 0 0 1-.786-.85c.27-3.526 1.875-6.951 4.405-9.399 2.634-2.589 6.254-4.106 9.93-4.163.98-.003 1.953-.003 2.925-.002.885 0 1.77.001 2.656-.002h.003a.787.787 0 0 1 .785.852 14.708 14.708 0 0 1-3.98 8.964c-2.65 2.826-6.375 4.5-10.22 4.59-1.144.01-2.294.01-3.407.009-.77 0-1.539-.001-2.308.001h-.003zM8.11 9.247a13.014 13.014 0 0 0 2.374 5.839c1.924 2.67 4.863 4.552 8.066 5.169 1.236.26 2.486.253 3.81.245.409-.002.832-.005 1.251.001.381.003.77 0 1.157-.001l.713-.003c-.518-3.562-2.6-6.936-5.571-8.954a13.052 13.052 0 0 0-7.256-2.296H8.109zm13.592 12.836c-1.138 0-2.303-.034-3.463-.28-3.58-.688-6.876-2.798-9.029-5.786a14.638 14.638 0 0 1-2.767-7.498.79.79 0 0 1 .787-.853c1.083.002 2.166.001 3.25.001h2.18a14.64 14.64 0 0 1 8.14 2.572c3.647 2.476 6.022 6.588 6.347 10.995a.792.792 0 0 1-.798.849 82.508 82.508 0 0 0-1.573-.003c-.394.002-.788.004-1.18.001-.41-.005-.826-.003-1.227 0l-.667.002zm.688 7.922h.002-.002zm1.94 29.174a.788.788 0 0 1 .71.445c.075.155.149.311.223.468.421.888.819 1.726 1.44 2.373a.714.714 0 0 1 .018.02c1.32 1.48 3.35 2.228 5.296 1.955a5.902 5.902 0 0 0 3.503-1.604c-1.544-1.784-2.436-4.018-2.47-6.233a.79.79 0 0 1 .788-.803h.146l.852-.002c.377-.002.753-.004 1.13-.003.404.002.74.307.782.71a7.626 7.626 0 0 0 1.83 4.19c.037.017.11.041.166.06.174.06.412.14.636.312a6.01 6.01 0 0 0 3.428 1.145c1.866.055 3.744-.824 4.912-2.294 1.236-1.535 1.671-3.594 1.139-5.377-.06-.213-.195-.42-.352-.66-.12-.185-.245-.376-.355-.596a6.293 6.293 0 0 0-1.314-1.777c-1.095-1.04-2.706-1.627-4.429-1.619a.815.815 0 0 1-.56-.23.791.791 0 0 1-.232-.56v-.36c0-.584 0-1.188-.008-1.78a.791.791 0 0 1 .788-.801h.002c2.97.008 5.832 1.298 7.71 3.424.647-.968 1.202-2.202 1.1-3.5l-.001-.021c-.104-2.015-1.304-3.963-3.057-4.963l-.022-.013c-.782-.48-1.728-.695-2.634-.856a.79.79 0 0 1-.649-.726c-.091-1.4-.296-2.413-.665-3.286a8.923 8.923 0 0 0-4.645-4.822 8.644 8.644 0 0 0-5.605-.505c-1.954.48-3.76 1.665-4.952 3.253a8.88 8.88 0 0 0-1.797 5.334.79.79 0 0 1-.778.79c-.405.005-.81.003-1.216 0-.308-.002-.615-.004-.922-.002a.791.791 0 0 1-.793-.787c-.012-2.921 1.05-5.814 2.937-8.07-1.15-.709-2.555-.953-3.83-.636a1.867 1.867 0 0 1-.021.005c-1.159.255-2.266 1.018-3.118 2.147a.787.787 0 0 1-.885.27c-1.34-.462-2.656-.538-3.807-.221a.533.533 0 0 1-.022.006c-2.034.496-3.73 2.116-4.32 4.128a.517.517 0 0 1-.008.023c-.236.722-.28 1.52-.306 2.343a.79.79 0 0 1-.677.756c-1.037.149-2.511.547-3.643 1.603-1.348 1.206-2.112 2.96-2.056 4.704v.025c.002 1.506.647 3.03 1.816 4.294.225.242.275.6.126.894-.489.967-.754 1.761-.836 2.5-.215 1.751.356 3.557 1.527 4.84 1.305 1.481 3.379 2.266 5.292 2.008 1.894-.213 3.652-1.375 4.604-3.034a6.171 6.171 0 0 0 .55-4.91c-.459-1.53-1.556-2.852-3.014-3.637a.791.791 0 0 1-.329-1.056c.16-.312.323-.62.486-.928.168-.315.335-.63.497-.948a.787.787 0 0 1 1.059-.346c2.362 1.203 4.2 3.467 4.917 6.057a9.857 9.857 0 0 1-.287 6.239c-.51 1.35-1.356 2.605-2.44 3.64 1.338.161 2.727-.12 3.857-.816l.02-.012c.62-.358 1.147-.882 1.704-1.437.173-.172.346-.345.521-.512a.788.788 0 0 1 .544-.218zm6.896 6.896a7.679 7.679 0 0 1-5.67-2.525c-.644-.675-1.076-1.458-1.46-2.242-.517.509-1.066 1.013-1.738 1.402-1.953 1.199-4.508 1.422-6.673.58a.79.79 0 0 1-.162-1.387c1.434-.989 2.545-2.386 3.13-3.935a8.275 8.275 0 0 0 .242-5.244 8.282 8.282 0 0 0-3.438-4.687l-.126.237-.134.253c1.49 1.003 2.603 2.484 3.105 4.16a7.768 7.768 0 0 1-.693 6.17c-1.195 2.08-3.408 3.542-5.774 3.808-2.44.329-4.998-.636-6.658-2.52-1.468-1.61-2.19-3.885-1.92-6.079.087-.79.332-1.612.762-2.548-1.21-1.47-1.873-3.207-1.878-4.943-.067-2.202.894-4.41 2.57-5.911.984-.918 2.303-1.566 3.833-1.885.04-.717.124-1.424.354-2.13.748-2.533 2.883-4.573 5.444-5.203 1.298-.355 2.738-.324 4.195.088 1.026-1.188 2.313-1.996 3.673-2.299 2.015-.497 4.268.06 5.883 1.456a.791.791 0 0 1 .05 1.15 11.032 11.032 0 0 0-3.067 6.845l.121.001.44.002a10.469 10.469 0 0 1 2.085-5.5 10.416 10.416 0 0 1 5.834-3.834 10.219 10.219 0 0 1 6.622.597 10.5 10.5 0 0 1 5.46 5.663c.458 1.082.643 2.214.733 3.173.87.182 1.756.446 2.57.943a7.725 7.725 0 0 1 3.84 6.238c.134 1.749-.573 3.62-2.046 5.413a.787.787 0 0 1-1.256-.051c-1.387-2-3.745-3.319-6.287-3.555l.001.564c1.825.154 3.515.868 4.724 2.016a7.86 7.86 0 0 1 1.643 2.218c.07.142.166.288.266.442.199.304.424.649.547 1.084.675 2.263.131 4.876-1.423 6.807-1.468 1.847-3.837 2.955-6.176 2.884a7.585 7.585 0 0 1-4.33-1.453l-.021-.015c-.025-.016-.121-.05-.185-.07-.249-.086-.62-.212-.897-.578a9.257 9.257 0 0 1-2.059-4.3l-.438.003h-.16c.225 1.778 1.1 3.526 2.468 4.896.286.287.31.745.053 1.06a7.46 7.46 0 0 1-4.984 2.673c-.33.046-.663.068-.995.068zM31.932 4.9h.002-.002zM23.76 62.602a.787.787 0 0 1 .643.334c.78 1.105 1.783 2 2.901 2.587a8.26 8.26 0 0 0 6.24.635c1.587-.46 3.052-1.45 4.13-2.79a.787.787 0 0 1 1.022-.18c2.38 1.446 5.508 1.553 7.97.275 2.118-1.07 3.718-3.062 4.287-5.331.423-1.582.333-3.34-.251-4.96a.791.791 0 0 1 .184-.828c1.295-1.297 2.14-2.966 2.377-4.697.325-2.141-.253-4.44-1.544-6.16a8.273 8.273 0 0 0-4.337-3.034.79.79 0 0 1-.56-.637 11 11 0 0 0-3.352-6.327c-1.922-1.818-4.503-2.903-7.085-2.98-2.369-.088-4.752.628-6.72 2.015a.787.787 0 0 1-.958-.04c-.225-.188-.45-.376-.676-.562a.791.791 0 0 1-.287-.61V26.12c0-2.677.001-5.353-.001-8.03a.79.79 0 0 1 .78-.791c.955-.008 1.923-.007 2.86-.005.9.001 1.832.003 2.746-.004 2.808-.05 5.637-.912 7.96-2.429 3.202-2.062 5.57-5.336 6.5-8.986.323-1.178.483-2.498.497-4.116l-1.162-.001c-1.896-.002-3.856-.005-5.782.004-3.504.04-7.038 1.4-9.69 3.731 0 .002-.002.003-.004.004-2.714 2.35-4.569 5.74-5.089 9.302a.788.788 0 1 1-1.47.267 15.51 15.51 0 0 0-4.162-4.845 15.056 15.056 0 0 0-9.076-3.113c-1.62-.005-3.243-.004-4.865-.003H5.84c.007.983.062 2.053.266 3.078.686 3.775 2.864 7.235 5.977 9.505a15.12 15.12 0 0 0 8.72 2.947c1.212.01 2.452.009 3.651.007H26.4a.787.787 0 0 1 .787.793c-.002.723-.001 1.445 0 2.168 0 .855 0 1.71-.003 2.566a.791.791 0 0 1-1.057.739c-2.559-.93-5.559-.254-7.465 1.679a.788.788 0 0 1-.718.219c-2.24-.457-4.66.054-6.476 1.368a8.36 8.36 0 0 0-3.4 5.632.79.79 0 0 1-.558.654 8.303 8.303 0 0 0-4.133 2.811A8.283 8.283 0 0 0 1.6 47.044a8.3 8.3 0 0 0 1.51 4.196.791.791 0 0 1 .09.741c-.792 2.049-.725 4.449.18 6.42 1.006 2.248 3.011 3.962 5.367 4.59 1.401.403 2.973.385 4.561-.048a.786.786 0 0 1 .644.104c2.748 1.834 6.673 1.713 9.334-.287a.788.788 0 0 1 .473-.158zm7.442 5.476a9.797 9.797 0 0 1-4.637-1.16 9.78 9.78 0 0 1-2.977-2.45c-3.072 1.928-7.119 1.977-10.207.087-1.752.422-3.492.409-5.054-.041-2.795-.746-5.186-2.788-6.38-5.46C.91 56.8.783 54.18 1.587 51.805a9.855 9.855 0 0 1-1.56-4.644c-.189-2.458.582-4.965 2.115-6.873a9.897 9.897 0 0 1 4.44-3.187c.465-2.47 1.923-4.764 3.968-6.212 2.049-1.482 4.749-2.109 7.294-1.705 2.067-1.89 5.035-2.664 7.764-2.066v-1.512-1.383h-1.153c-1.203.002-2.447.003-3.671-.007a16.704 16.704 0 0 1-9.634-3.252c-3.433-2.504-5.838-6.326-6.593-10.483-.286-1.435-.308-2.917-.29-4.176a.79.79 0 0 1 .788-.779h2.728c1.624 0 3.248-.002 4.871.003a16.638 16.638 0 0 1 10.027 3.436 16.911 16.911 0 0 1 3.526 3.653c.876-3.198 2.713-6.154 5.206-8.314C34.344 1.73 38.25.227 42.128.183c1.936-.01 3.899-.008 5.797-.005l1.945.001c.43 0 .78.346.787.776.039 2.137-.135 3.828-.545 5.325-1.024 4.019-3.638 7.635-7.169 9.908a16.591 16.591 0 0 1-8.795 2.682c-.93.007-1.864.006-2.769.004-.676-.001-1.37-.002-2.06 0 .002 2.416.001 4.831 0 7.246v2.738c2.132-1.338 4.634-2.02 7.117-1.93 2.958.09 5.916 1.331 8.111 3.408a12.589 12.589 0 0 1 3.747 6.75 9.854 9.854 0 0 1 4.688 3.457 9.832 9.832 0 0 1 1.84 7.33c-.261 1.904-1.138 3.747-2.482 5.231.549 1.79.6 3.698.138 5.425-.676 2.696-2.583 5.07-5.096 6.341-2.733 1.42-6.165 1.404-8.918-.003-1.226 1.332-2.795 2.32-4.477 2.807a9.755 9.755 0 0 1-2.786.404z"/>
    </g>
</svg>
