<svg xmlns="http://www.w3.org/2000/svg" xmlns:xlink="http://www.w3.org/1999/xlink" width="43" height="56" viewBox="0 0 43 56">
    <defs>
        <path id="a" d="M42.84.103H0v49.372h42.84V.103z"/>
    </defs>
    <g fill="none" fill-rule="evenodd">
        <g transform="translate(0 .513)">
            <mask id="b" fill="#fff">
                <use xlink:href="#a"/>
            </mask>
            <path fill="#FFF" d="M21.54 3.583l-.002.004.002-.004zm-.003.005l-.002.002.002-.002zm-.003.004v.001zm-.167.09zm.002.002l.002.002-.002-.002zm.002.002l.001.001-.001-.001zM3.74 45.756a.588.588 0 0 0 .196.027h34.967c.057 0 .14-.005.195-.026-1.135-1.337-6.796-7.784-10.58-12.078a1.847 1.847 0 0 1 1.382-3.068h6.382c-1.707-1.918-10.889-12.26-10.889-12.26a1.844 1.844 0 1 1 1.377-3.073h4.833C30.202 13.66 24.51 7.237 21.478 3.82l-.013-.015a.27.27 0 0 0-.075-.009c-.003 0-.003-.003-.003-.005l-.024.029c-3.034 3.417-8.724 9.84-10.126 11.46h4.832c.726 0 1.384.427 1.682 1.09a1.85 1.85 0 0 1-.305 1.983S8.196 28.768 6.554 30.611h6.384a1.847 1.847 0 0 1 1.382 3.068c-3.783 4.294-9.445 10.74-10.58 12.077zm35.163 3.719H3.937c-1.585 0-2.918-.805-3.565-2.153-.595-1.24-.469-2.68.32-3.669.495-.617 5.084-5.846 8.165-9.35H6.433c-1.598 0-2.9-.78-3.482-2.088-.562-1.261-.303-2.77.659-3.845.522-.583 5.243-5.898 8.353-9.399h-1.224c-1.29 0-2.492-.79-3.06-2.011a3.496 3.496 0 0 1 .478-3.755c.891-1.067 9.486-10.752 10.387-11.768.491-.649 1.48-1.334 2.846-1.334 1.357 0 2.38.683 2.88 1.306.753.847 9.513 10.719 10.414 11.797a3.498 3.498 0 0 1 .477 3.756c-.57 1.22-1.77 2.009-3.06 2.009h-1.224c3.11 3.5 7.83 8.815 8.353 9.399.962 1.074 1.221 2.582.659 3.844-.582 1.308-1.884 2.09-3.482 2.09h-2.424c3.08 3.503 7.67 8.732 8.164 9.349.79.988.917 2.428.323 3.667-.647 1.35-1.98 2.155-3.566 2.155z" mask="url(#b)"/>
        </g>
        <path fill="#FFF" d="M17.843 52.373v0m6.647 3.524h-6.778c-2.275 0-3.53-1.773-3.555-3.441V48.14c0-1.02.825-1.846 1.843-1.846s1.843.827 1.843 1.846v4.064h6.51l.006-4.064a1.844 1.844 0 0 1 3.686 0v4.287c-.024 1.696-1.279 3.47-3.555 3.47"/>
    </g>
</svg>
